<?xml version="1.0" encoding="UTF-8"?>
<svg width="114px" height="116px" viewBox="0 0 114 116" version="1.1" xmlns="http://www.w3.org/2000/svg" xmlns:xlink="http://www.w3.org/1999/xlink">
    <title>Artboard</title>
    <g id="Artboard" stroke="none" stroke-width="1" fill="none" fill-rule="evenodd">
        <g id="Paperform_Icon_Easy-to-Master_Black-2" transform="translate(57.124369, 58.499369) rotate(-90.000000) translate(-57.124369, -58.499369) translate(10.000000, 11.375000)" fill="#1A1A1A" fill-rule="nonzero">
            <g id="Paperform_Icon_Easy-to-Master_Black" transform="translate(47.124369, 47.124369) rotate(-315.000000) translate(-47.124369, -47.124369) translate(13.802854, 13.801962)">
                <rect id="Rectangle" x="31.6430285" y="31.6448141" width="35" height="35"></rect>
                <polygon id="Path" points="35 -1.98491818e-14 35 9.38939024 9.29522989 9.39014124 9.29463415 35 -2.13162821e-14 35 -1.27437545e-14 -2.84217094e-14"></polygon>
                <polygon id="Path-Copy" points="45.429825 10.4316107 45.429825 19.8210009 19.7250549 19.8217519 19.7244592 45.4316107 10.429825 45.4316107 10.429825 10.4316107"></polygon>
                <polygon id="Path-Copy-2" points="56.0364267 21.0382124 56.0364267 30.4276027 30.3316566 30.4283536 30.3310609 56.0382124 21.0364267 56.0382124 21.0364267 21.0382124"></polygon>
            </g>
        </g>
    </g>
</svg>