<?xml version="1.0" encoding="utf-8"?>
<!-- Generator: Adobe Illustrator 25.2.1, SVG Export Plug-In . SVG Version: 6.00 Build 0)  -->
<svg version="1.1" id="Layer_1" xmlns="http://www.w3.org/2000/svg" xmlns:xlink="http://www.w3.org/1999/xlink" x="0px" y="0px"
	 viewBox="0 0 1366 768" style="enable-background:new 0 0 1366 768;" xml:space="preserve">
<g>
	<path style="fill:#FAE1DD;" d="M610.95,26.16C416.33,13.94,347.3,109.94,248.38,209.22c-98.91,99.28-144.64,204.09-87.16,353.27
		c57.48,149.19,193.2,187.12,406.2,187.12c213.01,0,432.37,20.78,543.46-60.36c111.09-81.14,148.94-266.58-12.02-363.6
		C1004.06,268.5,880,43.04,610.95,26.16z"/>
	<g>
		<defs>
			<path id="SVGID_1_" d="M627.95,24.16C433.33,11.94,364.3,107.94,265.38,207.22c-98.91,99.28-144.64,204.09-87.16,353.27
				c57.48,149.19,193.2,187.12,406.2,187.12c213.01,0,432.37,20.78,543.46-60.36c111.09-81.14,148.94-266.58-12.02-363.6
				C1021.06,266.5,897,41.04,627.95,24.16z"/>
		</defs>
		<clipPath id="SVGID_2_">
			<use xlink:href="#SVGID_1_"  style="overflow:visible;"/>
		</clipPath>
		<g style="clip-path:url(#SVGID_2_);">
			<g>
				<path style="fill:#6D6875;" d="M316.08,716.27c-2.08-25.85-10.47-50.4-18.83-74.76c-8.26-24.08-17.56-49.49-17.97-75.24
					c-0.18-11.12,4.89-33.73,20.74-29.48c5.36,1.44,8.73,7.25,11.15,11.78c3.19,5.97,5.69,12.32,7.89,18.7
					c8.31,24.1,9.81,49.9,9.74,75.19c-0.05,19.02-1.37,38.13,0.18,57.12c0.09,1.13,1.79,1.17,1.79,0
					c-0.07-26.65,1.42-53.27,6.12-79.53c2.24-12.53,5.28-24.91,8.88-37.12c1.29-4.37,5.37-11.07,9.85-12.23
					c6.67-1.73,14.92,0.13,17.48,7.33c9.58,26.88,1.46,55.82-7.46,81.66c-3.77,10.91-7.52,21.81-12.36,32.28
					c-3.95,8.55-7.83,17.13-11.63,25.75c-1.11,2.53-2.21,5.06-3.27,7.6c-0.44,1.06,1.29,1.52,1.72,0.47
					c6.78-16.31,15.21-31.97,21.17-48.58c8.93-24.89,18.9-50.46,17.77-77.37c-0.25-5.95-1.26-11.85-2.77-17.59
					c-1.36-5.17-2.96-9.09-7.6-11.99c-3.27-2.04-7.45-2.2-11.15-1.74c-4.71,0.58-6.33,1.84-8.86,5.68
					c-0.97,1.47-3.23,3.65-3.71,5.23c-0.91,3-1.79,6-2.64,9.02c-1.79,6.38-3.36,12.82-4.79,19.3c-2.61,11.85-4.5,23.86-5.87,35.92
					c-2.11,18.55-2.72,37.25-2.67,55.91c0.6,0,1.19,0,1.79,0c-1.79-21.85,0.03-43.87-0.22-65.76c-0.29-24.76-3.03-49.64-11.9-72.91
					c-3.25-8.53-7.11-18.83-14.87-24.29c-8.02-5.64-16.95,0.56-21.33,7.55c-5.83,9.31-5.46,21.7-4.28,32.16
					c1.36,12.08,4.27,23.99,7.62,35.65c9.98,34.66,25.57,67.92,28.5,104.28C314.38,717.41,316.17,717.42,316.08,716.27
					L316.08,716.27z"/>
			</g>
			<g>
				<path style="fill:#6D6875;" d="M315.91,715.98c-0.45-4.96-1-9.89-2.05-14.76c-0.21-0.98-1.82-0.77-1.76,0.24
					c0.3,4.97,1.01,9.88,1.79,14.8c0.18,1.14,1.9,0.65,1.72-0.47c-0.75-4.76-1.43-9.51-1.72-14.32c-0.58,0.08-1.17,0.16-1.76,0.24
					c1.02,4.71,1.54,9.49,1.98,14.29C314.23,717.12,316.02,717.13,315.91,715.98L315.91,715.98z"/>
			</g>
			<g>
				<path style="fill:#6D6875;" d="M291.49,716.66c-7.56-19.98-23.4-34.64-37.48-50.08c-7.54-8.27-14.57-17.03-19.64-27.06
					c-4.8-9.51-11.32-23.79-4.78-33.85c5.65-8.7,18.01-1.65,24.17,2.49c7.85,5.29,14.04,12.37,19.99,19.65
					c16.47,20.17,28.87,43.81,36,68.86c1.75,6.16,3.08,12.44,4.1,18.76c0.18,1.14,1.91,0.65,1.72-0.47
					c-3.95-24.38-13.28-47.51-26.29-68.44c-10.1-16.26-22.72-33.73-39.89-43.11c-5.57-3.04-12.83-5.37-18.56-1.52
					c-7.27,4.89-6.12,15.57-4.25,22.81c5.36,20.66,20.03,36.7,34.23,51.84c11.43,12.18,22.94,24.74,28.94,40.6
					C290.17,718.21,291.9,717.74,291.49,716.66L291.49,716.66z"/>
			</g>
			<g>
				<path style="fill:#6D6875;" d="M361.36,582.05c-11.84,18.45-9.6,41.98-13.22,62.76c-2.08,11.94-6.35,23.3-8.53,35.2
					c-2.3,12.58-4.83,25.08-7.82,37.51c-0.27,1.12,1.45,1.6,1.72,0.47c2.87-11.89,5.39-23.85,7.56-35.89
					c2.04-11.32,5.97-22.14,8.16-33.43c2.09-10.75,2.98-21.54,3.99-32.42c1.08-11.67,3.24-23.29,9.67-33.31
					C363.53,581.97,361.98,581.08,361.36,582.05L361.36,582.05z"/>
			</g>
			<g>
				<path style="fill:#6D6875;" d="M294.42,555.14c0.8,13.48,5.37,26.24,8.47,39.28c3.46,14.55,6.29,29.29,9.22,43.96
					c2.85,14.28,5.41,28.63,8.48,42.87c3.17,14.69,5.69,29.59,5.77,44.66c0.01,1.15,1.79,1.15,1.79,0
					c-0.07-13.56-2.14-26.95-4.81-40.21c-2.96-14.77-5.91-29.54-8.82-44.33c-2.79-14.17-5.61-28.37-8.76-42.47
					c-3.25-14.52-8.66-28.82-9.55-43.76C296.14,554,294.35,553.99,294.42,555.14L294.42,555.14z"/>
			</g>
			<g>
				<path style="fill:#6D6875;" d="M249.99,629.66c13.47,12.82,24.54,27.8,34.66,43.33c5.13,7.86,9.77,16.11,14.41,24.27
					c5.19,9.13,8.15,18.79,11.9,28.53c0.41,1.06,2.14,0.6,1.72-0.47c-3.39-8.79-5.92-17.74-10.46-26.05
					c-4.77-8.75-9.81-17.5-15.19-25.88c-10.36-16.14-21.86-31.74-35.79-45C250.41,627.6,249.15,628.86,249.99,629.66L249.99,629.66z
					"/>
			</g>
			<g>
				<path style="fill:#6D6875;" d="M252.45,653.73c10.85,7.29,22.74,13.02,33.01,21.17c0.89,0.71,2.17-0.55,1.26-1.26
					c-10.39-8.25-22.39-14.07-33.37-21.45C252.39,651.55,251.5,653.1,252.45,653.73L252.45,653.73z"/>
			</g>
			<g>
				<path style="fill:#6D6875;" d="M282.34,652.35c3.97,5.23,6.35,11.98,8.58,18.08c2.75,7.49,4.68,15.39,6.48,23.16
					c0.26,1.12,1.98,0.65,1.72-0.47c-1.89-8.17-4-16.4-6.89-24.28c-2.15-5.87-4.54-12.37-8.35-17.39
					C283.19,650.54,281.64,651.43,282.34,652.35L282.34,652.35z"/>
			</g>
			<g>
				<path style="fill:#6D6875;" d="M341.19,631.53c0.61,7.55,4.26,14.44,4.51,22.04c0.04,1.15,1.82,1.15,1.79,0
					c-0.24-7.62-3.89-14.49-4.51-22.04C342.89,630.39,341.1,630.38,341.19,631.53L341.19,631.53z"/>
			</g>
			<g>
				<path style="fill:#6D6875;" d="M306.28,568.7c-2.5,7.85-2.16,16.41-3.22,24.52c-0.15,1.14,1.64,1.13,1.79,0
					c1.04-7.96,0.71-16.34,3.16-24.05C308.36,568.07,306.63,567.6,306.28,568.7L306.28,568.7z"/>
			</g>
			<g>
				<path style="fill:#6D6875;" d="M292.07,601.28c3.92,5.54,7.13,11.51,11.18,16.96c3.72,5.02,6.76,9.86,8.13,16.01
					c0.25,1.13,1.97,0.65,1.72-0.47c-1.18-5.31-3.39-9.29-6.42-13.76c-4.41-6.5-8.52-13.24-13.06-19.64
					C292.95,599.45,291.4,600.34,292.07,601.28L292.07,601.28z"/>
			</g>
			<g>
				<path style="fill:#6D6875;" d="M320.79,622.93c-1.83,11-3.6,22.01-4.65,33.11c-0.11,1.15,1.68,1.14,1.79,0
					c1.04-10.95,2.79-21.8,4.59-32.64C322.7,622.28,320.97,621.79,320.79,622.93L320.79,622.93z"/>
			</g>
			<g>
				<path style="fill:#6D6875;" d="M367.92,594.51c-4.42,11.55-11.91,21.73-17.14,32.9c-0.49,1.04,1.06,1.94,1.54,0.9
					c5.3-11.31,12.84-21.63,17.32-33.33C370.05,593.9,368.33,593.44,367.92,594.51L367.92,594.51z"/>
			</g>
		</g>
		<g style="clip-path:url(#SVGID_2_);">
			<g>
				<path style="fill:#6D6875;" d="M1006.05,744.27c-3.48-8.34-7.94-15.93-14.07-22.59c-7.71-8.37-17.67-13.88-24.49-23.15
					c-6.69-9.09-12.33-19.31-17.88-29.12c-3.27-5.78-5.91-11.62-7-18.2c-1.06-6.41-0.79-13.06-0.32-19.51
					c-0.45,0.26-0.9,0.51-1.34,0.77c4.32,1.85,7.5,5.12,10.99,8.16c3.46,3.02,7.54,5.32,11.24,8.03
					c8.64,6.33,16.39,14.64,22.69,23.26c5.85,8,9.96,17.43,13.92,26.46c3.44,7.85,6.24,16.81,11.34,23.77
					c0.56,0.76,1.99,0.34,1.63-0.69c-6.3-18.02-8.84-37.15-8.26-56.2c0.26-8.64,1.31-17.4,2.62-25.93
					c1.28-8.28,3.29-16.68,7.56-23.96c-0.51,0-1.03,0-1.54,0c2.07,4.01,2.55,8.41,3.36,12.78c0.92,4.92,2.65,9.58,4.41,14.24
					c3.88,10.27,6.06,21.27,8.07,32.04c2.14,11.46,2.64,22.21,0.88,33.76c-1.61,10.58-4.54,20.93-6.74,31.4
					c-0.2,0.95,1.16,1.64,1.63,0.69c3.16-6.36,6.13-12.8,8.77-19.4c2.88-7.19,4.79-14.65,7.33-21.95
					c4-11.46,10.82-21.88,21.77-27.59c13.1-6.83,43.04-13.63,46.45,7.61c0.44-0.34,0.88-0.67,1.31-1.01
					c-19.78-8.38-35.3,10.11-45.23,24.84c-6.73,9.98-13.69,19.37-21.38,28.66c-3.05,3.69-5.78,8.23-9.34,11.43
					c-3.17,2.86-9.33,7.23-13.83,6.81c-1.15-0.11-1.14,1.68,0,1.79c5.96,0.56,14.22-5.49,17.54-10.07
					c6.77-9.35,14.82-17.72,21.59-27.07c11.16-15.41,25.93-44.92,49.74-34.84c0.75,0.32,1.44-0.19,1.31-1.01
					c-3.39-21.07-30.96-16.35-45-10.56c-10.66,4.4-18.16,12.22-23.32,22.51c-3.57,7.13-5.36,14.91-7.89,22.42
					c-3.07,9.13-7.1,17.91-11.38,26.53c0.54,0.23,1.09,0.46,1.63,0.69c2.31-10.99,5.29-21.84,6.98-32.96
					c1.62-10.66,1.1-20.88-0.81-31.44c-2.05-11.36-4.39-22.88-8.38-33.75c-1.73-4.71-3.35-9.32-4.41-14.24
					c-0.97-4.55-1.38-9.01-3.54-13.21c-0.31-0.61-1.22-0.56-1.54,0c-8.15,13.88-9.33,31.93-10.29,47.67
					c-1.23,20.11,1.53,40.79,8.18,59.8c0.54-0.23,1.09-0.46,1.63-0.69c-5.38-7.34-8.34-16.91-11.98-25.23
					c-4.21-9.59-8.82-19.15-15.16-27.53c-5.73-7.57-12.73-14.65-20.26-20.45c-4.3-3.31-9.04-6.03-13.14-9.6
					c-3.29-2.87-6.21-5.76-10.28-7.5c-0.64-0.27-1.29,0.04-1.34,0.77c-0.83,11.51-0.37,22.49,4.64,33.04
					c5.15,10.84,11.96,21.27,18.49,31.32c2.78,4.28,5.94,8.26,9.61,11.81c4.03,3.89,8.82,6.94,12.99,10.68
					c8.12,7.27,13.92,16.19,18.09,26.2C1004.77,745.8,1006.5,745.34,1006.05,744.27L1006.05,744.27z"/>
			</g>
			<g>
				<path style="fill:#6D6875;" d="M993.88,745.41c-10.12-16.37-18.2-38.58-37.6-46.07c-10.33-3.99-22.81-1.72-32.5,2.88
					c-10.94,5.19-19.64,14.43-27.33,23.53c-0.55,0.65-0.05,1.76,0.87,1.49c16.57-4.88,37.37-5.89,52.73,3.27
					c7.33,4.37,13.08,11.8,18.86,17.96c3.82,4.07,6.63,10.92,12.55,12.34c1.12,0.27,1.6-1.45,0.47-1.72
					c-3.97-0.95-6.65-5.29-8.95-8.33c-2.18-2.9-4.66-5.43-7.13-8.09c-5.91-6.34-11.71-12.71-19.83-16.18
					c-15.27-6.51-33.55-5.59-49.19-0.98c0.29,0.5,0.58,1,0.87,1.49c14.1-16.68,34.58-34.03,58.09-25.95
					c9.64,3.31,16.56,12.16,21.96,20.33c5.32,8.03,9.51,16.73,14.57,24.91C992.94,747.29,994.48,746.39,993.88,745.41L993.88,745.41
					z"/>
			</g>
			<g>
				<path style="fill:#6D6875;" d="M966.81,667.73c7.24,15.18,20.08,26.4,29.32,40.24c4.59,6.88,8.58,14.57,12.04,22.06
					c4.26,9.22,2.91,18.72,2.84,28.58c-0.01,1.15,1.78,1.15,1.79,0c0.06-8.33,1.49-17.13-1.3-25.13
					c-2.92-8.39-7.82-16.4-12.32-24.01c-8.97-15.19-23.16-26.55-30.83-42.63C967.86,665.79,966.32,666.7,966.81,667.73
					L966.81,667.73z"/>
			</g>
			<g>
				<path style="fill:#6D6875;" d="M942.29,713.72c13.24,7.02,26.18,14.34,35.36,26.48c3.26,4.31,6.44,8.67,9.75,12.94
					c0.97,1.25,3.67,5.92,5.7,5.71c1.13-0.12,1.15-1.91,0-1.79c-1.49,0.16-6.33-7.64-7.05-8.6c-3-3.97-5.92-8.01-8.98-11.93
					c-8.65-11.09-21.7-17.89-33.89-24.35C942.17,711.64,941.27,713.18,942.29,713.72L942.29,713.72z"/>
			</g>
			<g>
				<path style="fill:#6D6875;" d="M1016.39,664.59c0.15,7.88,2.29,15.44,3.21,23.23c1.1,9.33,0.21,19-1.16,28.25
					c-2.53,17.02-1.35,34.3-6.04,51.04c0.59,0.08,1.17,0.16,1.76,0.24c0-0.67,0-1.34,0-2.02c0-1.15-1.79-1.15-1.79,0
					c0,0.67,0,1.34,0,2.02c0,1.01,1.48,1.21,1.76,0.24c4.54-16.18,4.15-33.11,5.89-49.7c0.95-8.98,2.07-17.72,1.64-26.79
					c-0.43-8.94-3.3-17.53-3.47-26.5C1018.15,663.44,1016.37,663.44,1016.39,664.59L1016.39,664.59z"/>
			</g>
			<g>
				<path style="fill:#6D6875;" d="M1074.58,675.91c-13.67,8.65-23.6,23.6-31.4,37.47c-7.5,13.35-14.1,29.81-29.04,36.4
					c-1.05,0.46-0.14,2,0.9,1.54c13.29-5.86,20.29-19.63,26.82-31.79c8.29-15.43,18.51-32.52,33.62-42.08
					C1076.46,676.84,1075.56,675.29,1074.58,675.91L1074.58,675.91z"/>
			</g>
		</g>
	</g>
</g>
<g>
	<g>
		<path style="fill:#BDB2FF;" d="M702.34,382.29c0,9.51-7.71,17.22-17.22,17.22l0,0c-9.51,0-17.22-7.71-17.22-17.22v-11.95
			c0-9.51,7.71-17.22,17.22-17.22l0,0c9.51,0,17.22,7.71,17.22,17.22V382.29z"/>
		<path style="fill:#B5838D;" d="M877.81,570.32c-4.75-23.2-25.31-85.93-75.39-108.6c-50.09-22.67-97.01-4.22-114.4,6.32
			c-17.4,10.54-37.43,51.67-46.39,90.15c-8.96,38.48-39.54,37.96-63.26,46.39l11.07,40.07l244.62,1.58c0,0,0,0,0.53-6.33
			C898.37,636.22,882.56,593.52,877.81,570.32z M627.66,631.74c9.75,0,53.24-32.69,62.21-31.64c4.48,23.99,5.01,36.64,5.54,38.23
			C695.93,639.91,630.29,651.51,627.66,631.74z"/>
		<path style="fill:#FFB4A2;" d="M714.55,479.12c-3.16,15.11-16.17,107.55,5.98,168.35c17.22,1.4,42.88,0,42.88,0
			c-4.92-31.98-14.76-120.56,5.62-171.16C748.65,476.66,714.55,479.12,714.55,479.12z"/>
		<path style="fill:#FFB4A2;" d="M725.8,451.7c-17.4,1.06-21.44,19.86-13.53,31.46c7.91,11.6,22.84,2.11,25.48-3.69
			c18.81,17.75,43.23,1.76,48.5-24.6C786.25,452.76,756.38,446.96,725.8,451.7z"/>
		<path style="fill:#BDB2FF;" d="M775.36,356.42c-0.79-17.54-18.8-51.02-61.51-49.13c-30.4,2.34-34.09,31.14-34.09,31.14
			c-1.06,3.23-6.5,10.07-6.5,10.07c-1.58-13.49,6.95-49.25,45.34-50.21c43.23-1.08,63.87,32.75,64.67,57.05
			C779.84,361.01,775.36,356.42,775.36,356.42z"/>
		<path style="fill:#31241C;" d="M690.55,323.23c-14.6,10-23.35,26.65-15.95,43.2c7.4,16.56,9.5,23.85,2.32,36.81
			c-10.1,18.22-14.35,35.23-6.76,50.7c45.79-6.32,65.94-11.47,65.94-11.47S718.41,321.29,690.55,323.23z"/>
		<path style="fill:#EAAB88;" d="M758.53,406.6c0,0,11.33,34.13,12.4,48.55c0.98,13.22-42.77,22.04-45.88,8.18
			c-3.23-16.49-8.04-44.52-8.04-44.52"/>
		<path style="fill:#E09169;" d="M762.16,420.85l-3.64-14.25l-41.52,12.21c0,0,1.48,8.61,3.37,19.41c3.08,0.59,6.27,0.87,9.55,0.72
			C743.45,438.34,755.11,431.25,762.16,420.85z"/>
		<path style="fill:#EAAB88;" d="M685.94,390.02c1.01,22.73,20.26,40.32,42.98,39.31l0,0c22.72-1.01,40.32-20.26,39.31-42.99
			l-1.94-43.51c-1.01-22.72-20.26-40.32-42.98-39.3l0,0c-22.72,1.01-40.32,20.26-39.3,42.98L685.94,390.02z"/>
		<g>
			<path style="fill:#31241C;" d="M740.29,344.97c-5.2-2.79-12.02-4.09-17.46-1.28c-2.03,1.05-0.24,4.11,1.79,3.06
				c4.23-2.18,9.87-0.87,13.88,1.28C740.52,349.11,742.31,346.05,740.29,344.97L740.29,344.97z"/>
		</g>
		<g>
			<path style="fill:#31241C;" d="M690.63,350.71c2.46-2.33,5.97-3.17,9.25-2.5c2.23,0.46,3.18-2.96,0.94-3.42
				c-4.55-0.93-9.29,0.18-12.7,3.41C686.46,349.78,688.97,352.29,690.63,350.71L690.63,350.71z"/>
		</g>
		<g>
			<path style="fill:#31241C;" d="M715.17,382.45c-0.32,0-0.63-0.11-0.89-0.33l-8.02-7.07c-0.32-0.29-0.49-0.71-0.45-1.15
				s0.3-0.82,0.68-1.03l8.08-4.55c0.65-0.36,1.46-0.13,1.83,0.51c0.36,0.65,0.13,1.46-0.51,1.83l-6.44,3.62l6.61,5.82
				c0.55,0.49,0.61,1.34,0.12,1.89C715.91,382.29,715.54,382.45,715.17,382.45z"/>
		</g>
		<g>
			<path style="fill:#31241C;" d="M718.14,393.82c-2.16,0-4.29-0.57-5.94-1.7c-0.61-0.42-0.77-1.25-0.35-1.86
				c0.42-0.61,1.25-0.77,1.86-0.35c2.28,1.56,6.1,1.63,8.72,0.18c1.57-0.88,3.41-2.68,3.25-6.31c-0.04-0.74,0.54-1.37,1.28-1.4
				c0.73-0.04,1.37,0.54,1.4,1.28c0.18,3.9-1.46,7.01-4.62,8.77C722.06,393.36,720.09,393.82,718.14,393.82z"/>
		</g>
		<path style="fill:#1A191F;" d="M724.18,367.61c0.98,2.59,3.87,3.89,6.45,2.91c2.58-0.97,3.89-3.86,2.91-6.45
			c-0.98-2.59-3.86-3.9-6.45-2.92C724.51,362.13,723.21,365.02,724.18,367.61z"/>
		<path style="fill:#1A191F;" d="M694.25,369.4c0.98,2.58,3.87,3.9,6.45,2.92c2.58-0.97,3.89-3.87,2.92-6.46
			c-0.98-2.59-3.87-3.89-6.45-2.91C694.58,363.93,693.27,366.81,694.25,369.4z"/>
		<g>
			<path style="fill:#1A191F;" d="M695.54,368.22c-0.21,0-0.42-0.06-0.61-0.17l-4.88-2.99c-0.55-0.34-0.73-1.06-0.39-1.62
				c0.34-0.55,1.07-0.73,1.62-0.39l4.88,2.99c0.55,0.34,0.73,1.06,0.39,1.62C696.33,368.02,695.94,368.22,695.54,368.22z"/>
		</g>
		<g>
			<path style="fill:#1A191F;" d="M731.01,366.46c-0.37,0-0.74-0.18-0.97-0.51c-0.37-0.53-0.24-1.27,0.3-1.64l5.11-3.54
				c0.53-0.37,1.27-0.24,1.64,0.3c0.37,0.53,0.24,1.27-0.3,1.64l-5.11,3.54C731.47,366.39,731.24,366.46,731.01,366.46z"/>
		</g>
		<path style="fill:#31241C;" d="M807.39,390.28c-6.83-14.72,1.6-23.85-2.03-37.88c-3.19-12.26-17.78-11.88-25.31-29.26
			c-11.54-26.64-70.89-50.62-93.03,3.44c24.6-16.68,49.82-8.01,59.4,4.32c19.3,24.87-0.5,35.41,6.95,50.2
			c5.43,10.78,8.99,18.04,1.97,34.34c-7.02,16.31,2.81,31.82,2.81,31.82c22.97-2.54,48.94-4.8,72.53-8.8
			C830.67,398.67,814.22,405,807.39,390.28z"/>
		<path style="fill:#EAAB88;" d="M702.96,594.05c-20.03,1.76-27.76,7.73-45.69,17.22c-17.92,9.49-21.79,11.6-17.57,13.36
			c-10.54,0.7-4.39,6.32,2.99,3.86c-4.92,2.11,1.93,4.4,11.77,0.71c2.46,3.87,15.11,2.11,23.2-2.46c8.08-4.57,27.41-8.44,44.99-2.46
			c2.11-10.89-4.57-29.87-4.57-29.87L702.96,594.05z"/>
		<path style="fill:#FFB4A2;" d="M715.7,594.31c10.81-2.37,41.04-4.84,58.96-3.78c1.05,14.06-6.68,42.53-6.68,42.53l-47.8-10.55
			C720.18,622.51,722.55,607.49,715.7,594.31z"/>
		<g>
			<path style="fill:#1F0E03;" d="M714.79,594.56c21.34-3.08,42.93-3.03,64.43-3.63c10.36-0.29,20.3-1.5,30.57-2.67
				c9.76-1.12,21.32,1,30.7,3.84c1.11,0.33,1.57-1.39,0.47-1.72c-8.66-2.62-18.8-4.34-27.87-4.15c-4.49,0.1-9,1.02-13.43,1.68
				c-6.17,0.92-12.45,0.98-18.68,1.18c-22.26,0.72-44.57,0.56-66.67,3.75C713.18,593,713.66,594.72,714.79,594.56L714.79,594.56z"/>
		</g>
		<g>
			<path style="fill:#1F0E03;" d="M809.99,539.8c2.03,14.84,3.09,29.77,3.13,44.75c0,1.15,1.79,1.15,1.79,0
				c-0.04-15.15-1.14-30.22-3.2-45.23C811.56,538.19,809.84,538.68,809.99,539.8L809.99,539.8z"/>
		</g>
		<g>
			<path style="fill:#1F0E03;" d="M718.77,623.4c6.46-0.08,12.45,2.79,18.58,4.45c7.28,1.98,14.42,4.45,21.7,6.45
				c14.72,4.03,30.02,6.6,45.25,7.48c24.24,1.4,53.56,0.21,71.86-17.93c0.82-0.81-0.45-2.08-1.26-1.26
				c-19.13,18.97-50.57,18.99-75.67,17.07c-15.01-1.15-30.07-4.21-44.51-8.43c-6.49-1.9-12.96-3.88-19.44-5.81
				c-5.45-1.63-10.73-3.86-16.52-3.79C717.62,621.63,717.62,623.42,718.77,623.4L718.77,623.4z"/>
		</g>
		<g>
			<path style="fill:#1F0E03;" d="M683.12,521.41c-1.6,4.8-1.12,9.95-1.05,14.94c0.1,6.85,0.6,13.7,0.96,20.54
				c0.35,6.76,0.56,13.52,1.1,20.27c0.5,6.23,2.86,12.13,3.18,18.3c0.06,1.15,1.85,1.15,1.79,0c-0.3-5.64-2.46-10.98-3.03-16.62
				c-0.62-6.17-0.82-12.39-1.09-18.58c-0.28-6.25-0.7-12.49-0.96-18.73c-0.26-6.25-1.17-13.62,0.83-19.63
				C685.2,520.79,683.48,520.32,683.12,521.41L683.12,521.41z"/>
		</g>
		<g>
			<path style="fill:#1F0E03;" d="M710.18,460.25c-2.81,9.89-4.78,22.52,6.32,28.08c4,2.01,8.56,1.01,12.42-0.74
				c2.71-1.23,5.08-3.3,7.32-5.23c2.27-1.94,3.26,1,5.26,2.44c16.3,11.66,37.76-4.48,43.16-20.57c0.37-1.1-1.36-1.56-1.72-0.47
				c-5.76,17.16-30.38,32.93-44.55,15.42c-0.32-0.39-0.93-0.3-1.26,0c-5.88,5.28-13.52,11.54-21.54,6.59
				c-8.74-5.4-5.94-17.08-3.68-25.05C712.22,459.61,710.49,459.14,710.18,460.25L710.18,460.25z"/>
		</g>
		<g>
			<path style="fill:#1F0E03;" d="M653.64,630.76c5.63-1,10.15-4.52,14.89-7.5c6.53-4.1,13.87-6.45,20.96-9.38
				c1.05-0.43,0.59-2.16-0.47-1.72c-5.85,2.41-11.84,4.45-17.5,7.32c-6.15,3.12-11.39,8.31-18.35,9.55
				C652.03,629.24,652.51,630.96,653.64,630.76L653.64,630.76z"/>
		</g>
		<g>
			<path style="fill:#1F0E03;" d="M640.85,630.67c14.23-6.01,27.34-14.46,41.96-19.59c1.08-0.38,0.62-2.11-0.47-1.72
				c-14.76,5.19-28.01,13.7-42.39,19.78C638.89,629.57,639.8,631.11,640.85,630.67L640.85,630.67z"/>
		</g>
		<g>
			<path style="fill:#1F0E03;" d="M637.68,626.45c5.62-3.41,12.04-5,17.81-8.07c5.72-3.04,11.41-6.15,17.33-8.8
				c1.05-0.47,0.14-2.01-0.9-1.54c-5.92,2.64-11.61,5.75-17.33,8.8c-5.78,3.08-12.19,4.65-17.82,8.07
				C635.8,625.5,636.7,627.05,637.68,626.45L637.68,626.45z"/>
		</g>
		<g>
			<path style="fill:#1F0E03;" d="M730.39,494.38c0.6,3.17,5.09,3.06,6.54,0.61c0.81-1.36-0.07-2.97-1.31-3.67
				c-1.52-0.87-3.83-0.72-4.87,0.79c-0.66,0.95,0.89,1.84,1.54,0.9c0.79-1.14,4.07,0.05,2.92,1.33c-0.88,0.97-2.82,1.05-3.09-0.43
				C731.9,492.78,730.17,493.26,730.39,494.38L730.39,494.38z"/>
		</g>
		<g>
			<path style="fill:#1F0E03;" d="M728.02,507.61c-0.46,3.16,3.21,4.05,5.34,2.29c1.09-0.9,1.65-2.63,0.74-3.85
				c-0.95-1.27-2.8-1.06-4.13-0.64c-1.09,0.35-0.63,2.07,0.47,1.72c0.67-0.21,1.54-0.46,2.19-0.08c0.55,0.33-0.19,1.32-0.49,1.54
				c-0.65,0.48-2.59,0.83-2.39-0.51C729.9,506.96,728.18,506.47,728.02,507.61L728.02,507.61z"/>
		</g>
		<g>
			<path style="fill:#1F0E03;" d="M726.93,524.72c0.16,3.59,5.45,2.16,5.98-0.55c0.65-3.31-5.12-5.12-5.68-1.53
				c-0.18,1.13,1.55,1.61,1.72,0.47c0.22-1.38,2.19-0.43,2.21,0.64c0.02,0.84-2.4,1.99-2.45,0.97
				C728.67,523.57,726.88,523.57,726.93,524.72L726.93,524.72z"/>
		</g>
		<g>
			<path style="fill:#1F0E03;" d="M692.13,622.51c-0.27,2.64,0.11,5.68,1.09,8.15c0.42,1.06,2.15,0.6,1.72-0.47
				c-0.94-2.35-1.28-5.16-1.02-7.67C694.04,621.36,692.25,621.38,692.13,622.51L692.13,622.51z"/>
		</g>
		<g>
			<path style="fill:#1F0E03;" d="M714.46,594.82c3.33,2.34,3.6,6.99,4.54,10.61c1.25,4.79,2.18,10.73,0.06,15.41
				c-0.47,1.04,1.07,1.95,1.54,0.9c2.39-5.28,1.39-11.32,0.12-16.78c-0.99-4.23-1.57-9.01-5.37-11.68
				C714.41,592.61,713.52,594.16,714.46,594.82L714.46,594.82z"/>
		</g>
		<g>
			<path style="fill:#1F0E03;" d="M671.34,392.6c-2.81,20.85,27.99,20.92,41.28,20.28c1.15-0.05,1.15-1.84,0-1.79
				c-11.74,0.56-42.14,1.12-39.56-18.02C673.22,391.95,671.49,391.46,671.34,392.6L671.34,392.6z"/>
		</g>
		<path style="fill:#BDB2FF;" d="M722.99,411.73c0,2.96-2.95,5.36-6.59,5.36c-3.64,0-6.59-2.4-6.59-5.36c0-2.96,2.95-5.36,6.59-5.36
			C720.04,406.36,722.99,408.77,722.99,411.73z"/>
		<path style="fill:#BDB2FF;" d="M718.6,298.29c-21.9,0.55-34.07,12.41-40.2,25.01c2.09,0.23,4.34,0.84,6.22,1.73
			c4.54-7.86,13.15-16.51,29.23-17.75c42.7-1.89,60.71,31.58,61.51,49.13c0,0,4.48,4.59,7.91-1.08
			C782.47,331.04,761.83,297.21,718.6,298.29z"/>
		<path style="fill:#BDB2FF;" d="M797.15,382.29c0,9.51-7.71,17.22-17.22,17.22l0,0c-9.52,0-17.22-7.71-17.22-17.22v-11.95
			c0-9.51,7.71-17.22,17.22-17.22l0,0c9.51,0,17.22,7.71,17.22,17.22V382.29z"/>
		<g>
			<path style="fill:#1F0E03;" d="M793.09,380.45c-0.63,11.63-16.23,14.29-20.51,3.37c-1.28-3.26-0.55-7.87-0.55-11.3
				c0-11.9,16.36-13.95,20.51-3.37C793.82,372.41,793.09,377.02,793.09,380.45c0,1.15,1.79,1.15,1.79,0c0-7.17,0.7-14.09-6.1-18.56
				c-8.24-5.41-18.06,1.85-18.53,10.63c-0.38,7.05-0.44,14.27,6.1,18.56c8.24,5.41,18.06-1.85,18.53-10.63
				C794.94,379.3,793.16,379.31,793.09,380.45z"/>
		</g>
	</g>
	<g>
		<path style="fill:#5F7E91;" d="M591.54,630.6c9.84,0,131.09,0,137.42,0c6.33,0,7.73,12.65-2.81,12.65s-315.26,0-315.26,0
			c-9.49-18.98-52.02-134.96-56.23-145.86c-4.22-10.89-0.35-23.55,16.87-23.55c17.22,0,108.25,0,120.9,0
			c12.65,0,26.71,2.1,35.5,21.44C536.72,514.62,591.54,630.6,591.54,630.6z"/>
		<path style="fill:#49687A;" d="M729.4,642.75c0.41-0.14,0.79-0.32,1.14-0.51c0.03-0.02,0.07-0.03,0.1-0.05
			c5.4-3.02,3.55-11.6-1.67-11.6c-1.03,0-5.11,0-11.25,0c-31.58,0-117.93,0-126.17,0c0,0-0.04-0.09-0.11-0.23
			c-0.06-0.13-0.15-0.31-0.27-0.56c-0.49-1.03-1.44-3.05-2.79-5.9c-11.79-24.95-52.94-112.1-60.45-128.62
			c-8.79-19.33-22.85-21.44-35.5-21.44c-2,0-5.95,0-11.25,0c12.65,0,26.71,2.1,35.5,21.44c8.78,19.33,63.61,135.31,63.61,135.31
			l4.75,12.31c0,0,5.92,0.14,15.38,0.34c49.22,0,94.12,0,114.48,0c6.23,0,10.2,0,11.25,0c0.63,0,1.21-0.05,1.76-0.14
			c0.35-0.05,0.66-0.15,0.98-0.24C729.06,642.83,729.24,642.8,729.4,642.75z"/>
		<path style="fill:none;stroke:#1F0E03;stroke-width:1.7875;stroke-miterlimit:10;" d="M477.32,560.31
			c3.47,8.58-0.64,15.53-9.18,15.53c-8.54,0-18.28-6.95-21.75-15.53c-3.47-8.58,0.64-15.54,9.18-15.54
			C464.12,544.77,473.85,551.73,477.32,560.31z"/>
	</g>
	<g>
		<path style="fill:#F5CDB3;" d="M890.19,653.06H394.43v78.59c54.42,11.59,127.78,19.96,200.01,20.87
			c98.89,1.25,201.43,0.13,295.75-4.46V653.06z"/>
		<path style="fill:#C97440;" d="M910.76,651.11c0,4.69-3.8,8.49-8.49,8.49H382.34c-4.69,0-8.49-3.81-8.49-8.49l0,0
			c0-4.69,3.8-8.49,8.49-8.49h519.93C906.96,642.61,910.76,646.42,910.76,651.11L910.76,651.11z"/>
	</g>
</g>
<g>
	<path style="fill:#FFBC45;" d="M334.67,350.04c11.78,11.17,21.41,11.17,21.39,0c-0.03-11.16-0.06-29.43-0.08-40.6
		c-0.02-11.17-9.67-20.3-21.43-20.3c-11.76,0-31.01,0-42.77,0c-11.76,0-11.74,9.14,0.04,20.3
		C303.6,320.6,322.89,338.87,334.67,350.04z"/>
	<path style="fill:#FFBC45;" d="M615.76,241.98c0,37.89-30.72,68.61-68.61,68.61H295.29c-37.89,0-68.61-30.72-68.61-68.61V151.6
		c0-37.89,30.72-68.61,68.61-68.61h251.86c37.89,0,68.61,30.72,68.61,68.61V241.98z"/>
	<text transform="matrix(1 0 0 1 399.2695 154.1074)" style="fill:#C97440; font-family:'Raleway-Bold'; font-size:39.204px;">HELP!</text>
	<rect x="403.32" y="172.32" style="fill:#FFF2DB;" width="175.66" height="11.42"/>
	<rect x="403.32" y="200.07" style="fill:#FFF2DB;" width="151.69" height="11.42"/>
	<rect x="403.32" y="227.83" style="fill:#FFF2DB;" width="100.61" height="11.42"/>
	<rect x="403.32" y="255.57" style="fill:#FFF2DB;" width="162.73" height="11.42"/>
	<g>
		<path style="fill:#31241C;" d="M368.45,262.76c-5.23-13-23.34-22.29-32.6-22.16h-31.25c-10.27,0.97-27.36,9.16-32.6,22.16
			c12.24,12.11,29.31,19.64,48.22,19.64C339.14,282.4,356.21,274.87,368.45,262.76z"/>
		<path style="fill:#C97440;" d="M307.47,213.92c0,0-2.99,24.59-5.06,38.49c-1.51,10.15,34.93,13.01,36.04,2.06
			c0.97-12.98,2.08-34.99,2.08-34.99"/>
		<path style="fill:#AB5D2D;" d="M305.99,225.21l1.48-11.3l33.06,5.56c0,0-0.34,6.76-0.81,15.24c-2.32,0.73-4.74,1.25-7.28,1.44
			C321.99,236.94,312.36,232.56,305.99,225.21z"/>
		<path style="fill:#C97440;" d="M361.76,194.48c1.32,17.57-11.86,32.88-29.43,34.19l0,0c-17.57,1.31-32.88-11.87-34.19-29.44
			l-2.52-33.64c-1.32-17.57,11.87-32.88,29.43-34.19l0,0c17.57-1.32,32.88,11.86,34.19,29.43L361.76,194.48z"/>
		<g>
			<path style="fill:#31241C;" d="M318.33,169.1c4.47-0.95,8.06-2.94,10.75-6.69c1.34-1.86-1.74-3.63-3.06-1.79
				c-2.13,2.98-5.12,4.31-8.63,5.06C315.15,166.16,316.1,169.58,318.33,169.1L318.33,169.1z"/>
		</g>
		<g>
			<path style="fill:#31241C;" d="M354.43,162.13c-2.5-0.47-4.04-1.66-5.27-3.88c-1.11-2-4.17-0.21-3.06,1.79
				c1.63,2.95,4.05,4.88,7.39,5.51C355.72,165.97,356.67,162.55,354.43,162.13L354.43,162.13z"/>
		</g>
		<g>
			<path style="fill:#31241C;" d="M338.46,191.66c-0.32,0-0.64-0.11-0.89-0.34c-0.55-0.49-0.6-1.34-0.11-1.89l4.26-4.77l-4.89-2.03
				c-0.68-0.28-1.01-1.07-0.73-1.75c0.28-0.69,1.07-1.01,1.75-0.73l6.64,2.75c0.4,0.17,0.7,0.52,0.79,0.94
				c0.1,0.42-0.02,0.87-0.31,1.19l-5.52,6.18C339.2,191.5,338.83,191.66,338.46,191.66z"/>
		</g>
		<g>
			<path style="fill:#31241C;" d="M330.4,205.22c-0.42,0-0.83-0.2-1.1-0.57c-0.43-0.6-0.28-1.44,0.32-1.87
				c5.28-3.73,10.02-5.23,14.1-4.46c0.73,0.14,1.2,0.84,1.07,1.57c-0.14,0.73-0.84,1.2-1.57,1.07c-3.33-0.63-7.38,0.72-12.05,4.02
				C330.94,205.14,330.67,205.22,330.4,205.22z"/>
		</g>
		<path style="fill:#1A191F;" d="M330.29,180.76c-0.51,2.08-2.62,3.35-4.7,2.84c-2.07-0.51-3.35-2.61-2.83-4.7
			c0.51-2.08,2.61-3.35,4.69-2.83C329.53,176.58,330.8,178.68,330.29,180.76z"/>
		<path style="fill:#1A191F;" d="M353.48,179.38c-0.51,2.07-2.61,3.35-4.69,2.84c-2.08-0.51-3.35-2.62-2.84-4.7
			c0.51-2.08,2.62-3.35,4.69-2.83C352.72,175.2,353.99,177.3,353.48,179.38z"/>
		<path style="fill:#C97440;" d="M304.25,190.78c1.51,6.22-2.3,12.48-8.52,13.99l0,0c-6.22,1.51-12.48-2.3-13.99-8.52l-0.86-3.55
			c-1.51-6.22,2.3-12.48,8.52-13.99l0,0c6.22-1.51,12.48,2.31,13.99,8.52L304.25,190.78z"/>
		<path style="fill:#31241C;" d="M286.78,179.86c-2.72-7.76-16-39.31,3.74-40.26c1.22-12.39,18.44-18.92,39.95-23.14
			c21.51-4.22,34.92,5.85,33.28,15.93c-1.63,10.07-14.84,13.75-25.32,10.75c-2.99,10.89-17.42,7.22-20.55,5.04
			c-2.42,10.55-14.4,13.1-13.03,20.45c1.36,7.35,1.97,14.84,2.24,16.34c0.27,1.5-5.99,4.43-7.35,1.43
			C298.38,183.41,293.01,178.03,286.78,179.86z"/>
	</g>
	<g>
		<path style="fill:#1F0E03;" d="M346.23,352.14c13.05,2.59,5.57-41.69,5.49-48.37c-0.3,0.3-0.6,0.6-0.89,0.89
			c28.09,0.25,56.19,0.32,84.28,0.08c20.08-0.18,40.14-0.69,60.23-0.69c12.35,0,24.63-0.46,36.97-0.93
			c13.23-0.51,26.41-0.47,39.3-3.89c24.65-6.55,33.63-32.61,36.17-55.49c0.13-1.15-1.66-1.13-1.79,0
			c-1.89,16.98-7.04,35.58-20.69,46.89c-10.29,8.52-25.45,9.6-38.21,10.22c-12.71,0.62-25.48,1.16-38.21,1.34
			c-40.26,0.58-80.55,0.97-120.81,0.88c-12.41-0.03-24.82-0.08-37.23-0.19c-0.48,0-0.9,0.41-0.89,0.89
			c0.07,5.63,5.89,48.46-3.22,46.65C345.58,350.2,345.1,351.92,346.23,352.14L346.23,352.14z"/>
	</g>
	<g>
		<path style="fill:#1F0E03;" d="M606.94,167.24c0.01,22.2,0.97,44.53-0.55,66.7c-0.08,1.15,1.71,1.14,1.79,0
			c1.51-22.17,0.56-44.5,0.55-66.7C608.72,166.09,606.94,166.09,606.94,167.24L606.94,167.24z"/>
	</g>
</g>
<g>
	<path style="fill:#FFBC45;" d="M1300.95,457.29c0,39.28-31.85,71.13-71.13,71.13H968.71c-39.28,0-71.13-31.84-71.13-71.13v-93.7
		c0-39.28,31.85-71.13,71.13-71.13h261.12c39.28,0,71.13,31.85,71.13,71.13V457.29z"/>
	<path style="fill:#FFBC45;" d="M978.1,569.31c-12.22,11.57-22.2,11.57-22.17,0c0.03-11.57,0.07-30.52,0.09-42.09
		c0.02-11.58,10.02-21.05,22.22-21.05c12.19,0,32.15,0,44.35,0c12.19,0,12.18,9.47-0.04,21.05
		C1010.31,538.8,990.32,557.74,978.1,569.31z"/>
	<text transform="matrix(1 0 0 1 949.7432 371.1416)" style="fill:#C97440; font-family:'Raleway-Bold'; font-size:40.6447px;">THANKS!</text>
	<rect x="944.92" y="390.03" style="fill:#FFF2DB;" width="182.11" height="11.84"/>
	<rect x="944.92" y="418.8" style="fill:#FFF2DB;" width="157.26" height="11.85"/>
	<rect x="944.92" y="447.57" style="fill:#FFF2DB;" width="104.31" height="11.84"/>
	<g>
		<path style="fill:#31241C;" d="M1168.83,483.23c5.43-13.48,24.2-23.11,33.79-22.98h32.4c10.65,1,28.37,9.5,33.79,22.98
			c-12.69,12.56-30.39,20.36-49.99,20.36C1199.22,503.59,1181.52,495.78,1168.83,483.23z"/>
		<g>
			<path style="fill:#C97440;" d="M1232.05,432.59c0,0,3.1,25.49,5.25,39.9c1.56,10.53-36.22,13.48-37.36,2.14
				c-1.01-13.46-2.16-36.27-2.16-36.27"/>
			<path style="fill:#AB5D2D;" d="M1233.59,444.3l-1.53-11.71l-34.27,5.77c0,0,0.36,7.01,0.84,15.8c2.41,0.76,4.92,1.29,7.54,1.49
				C1217,456.45,1226.98,451.92,1233.59,444.3z"/>
			<path style="fill:#C97440;" d="M1175.76,412.43c-1.36,18.22,12.3,34.08,30.52,35.45l0,0c18.21,1.36,34.09-12.3,35.45-30.52
				l2.61-34.88c1.36-18.22-12.3-34.09-30.51-35.44l0,0c-18.22-1.36-34.09,12.3-35.45,30.51L1175.76,412.43z"/>
			<g>
				<path style="fill:#31241C;" d="M1221.04,382.89c-1.8-3.46-5.78-5.85-9.72-5.39c-2.24,0.26-2.27,3.81,0,3.55
					c2.79-0.32,5.37,1.17,6.66,3.64C1219.04,386.71,1222.1,384.92,1221.04,382.89L1221.04,382.89z"/>
			</g>
			<g>
				<path style="fill:#31241C;" d="M1185.12,381.92c1.55-1.62,4.4-2.74,6.62-2.21c2.22,0.54,3.16-2.88,0.94-3.42
					c-3.44-0.83-7.63,0.57-10.07,3.12C1181.03,381.06,1183.53,383.58,1185.12,381.92L1185.12,381.92z"/>
			</g>
			<g>
				<path style="fill:#31241C;" d="M1199.92,409.46c-0.37,0-0.73-0.15-1-0.45l-5.73-6.4c-0.29-0.32-0.4-0.77-0.31-1.19
					c0.1-0.42,0.39-0.77,0.79-0.94l6.88-2.85c0.68-0.28,1.47,0.04,1.75,0.73c0.28,0.68-0.04,1.47-0.72,1.75l-5.14,2.13l4.47,5
					c0.49,0.55,0.45,1.4-0.11,1.89C1200.56,409.35,1200.24,409.46,1199.92,409.46z"/>
			</g>
			<g>
				<path style="fill:#31241C;" d="M1199.4,427.82C1199.4,427.82,1199.4,427.82,1199.4,427.82c-3.67,0-6.16-3.89-7.6-11.9
					c-0.08-0.42,0.06-0.86,0.36-1.17c0.3-0.31,0.74-0.45,1.16-0.39c2.26,0.33,5.13,0.68,9.27,0.68c2.13,0,4.45-0.09,7.09-0.27
					c0.49-0.04,0.97,0.21,1.23,0.63c0.26,0.42,0.27,0.96,0.01,1.38C1206.54,424.21,1202.77,427.82,1199.4,427.82z M1194.8,417.26
					c1.12,5.03,2.77,7.87,4.6,7.87c1.18,0,3.7-1.04,7.88-7.55C1202.45,417.83,1198.76,417.74,1194.8,417.26z"/>
			</g>
			<path style="fill:#1A191F;" d="M1208.39,398.21c0.53,2.16,2.71,3.47,4.87,2.94c2.15-0.53,3.47-2.71,2.94-4.87
				c-0.53-2.15-2.71-3.47-4.86-2.94C1209.18,393.88,1207.86,396.06,1208.39,398.21z"/>
			<path style="fill:#1A191F;" d="M1184.35,396.78c0.53,2.15,2.71,3.47,4.87,2.94c2.15-0.53,3.48-2.71,2.94-4.87
				c-0.53-2.15-2.71-3.47-4.86-2.94C1185.14,392.45,1183.82,394.63,1184.35,396.78z"/>
		</g>
		<path style="fill:#C97440;" d="M1235.39,408.6c-1.57,6.44,2.39,12.94,8.83,14.51l0,0c6.45,1.57,12.95-2.39,14.51-8.84l0.9-3.68
			c1.57-6.44-2.38-12.94-8.83-14.51l0,0c-6.45-1.57-12.94,2.39-14.51,8.84L1235.39,408.6z"/>
		<path style="fill:#31241C;" d="M1253.51,397.29c2.82-8.05,16.58-40.76-3.88-41.74c-1.27-12.84-19.12-19.62-41.42-23.99
			c-22.3-4.37-36.2,6.07-34.51,16.51c1.7,10.44,15.38,14.25,26.25,11.15c3.11,11.29,18.06,7.48,21.31,5.22
			c2.51,10.94,14.92,13.58,13.51,21.2c-1.41,7.62-2.05,15.38-2.33,16.94c-0.28,1.56,6.21,4.58,7.63,1.48
			C1241.47,400.95,1247.05,395.38,1253.51,397.29z"/>
	</g>
	<g>
		<path style="fill:#1F0E03;" d="M1228.98,523.14c26.25-1.04,54.39-17.75,59.99-44.88c0.23-1.12-1.49-1.6-1.72-0.47
			c-5.43,26.35-32.76,42.56-58.26,43.57C1227.84,521.4,1227.83,523.19,1228.98,523.14L1228.98,523.14z"/>
	</g>
	<g>
		<path style="fill:#1F0E03;" d="M1207.26,523.28c4.79,0.17,9.58,0.27,14.37,0.37c1.15,0.03,1.15-1.76,0-1.79
			c-4.79-0.11-9.58-0.2-14.37-0.37C1206.11,521.46,1206.11,523.24,1207.26,523.28L1207.26,523.28z"/>
	</g>
	<g>
		<path style="fill:#1F0E03;" d="M977.7,562.77c9-8.1,18.04-16.16,26.5-24.83c3.91-4.01,7.41-9.25,12.13-12.42
			c2.8-1.88,6.27-2.18,9.54-2.37c6.44-0.37,12.92-0.2,19.37-0.29c11.69-0.16,23.37-0.79,35.07-0.76
			c12.53,0.02,25.05,0.59,37.57,1.16c24.38,1.11,48.81,2.26,73.14-0.24c1.13-0.12,1.15-1.91,0-1.79
			c-24.89,2.56-49.89,1.3-74.83,0.17c-13.11-0.6-26.22-1.11-39.35-1.08c-11.71,0.02-23.41,0.68-35.12,0.8
			c-7.98,0.09-19.1-1.68-26.29,2.86c-4.45,2.82-7.8,7.77-11.34,11.5c-8.71,9.19-18.25,17.57-27.65,26.03
			C975.57,562.27,976.84,563.53,977.7,562.77L977.7,562.77z"/>
	</g>
</g>
<g>
	<path style="fill:#F5CDB3;" d="M1153.62,201.14c0,20.56-16.67,37.23-37.23,37.23H769.73c-20.56,0-37.23-16.67-37.23-37.23v-34.66
		c0-20.56,16.67-37.23,37.23-37.23h346.66c20.56,0,37.23,16.67,37.23,37.23V201.14z"/>
	<g>
		<g>
			<path style="fill:#C97440;" d="M790.42,155.31c1.3-2.64,3.44-2.64,4.74,0l4.17,8.45c1.3,2.64,4.76,5.16,7.68,5.58l9.32,1.35
				c2.92,0.42,3.58,2.46,1.47,4.51l-6.74,6.57c-2.11,2.06-3.43,6.12-2.93,9.03l1.59,9.28c0.5,2.91-1.23,4.16-3.84,2.79l-8.34-4.39
				c-2.61-1.37-6.88-1.37-9.49,0l-8.34,4.38c-2.61,1.37-4.34,0.12-3.84-2.79l1.59-9.28c0.5-2.91-0.82-6.97-2.93-9.03l-6.74-6.57
				c-2.11-2.06-1.45-4.09,1.47-4.51l9.32-1.36c2.92-0.42,6.38-2.94,7.68-5.58L790.42,155.31z"/>
		</g>
		<g>
			<path style="fill:#C97440;" d="M864.9,155.31c1.31-2.64,3.44-2.64,4.75,0l4.16,8.45c1.31,2.64,4.76,5.16,7.68,5.58l9.32,1.35
				c2.92,0.42,3.58,2.46,1.47,4.51l-6.74,6.57c-2.11,2.06-3.43,6.12-2.93,9.03l1.59,9.28c0.5,2.91-1.23,4.16-3.84,2.79l-8.34-4.38
				c-2.61-1.37-6.88-1.37-9.49,0l-8.34,4.39c-2.61,1.37-4.34,0.12-3.84-2.79l1.59-9.28c0.5-2.91-0.82-6.97-2.93-9.03l-6.74-6.57
				c-2.11-2.06-1.45-4.09,1.47-4.51l9.32-1.36c2.92-0.42,6.37-2.94,7.68-5.58L864.9,155.31z"/>
		</g>
		<g>
			<path style="fill:#C97440;" d="M939.38,155.31c1.31-2.64,3.44-2.64,4.75,0l4.17,8.45c1.3,2.64,4.76,5.16,7.68,5.58l9.32,1.35
				c2.92,0.42,3.58,2.46,1.47,4.51l-6.74,6.57c-2.11,2.06-3.43,6.12-2.93,9.03l1.59,9.28c0.5,2.91-1.23,4.16-3.84,2.79l-8.34-4.38
				c-2.61-1.37-6.88-1.37-9.49,0l-8.33,4.38c-2.61,1.37-4.34,0.12-3.84-2.79l1.59-9.28c0.5-2.91-0.82-6.97-2.93-9.03l-6.74-6.57
				c-2.11-2.06-1.45-4.09,1.47-4.52l9.31-1.35c2.92-0.43,6.37-2.94,7.68-5.58L939.38,155.31z"/>
		</g>
		<g>
			<path style="fill:#C97440;" d="M1013.86,155.31c1.31-2.64,3.44-2.64,4.75,0l4.16,8.45c1.3,2.64,4.76,5.16,7.68,5.58l9.32,1.35
				c2.92,0.42,3.58,2.46,1.47,4.51l-6.74,6.57c-2.11,2.06-3.43,6.12-2.93,9.03l1.59,9.28c0.5,2.91-1.23,4.16-3.84,2.79l-8.33-4.38
				c-2.61-1.37-6.88-1.37-9.49,0l-8.34,4.38c-2.61,1.37-4.34,0.12-3.84-2.79l1.59-9.28c0.5-2.91-0.82-6.97-2.93-9.03l-6.74-6.57
				c-2.11-2.06-1.45-4.09,1.47-4.51l9.32-1.36c2.92-0.42,6.37-2.94,7.68-5.58L1013.86,155.31z"/>
		</g>
		<g>
			<path style="fill:#C97440;" d="M1088.34,155.31c1.31-2.64,3.44-2.64,4.75,0l4.17,8.45c1.31,2.64,4.76,5.16,7.68,5.58l9.32,1.35
				c2.92,0.42,3.58,2.46,1.47,4.51l-6.74,6.57c-2.11,2.06-3.43,6.12-2.93,9.03l1.59,9.28c0.5,2.91-1.23,4.16-3.84,2.79l-8.34-4.39
				c-2.61-1.37-6.88-1.37-9.49,0l-8.33,4.38c-2.61,1.37-4.34,0.12-3.84-2.79l1.59-9.28c0.5-2.91-0.82-6.97-2.93-9.03l-6.74-6.57
				c-2.11-2.06-1.45-4.09,1.47-4.52l9.31-1.35c2.92-0.43,6.37-2.94,7.68-5.58L1088.34,155.31z"/>
		</g>
	</g>
	<g>
		<path style="fill:#1F0E03;" d="M918.81,232.9c5.88-0.07,11.75-0.58,17.63-0.65c1.15-0.01,1.15-1.8,0-1.79
			c-5.88,0.07-11.75,0.58-17.63,0.65C917.65,231.13,917.65,232.91,918.81,232.9L918.81,232.9z"/>
	</g>
	<g>
		<path style="fill:#1F0E03;" d="M944.63,232.25c21.02-0.47,42.03,0.46,63.05,0.12c10.49-0.17,20.89-1.15,31.35-1.67
			c11-0.54,22.02-0.35,33.02-0.07c10.51,0.27,21.01,0.68,31.52,0.83c7.25,0.11,14.62,0.46,21.75-1.09
			c11.67-2.52,16.64-11.98,17.42-23.21c0.08-1.15-1.71-1.14-1.79,0c-0.43,6.23-1.87,12.36-6.51,16.82
			c-4.22,4.06-10.58,5.15-16.18,5.59c-8.33,0.66-16.87,0.09-25.22-0.13c-9.91-0.25-19.81-0.64-29.72-0.81
			c-19.78-0.34-39.39,1.72-59.15,1.98c-19.85,0.25-39.7-0.62-59.55-0.17C943.48,230.49,943.47,232.28,944.63,232.25L944.63,232.25z"
			/>
	</g>
</g>
<g>
	<path style="fill:#F5CDB3;" d="M320.96,468.72c0,20.56-16.67,37.23-37.23,37.23h-147.1c-20.56,0-37.23-16.67-37.23-37.23V425.4
		c0-20.56,16.67-37.23,37.23-37.23h147.1c20.56,0,37.23,16.67,37.23,37.23V468.72z"/>
	<text transform="matrix(1 0 0 1 141.209 463.9072)" style="fill:#C97440; font-family:'Raleway-Bold'; font-size:57.3923px;">24/7</text>
	<g>
		<path style="fill:#1F0E03;" d="M227.07,499.54c25.49-6.24,53.9,6.3,77.13-9.4c0.95-0.64,0.06-2.19-0.9-1.54
			c-22.94,15.51-51.44,3.03-76.7,9.22C225.48,498.09,225.95,499.81,227.07,499.54L227.07,499.54z"/>
	</g>
	<g>
		<path style="fill:#1F0E03;" d="M312.65,433.52c0.39,3.84,0.2,7.69,0.72,11.52c0.61,4.44,1.26,8.73,1.22,13.23
			c-0.08,8.51-0.8,17.56-5.74,24.77c-0.65,0.95,0.9,1.85,1.54,0.9c4.34-6.34,5.43-13.96,5.86-21.47c0.22-3.88,0.31-7.84-0.23-11.7
			c-0.8-5.77-1-11.48-1.59-17.24C314.32,432.39,312.53,432.37,312.65,433.52L312.65,433.52z"/>
	</g>
</g>
</svg>
