<?xml version="1.0" encoding="utf-8"?>
<!-- Generator: Adobe Illustrator 25.2.1, SVG Export Plug-In . SVG Version: 6.00 Build 0)  -->
<svg version="1.1" id="Layer_1" xmlns="http://www.w3.org/2000/svg" xmlns:xlink="http://www.w3.org/1999/xlink" x="0px" y="0px"
	 viewBox="0 0 1366 768" style="enable-background:new 0 0 1366 768;" xml:space="preserve">
<g>
	<g>
		<path style="fill:#8C9DF4;" d="M649,357.05c-0.74-1.54-1.57-3.1-2.44-4.64l2.47-1.41c0.91,1.59,1.76,3.21,2.53,4.8L649,357.05z
			 M643.83,347.93c-0.94-1.44-1.95-2.9-2.99-4.32l2.29-1.68c1.07,1.46,2.11,2.96,3.08,4.45L643.83,347.93z M361.22,379.3
			c-1.8,0.19-3.61,0.35-5.38,0.45l-0.17-2.84c1.72-0.1,3.49-0.25,5.24-0.44L361.22,379.3z M366.57,378.6l-0.44-2.81
			c1.71-0.27,3.46-0.58,5.19-0.92l0.56,2.79C370.11,378.01,368.32,378.32,366.57,378.6z M350.44,379.93
			c-1.81,0.01-3.63-0.02-5.4-0.1l0.13-2.84c1.72,0.08,3.49,0.11,5.25,0.1L350.44,379.93z M377.14,376.48l-0.67-2.76
			c1.69-0.41,3.4-0.87,5.1-1.35l0.79,2.73C380.62,375.59,378.87,376.06,377.14,376.48z M339.65,379.43c-1.8-0.18-3.6-0.42-5.37-0.71
			l0.46-2.81c1.71,0.28,3.45,0.51,5.2,0.69L339.65,379.43z M387.49,373.51l-0.89-2.7c1.65-0.54,3.33-1.13,4.98-1.74l0.98,2.67
			C390.89,372.36,389.18,372.96,387.49,373.51z M397.59,369.79l-1.08-2.63c1.61-0.66,3.25-1.36,4.86-2.08l1.16,2.6
			C400.89,368.41,399.23,369.12,397.59,369.79z M328.96,377.69c-1.77-0.4-3.54-0.86-5.24-1.37l0.81-2.73
			c1.65,0.49,3.36,0.93,5.07,1.32L328.96,377.69z M637.62,339.46c-1.1-1.34-2.26-2.68-3.44-3.98l2.1-1.91
			c1.21,1.33,2.4,2.71,3.53,4.09L637.62,339.46z M407.41,365.4l-1.24-2.56c1.57-0.76,3.15-1.56,4.72-2.38l1.32,2.52
			C410.61,363.82,409,364.63,407.41,365.4z M318.57,374.61c-1.7-0.63-3.39-1.32-5.02-2.06l1.17-2.59c1.57,0.71,3.2,1.38,4.84,1.98
			L318.57,374.61z M416.93,360.43l-1.39-2.48c1.52-0.85,3.06-1.74,4.58-2.65l1.46,2.44C420.04,358.66,418.47,359.57,416.93,360.43z
			 M630.54,331.68c-1.24-1.23-2.52-2.45-3.82-3.62l1.91-2.11c1.33,1.2,2.65,2.45,3.92,3.72L630.54,331.68z M308.68,370.15
			c-1.59-0.86-3.17-1.79-4.68-2.76l1.53-2.4c1.45,0.93,2.97,1.82,4.5,2.65L308.68,370.15z M426.15,354.94l-1.52-2.41
			c1.47-0.93,2.97-1.9,4.44-2.88l1.58,2.37C429.16,353.02,427.64,354,426.15,354.94z M435.08,348.99l-1.63-2.33
			c1.43-1,2.88-2.04,4.3-3.09l1.69,2.29C437.99,346.92,436.53,347.97,435.08,348.99z M299.54,364.29c-1.45-1.09-2.86-2.25-4.21-3.44
			l1.88-2.13c1.3,1.14,2.66,2.25,4.04,3.3L299.54,364.29z M622.73,324.63c-1.35-1.11-2.74-2.19-4.15-3.24l1.7-2.28
			c1.44,1.07,2.87,2.19,4.26,3.32L622.73,324.63z M443.72,342.63l-1.74-2.25l0.42-0.33c1.28-0.99,2.56-1.96,3.83-2.92l1.7,2.28
			c-1.26,0.95-2.53,1.91-3.8,2.89L443.72,342.63z M614.28,318.35c-1.45-0.97-2.94-1.92-4.44-2.83l1.47-2.43
			c1.54,0.93,3.07,1.9,4.55,2.9L614.28,318.35z M291.4,357.1c-1.26-1.3-2.48-2.66-3.62-4.06l2.2-1.81c1.1,1.33,2.27,2.64,3.47,3.89
			L291.4,357.1z M452.22,336.27l-1.66-2.31c1.45-1.04,2.93-2.08,4.38-3.09l1.62,2.34C455.11,334.21,453.66,335.24,452.22,336.27z
			 M605.28,312.91c-1.53-0.83-3.11-1.64-4.69-2.4l1.23-2.56c1.61,0.78,3.23,1.6,4.81,2.46L605.28,312.91z M460.95,330.25l-1.57-2.37
			c1.5-0.99,3.02-1.97,4.5-2.91l1.52,2.41C463.93,328.31,462.43,329.27,460.95,330.25z M284.49,348.71
			c-1.03-1.48-2.02-3.02-2.93-4.58l2.46-1.44c0.88,1.5,1.82,2.98,2.81,4.39L284.49,348.71z M469.92,324.61l-1.46-2.44
			c1.53-0.92,3.09-1.83,4.63-2.7l1.4,2.47C472.97,322.8,471.43,323.7,469.92,324.61z M595.8,308.34c-1.61-0.68-3.26-1.33-4.89-1.94
			l0.99-2.67c1.68,0.62,3.37,1.29,5.02,1.99L595.8,308.34z M479.13,319.38l-1.34-2.51c1.57-0.84,3.18-1.68,4.76-2.47l1.28,2.54
			C482.26,317.73,480.68,318.55,479.13,319.38z M585.93,304.7c-1.66-0.53-3.36-1.02-5.05-1.47l0.73-2.75
			c1.73,0.46,3.48,0.96,5.18,1.5L585.93,304.7z M488.59,314.63l-1.21-2.58c1.62-0.76,3.27-1.51,4.89-2.22l1.14,2.61
			C491.81,313.14,490.19,313.87,488.59,314.63z M278.99,339.32c-0.78-1.62-1.51-3.3-2.17-4.99l2.65-1.03
			c0.63,1.62,1.33,3.23,2.08,4.78L278.99,339.32z M575.76,302.01c-1.7-0.37-3.44-0.7-5.17-0.99l0.47-2.81
			c1.77,0.3,3.55,0.63,5.3,1.01L575.76,302.01z M498.28,310.4l-1.06-2.64c1.67-0.67,3.35-1.32,5.02-1.93l0.98,2.67
			C501.58,309.1,499.92,309.74,498.28,310.4z M565.38,300.28c-1.73-0.21-3.5-0.38-5.24-0.51l0.21-2.84c1.79,0.13,3.59,0.3,5.37,0.52
			L565.38,300.28z M508.21,306.76l-0.89-2.7c1.71-0.56,3.43-1.1,5.13-1.6l0.8,2.73C511.58,305.68,509.89,306.21,508.21,306.76z
			 M554.88,299.51c-1.74-0.05-3.51-0.06-5.27-0.04l-0.04-2.84c1.8-0.03,3.61-0.01,5.39,0.04L554.88,299.51z M518.34,303.78
			l-0.71-2.76c1.73-0.45,3.5-0.86,5.24-1.24l0.61,2.78C521.77,302.94,520.04,303.35,518.34,303.78z M544.35,299.66
			c-1.74,0.1-3.51,0.24-5.25,0.41l-0.28-2.83c1.78-0.18,3.59-0.32,5.37-0.42L544.35,299.66z M528.65,301.53l-0.5-2.8
			c1.77-0.32,3.56-0.6,5.32-0.85l0.39,2.82C532.14,300.94,530.39,301.22,528.65,301.53z M275.05,329.19
			c-0.52-1.72-0.98-3.48-1.38-5.26l2.78-0.62c0.38,1.7,0.83,3.4,1.33,5.05L275.05,329.19z M272.68,318.6
			c-0.1-0.65-0.18-1.31-0.26-1.97c-0.14-1.14-0.25-2.29-0.34-3.43l2.84-0.21c0.08,1.1,0.19,2.21,0.32,3.31
			c0.08,0.63,0.16,1.26,0.25,1.89L272.68,318.6z M274.7,307.76l-2.84,0.02c-0.01-1.79,0.03-3.61,0.14-5.42l2.84,0.17
			C274.73,304.27,274.69,306.03,274.7,307.76z M275.3,297.3l-2.82-0.34c0.21-1.75,0.48-3.52,0.8-5.28l2.81,0.43l-0.02,0.11
			C275.77,293.89,275.51,295.61,275.3,297.3z M277.14,286.95l-2.78-0.63c0.4-1.75,0.83-3.51,1.3-5.23l2.75,0.75
			C277.96,283.52,277.53,285.24,277.14,286.95z M374.47,272.55c-1.88,0.18-3.74,0.23-5.53,0.14l0.13-2.84
			c1.65,0.08,3.38,0.03,5.12-0.13L374.47,272.55z M379.91,271.69l-0.61-2.78c1.65-0.36,3.33-0.83,4.99-1.39l0.91,2.7
			C383.43,270.81,381.66,271.31,379.91,271.69z M363.43,271.98c-1.87-0.41-3.66-0.99-5.33-1.72l1.14-2.61
			c1.5,0.66,3.11,1.18,4.8,1.54L363.43,271.98z M390.28,268.21l-1.17-2.59c1.56-0.71,3.12-1.5,4.63-2.37l1.41,2.47
			C393.56,266.63,391.93,267.47,390.28,268.21z M399.75,262.79l-1.64-2.33c1.42-1,2.8-2.07,4.11-3.18l1.85,2.16
			C402.7,260.62,401.24,261.75,399.75,262.79z M279.91,276.79l-2.71-0.87c0.55-1.71,1.14-3.42,1.76-5.1l2.67,0.99
			C281.02,273.44,280.44,275.12,279.91,276.79z M353.22,267.44c-1.51-1.12-2.89-2.42-4.11-3.87l2.18-1.83
			c1.08,1.28,2.3,2.43,3.63,3.42L353.22,267.44z M408.05,255.71l-2.05-1.98c1.21-1.25,2.36-2.56,3.41-3.9l2.23,1.76
			C410.54,253,409.33,254.39,408.05,255.71z M283.56,266.91l-2.62-1.11c0.7-1.65,1.44-3.31,2.21-4.92l2.57,1.23
			C284.96,263.69,284.24,265.3,283.56,266.91z M345.98,258.9c-0.84-1.59-1.55-3.33-2.12-5.16l2.72-0.84
			c0.52,1.67,1.16,3.24,1.92,4.68L345.98,258.9z M414.82,247.11l-2.41-1.52c0.92-1.47,1.77-2.99,2.5-4.52l2.56,1.24
			C416.69,243.94,415.8,245.56,414.82,247.11z M288.09,257.42l-2.51-1.34c0.84-1.58,1.74-3.16,2.65-4.7l2.44,1.46
			C289.78,254.34,288.91,255.88,288.09,257.42z M342.63,248.34c-0.08-0.5-0.15-1-0.21-1.51c-0.15-1.27-0.26-2.6-0.31-3.96l2.84-0.11
			c0.05,1.28,0.15,2.53,0.29,3.73c0.06,0.48,0.12,0.95,0.19,1.41L342.63,248.34z M419.57,237.24l-2.69-0.93
			c0.56-1.63,1.02-3.3,1.38-4.96l2.78,0.59C420.67,233.72,420.17,235.5,419.57,237.24z M293.48,248.38l-2.37-1.57
			c0.98-1.49,2.02-2.98,3.08-4.43l2.3,1.68C295.45,245.47,294.44,246.92,293.48,248.38z M344.97,237.55l-2.84-0.11
			c0.07-1.82,0.2-3.64,0.4-5.41l2.83,0.31C345.17,234.04,345.04,235.8,344.97,237.55z M421.86,226.5l-2.83-0.24
			c0.15-1.7,0.19-3.43,0.13-5.15l2.84-0.1C422.06,222.84,422.01,224.69,421.86,226.5z M299.68,239.87l-2.22-1.78
			c1.12-1.39,2.29-2.78,3.47-4.13l2.14,1.88C301.91,237.16,300.77,238.51,299.68,239.87z M306.63,231.97l-2.05-1.97
			c1.24-1.29,2.53-2.57,3.83-3.8l1.96,2.06C309.1,229.46,307.84,230.71,306.63,231.97z M346.11,227.18l-2.8-0.52
			c0.33-1.78,0.73-3.56,1.19-5.3l2.75,0.73C346.81,223.76,346.43,225.47,346.11,227.18z M418.52,216.11
			c-0.38-1.65-0.95-3.22-1.68-4.69l2.55-1.27c0.83,1.66,1.47,3.45,1.9,5.31L418.52,216.11z M314.27,224.72l-1.87-2.15
			c1.35-1.17,2.75-2.33,4.15-3.44l1.77,2.23C316.95,222.44,315.59,223.57,314.27,224.72z M348.8,217.13l-2.68-0.95
			c0.61-1.7,1.29-3.4,2.03-5.04l2.59,1.17C350.03,213.88,349.38,215.5,348.8,217.13z M414.1,207.26c-1.05-1.24-2.27-2.41-3.63-3.45
			l1.73-2.26c1.52,1.17,2.89,2.47,4.07,3.87L414.1,207.26z M322.52,218.17l-1.67-2.3c1.45-1.05,2.94-2.08,4.44-3.07l1.57,2.37
			C325.4,216.13,323.94,217.14,322.52,218.17z M331.31,212.37l-1.46-2.44c1.54-0.92,3.11-1.82,4.69-2.67l1.36,2.5
			C334.36,210.59,332.82,211.47,331.31,212.37z M353.06,207.65l-2.49-1.37c0.77-1.39,1.6-2.78,2.48-4.13
			c-0.94,0.33-1.87,0.67-2.8,1.02l-1.01-2.66c1.68-0.64,3.39-1.24,5.09-1.8l0.88,2.7c-0.48,0.16-0.95,0.31-1.43,0.48l1.98,1.31
			C354.8,204.65,353.9,206.15,353.06,207.65z M406.19,201.11c-1.46-0.75-3.04-1.42-4.71-1.99l0.92-2.69
			c1.8,0.62,3.51,1.34,5.09,2.16L406.19,201.11z M340.58,207.35l-1.24-2.56c1.61-0.78,3.26-1.54,4.9-2.25l1.13,2.61
			C343.77,205.84,342.15,206.58,340.58,207.35z M396.5,197.74c-1.63-0.35-3.36-0.63-5.12-0.84l0.33-2.83
			c1.86,0.21,3.67,0.51,5.4,0.88L396.5,197.74z M360.26,199.9l-0.56-2.05c-0.3,0.37-0.6,0.74-0.89,1.12l-2.25-1.75
			c1.09-1.41,2.27-2.81,3.49-4.16l2.11,1.91c-0.57,0.63-1.13,1.28-1.68,1.93c1.42-0.38,2.86-0.72,4.27-1.04l0.61,2.78
			C363.67,199.01,361.95,199.43,360.26,199.9z M386.18,196.53c-1.7-0.05-3.46-0.05-5.23,0.03l-0.11-2.84
			c1.84-0.07,3.67-0.08,5.43-0.03L386.18,196.53z M370.52,197.64l-0.46-2.81c1.81-0.3,3.61-0.54,5.37-0.72l0.3,2.83
			C374.02,197.12,372.27,197.35,370.52,197.64z M365.79,191.2l-1.98-2.05c1.28-1.23,2.62-2.46,4.01-3.63l1.84,2.17
			C368.33,188.83,367.03,190.01,365.79,191.2z M373.76,184.42l-1.71-2.27c1.41-1.06,2.89-2.12,4.4-3.13l1.59,2.36
			C376.57,182.36,375.13,183.38,373.76,184.42z M382.46,178.55l-1.47-2.44c1.51-0.91,3.09-1.81,4.69-2.68l1.36,2.5
			C385.48,176.79,383.94,177.67,382.46,178.55z M391.73,173.53l-1.25-2.56c1.59-0.77,3.23-1.54,4.89-2.27l1.15,2.6
			C394.9,172.03,393.28,172.77,391.73,173.53z M401.4,169.27l-1.05-2.64c1.64-0.65,3.34-1.29,5.04-1.9l0.96,2.68
			C404.67,168,403.01,168.63,401.4,169.27z M411.36,165.69l-0.87-2.71c1.69-0.55,3.42-1.08,5.15-1.58l0.79,2.73
			C414.73,164.64,413.02,165.16,411.36,165.69z M421.54,162.74l-0.71-2.75c1.72-0.44,3.48-0.87,5.23-1.27l0.63,2.77
			C424.96,161.88,423.23,162.3,421.54,162.74z M431.88,160.38l-0.56-2.79c1.77-0.35,3.55-0.68,5.3-0.98l0.48,2.8
			C435.38,159.7,433.62,160.03,431.88,160.38z M447.56,157.99c-0.01,0-1.95,0.16-5.23,0.61l-0.39-2.82
			c3.38-0.47,5.33-0.63,5.39-0.63L447.56,157.99z"/>
	</g>
	<rect x="348.22" y="471.32" style="fill:#CDB4DB;" width="113.18" height="290.63"/>
	<rect x="524.29" y="376.33" style="fill:#CDB4DB;" width="113.18" height="385.62"/>
	<rect x="684.37" y="273.8" style="fill:#CDB4DB;" width="123.93" height="488.15"/>
	<rect x="852.45" y="206.23" style="fill:#CDB4DB;" width="113.18" height="555.72"/>
	<g>
		<polygon style="fill:#F77D48;" points="808.3,436.48 1046.17,321.33 940.08,547.45 922.15,444.86 		"/>
	</g>
	<g>
		<path style="fill:#FFB93E;" d="M753.57,359.39c-5.82-23.92,8.85-48.02,32.77-53.84c23.92-5.82,48.03,8.85,53.84,32.77
			c5.82,23.92-8.85,48.02-32.77,53.84C783.5,397.98,759.4,383.31,753.57,359.39z"/>
		<g>
			<path style="fill:#FFA412;" d="M806.61,388.82c-10.54,2.56-21.45,0.87-30.71-4.77c-9.27-5.64-15.78-14.55-18.35-25.09
				c-2.56-10.54-0.87-21.45,4.77-30.71c5.64-9.27,14.55-15.78,25.09-18.35c10.54-2.56,21.45-0.87,30.71,4.77
				c9.27,5.64,15.78,14.55,18.35,25.09c2.56,10.54,0.87,21.45-4.77,30.71C826.06,379.74,817.15,386.26,806.61,388.82z
				 M787.98,312.26c-20.46,4.98-33.05,25.67-28.07,46.13c4.98,20.46,25.67,33.05,46.13,28.07c20.46-4.98,33.05-25.67,28.07-46.13
				C829.13,319.88,808.44,307.28,787.98,312.26z"/>
		</g>
		<g>
			<path style="fill:#FFA412;" d="M805.23,359.5c-0.11-0.88-0.32-1.63-0.65-2.27c-0.33-0.64-0.81-1.19-1.43-1.67
				c-0.63-0.47-1.41-0.89-2.35-1.24c-0.94-0.35-2.08-0.67-3.41-0.95c-2.29-0.51-4.39-1.07-6.28-1.7c-1.9-0.63-3.55-1.41-4.97-2.36
				c-1.41-0.95-2.56-2.12-3.45-3.52c-0.89-1.39-1.45-3.11-1.7-5.16c-0.21-1.77-0.1-3.43,0.36-4.96c0.45-1.53,1.2-2.91,2.23-4.14
				c1.03-1.23,2.33-2.27,3.87-3.15c1.54-0.87,3.32-1.53,5.31-1.96l-0.81-6.69l5.39-0.65l0.82,6.78c1.96,0.02,3.77,0.32,5.44,0.9
				c1.66,0.58,3.12,1.42,4.37,2.52c1.25,1.1,2.27,2.45,3.07,4.05c0.8,1.61,1.32,3.45,1.58,5.54l-9.73,1.18
				c-0.3-2.5-1.08-4.3-2.35-5.41c-1.26-1.1-2.82-1.55-4.69-1.32c-1.01,0.12-1.86,0.37-2.56,0.74c-0.69,0.37-1.25,0.83-1.66,1.37
				c-0.41,0.55-0.69,1.17-0.83,1.86c-0.14,0.69-0.17,1.43-0.08,2.2c0.09,0.77,0.29,1.46,0.59,2.05c0.3,0.6,0.76,1.13,1.37,1.6
				c0.61,0.47,1.4,0.88,2.37,1.24c0.97,0.36,2.15,0.71,3.56,1.04c2.27,0.55,4.36,1.14,6.24,1.78c1.89,0.64,3.54,1.44,4.95,2.4
				c1.41,0.96,2.56,2.14,3.45,3.53c0.89,1.4,1.45,3.1,1.7,5.13c0.22,1.83,0.1,3.52-0.36,5.06c-0.46,1.54-1.21,2.91-2.25,4.11
				c-1.04,1.2-2.34,2.23-3.91,3.08c-1.57,0.85-3.35,1.48-5.35,1.92l0.75,6.22l-5.35,0.65l-0.75-6.19c-1.89,0.04-3.74-0.15-5.55-0.56
				c-1.81-0.41-3.47-1.13-4.96-2.14c-1.49-1.01-2.75-2.37-3.77-4.06c-1.02-1.69-1.69-3.79-1.99-6.29l9.73-1.18
				c0.18,1.48,0.54,2.69,1.07,3.63c0.53,0.94,1.19,1.67,1.95,2.17c0.77,0.51,1.61,0.83,2.52,0.96c0.92,0.13,1.83,0.14,2.75,0.03
				c1.05-0.13,1.96-0.38,2.73-0.74c0.76-0.37,1.39-0.82,1.87-1.37c0.48-0.54,0.82-1.16,1.01-1.85
				C805.27,361,805.32,360.27,805.23,359.5z"/>
		</g>
	</g>
	<g>
		
			<ellipse transform="matrix(0.6662 -0.7458 0.7458 0.6662 171.7415 846.416)" style="fill:#FFB93E;" cx="1031.44" cy="231.35" rx="43.41" ry="43.41"/>
		<g>
			<path style="fill:#FFA412;" d="M1033.01,271.38c-10.56,0.42-20.64-3.31-28.4-10.48c-7.76-7.17-12.26-16.93-12.67-27.49
				c-0.41-10.56,3.31-20.64,10.48-28.4c7.17-7.76,16.93-12.26,27.49-12.67c10.56-0.42,20.64,3.31,28.4,10.48
				c7.76,7.17,12.26,16.93,12.67,27.49c0.42,10.56-3.31,20.64-10.48,28.4C1053.33,266.46,1043.57,270.97,1033.01,271.38z
				 M1029.99,194.7c-20.49,0.8-36.51,18.13-35.7,38.62c0.81,20.49,18.13,36.51,38.62,35.7c20.49-0.81,36.51-18.13,35.7-38.62
				C1067.81,209.91,1050.49,193.89,1029.99,194.7z"/>
		</g>
		<g>
			<path style="fill:#FFA412;" d="M1037.35,243.12c0.07-0.86,0.01-1.62-0.18-2.29c-0.19-0.67-0.54-1.29-1.04-1.87
				c-0.51-0.57-1.18-1.12-2.01-1.64c-0.83-0.52-1.86-1.04-3.07-1.57c-2.09-0.92-3.98-1.87-5.67-2.83c-1.69-0.96-3.12-2.04-4.28-3.22
				c-1.16-1.18-2.04-2.52-2.61-4.02c-0.58-1.5-0.79-3.25-0.63-5.25c0.14-1.73,0.57-3.29,1.3-4.67c0.73-1.38,1.7-2.55,2.93-3.52
				c1.22-0.97,2.66-1.72,4.3-2.26c1.64-0.54,3.46-0.82,5.45-0.85l0.52-6.54l5.27,0.42l-0.52,6.64c1.87,0.39,3.54,1.03,5.02,1.9
				c1.48,0.88,2.7,1.96,3.69,3.24c0.98,1.29,1.7,2.78,2.15,4.46c0.45,1.69,0.6,3.55,0.44,5.59l-9.51-0.75
				c0.19-2.45-0.21-4.32-1.2-5.62c-0.99-1.3-2.4-2.02-4.22-2.16c-0.99-0.08-1.85-0.01-2.58,0.21c-0.74,0.22-1.35,0.55-1.85,0.99
				c-0.5,0.44-0.88,0.98-1.15,1.62c-0.27,0.63-0.44,1.33-0.5,2.08c-0.06,0.75,0,1.45,0.17,2.07c0.17,0.63,0.51,1.22,1,1.79
				c0.5,0.56,1.17,1.11,2.02,1.64c0.85,0.53,1.92,1.09,3.2,1.68c2.07,0.96,3.94,1.93,5.62,2.9c1.68,0.97,3.1,2.06,4.26,3.24
				c1.16,1.19,2.04,2.54,2.61,4.04c0.58,1.5,0.79,3.24,0.63,5.22c-0.14,1.79-0.58,3.38-1.32,4.76c-0.74,1.38-1.72,2.54-2.94,3.49
				c-1.22,0.95-2.67,1.68-4.33,2.18c-1.66,0.51-3.49,0.77-5.48,0.8l-0.48,6.09l-5.23-0.41l0.48-6.05c-1.81-0.33-3.54-0.86-5.19-1.61
				c-1.65-0.75-3.09-1.75-4.32-3c-1.23-1.25-2.16-2.79-2.82-4.61c-0.65-1.82-0.88-3.95-0.69-6.39l9.51,0.75
				c-0.11,1.45-0.01,2.67,0.32,3.67c0.33,1,0.81,1.82,1.45,2.45c0.63,0.63,1.38,1.1,2.22,1.41c0.85,0.3,1.72,0.49,2.62,0.56
				c1.03,0.08,1.95,0.02,2.75-0.18c0.8-0.2,1.48-0.52,2.05-0.95c0.56-0.43,1-0.95,1.32-1.57
				C1037.1,244.56,1037.29,243.87,1037.35,243.12z"/>
		</g>
	</g>
	<g>
		<path style="fill:#FFB93E;" d="M926.81,310.05c-0.29-16.53,12.87-30.17,29.41-30.47c16.53-0.29,30.17,12.87,30.46,29.41
			c0.29,16.53-12.87,30.17-29.41,30.46C940.74,339.75,927.1,326.59,926.81,310.05z"/>
		<g>
			<path style="fill:#FFA412;" d="M957.24,337.15c-7.29,0.13-14.19-2.59-19.43-7.65c-5.24-5.06-8.2-11.86-8.33-19.14
				c-0.13-7.29,2.59-14.18,7.65-19.43c5.06-5.24,11.86-8.2,19.14-8.33c7.28-0.13,14.18,2.59,19.43,7.65
				c5.24,5.06,8.2,11.86,8.33,19.14c0.13,7.29-2.59,14.18-7.65,19.43C971.32,334.07,964.52,337.02,957.24,337.15z M956.3,284.23
				c-14.14,0.25-25.44,11.96-25.19,26.1c0.25,14.14,11.96,25.44,26.1,25.19c14.14-0.25,25.44-11.96,25.19-26.1
				C982.15,295.28,970.44,283.98,956.3,284.23z"/>
		</g>
		<g>
			<path style="fill:#FFA412;" d="M960.65,317.73c0.06-0.59,0.03-1.12-0.09-1.58c-0.12-0.47-0.35-0.9-0.69-1.3
				c-0.34-0.4-0.79-0.79-1.36-1.16c-0.57-0.37-1.26-0.74-2.1-1.13c-1.43-0.67-2.72-1.35-3.87-2.04c-1.15-0.69-2.12-1.45-2.91-2.28
				c-0.79-0.83-1.37-1.77-1.74-2.81c-0.38-1.04-0.49-2.25-0.36-3.63c0.12-1.19,0.44-2.26,0.96-3.2c0.52-0.94,1.21-1.73,2.07-2.39
				c0.86-0.65,1.86-1.15,3-1.49c1.14-0.35,2.4-0.51,3.77-0.5l0.45-4.51l3.63,0.37l-0.46,4.57c1.28,0.3,2.43,0.76,3.43,1.39
				c1,0.63,1.84,1.39,2.49,2.29c0.66,0.9,1.13,1.94,1.41,3.11c0.29,1.17,0.36,2.46,0.22,3.86l-6.55-0.66
				c0.17-1.68-0.08-2.98-0.74-3.89c-0.66-0.91-1.62-1.43-2.88-1.56c-0.68-0.07-1.28-0.03-1.78,0.11c-0.51,0.14-0.94,0.36-1.29,0.66
				c-0.35,0.3-0.62,0.66-0.82,1.1c-0.2,0.43-0.32,0.91-0.37,1.43c-0.05,0.52-0.02,1,0.08,1.43c0.11,0.44,0.33,0.85,0.66,1.25
				c0.33,0.39,0.79,0.78,1.37,1.16c0.58,0.38,1.31,0.78,2.18,1.21c1.41,0.69,2.69,1.39,3.83,2.09c1.14,0.7,2.11,1.46,2.89,2.3
				c0.79,0.84,1.37,1.78,1.74,2.82c0.38,1.04,0.49,2.25,0.36,3.61c-0.12,1.23-0.45,2.32-0.98,3.26c-0.53,0.94-1.22,1.73-2.08,2.36
				c-0.86,0.64-1.86,1.12-3.02,1.44c-1.15,0.32-2.42,0.48-3.79,0.47l-0.42,4.19l-3.6-0.36l0.42-4.17c-1.24-0.25-2.43-0.65-3.55-1.19
				c-1.13-0.54-2.11-1.25-2.93-2.13c-0.83-0.88-1.45-1.96-1.87-3.22c-0.42-1.26-0.55-2.74-0.38-4.42l6.55,0.66
				c-0.1,1-0.04,1.84,0.17,2.54c0.21,0.69,0.53,1.27,0.96,1.71c0.43,0.45,0.93,0.78,1.51,1c0.58,0.22,1.18,0.36,1.8,0.43
				c0.71,0.07,1.34,0.04,1.9-0.09c0.55-0.13,1.03-0.34,1.43-0.62c0.4-0.29,0.71-0.64,0.93-1.06
				C960.46,318.72,960.6,318.25,960.65,317.73z"/>
		</g>
	</g>
	<g>
		
			<ellipse transform="matrix(0.9977 -0.0678 0.0678 0.9977 -11.1972 59.4438)" style="fill:#FFB93E;" cx="870.09" cy="194.67" rx="73.06" ry="73.06"/>
		<g>
			<path style="fill:#FFA412;" d="M891.28,258.68c-16.88,5.59-34.92,4.27-50.81-3.71c-15.89-7.98-27.71-21.68-33.3-38.55
				c-5.59-16.88-4.27-34.92,3.71-50.81c7.98-15.89,21.68-27.71,38.55-33.3c16.88-5.59,34.92-4.27,50.81,3.71
				c15.89,7.98,27.71,21.68,33.3,38.55c5.59,16.88,4.27,34.92-3.71,50.81C921.85,241.27,908.16,253.09,891.28,258.68z
				 M850.68,136.07c-32.76,10.85-50.59,46.33-39.75,79.1c10.85,32.76,46.33,50.59,79.1,39.75c32.76-10.85,50.59-46.33,39.75-79.1
				C918.93,143.05,883.45,125.22,850.68,136.07z"/>
		</g>
		<g>
			<path style="fill:#FFA412;" d="M885.13,210.95c-0.29-1.42-0.74-2.62-1.36-3.62c-0.62-1-1.47-1.84-2.56-2.53
				c-1.09-0.69-2.42-1.26-4.01-1.71c-1.59-0.45-3.49-0.82-5.7-1.1c-3.81-0.52-7.31-1.17-10.49-1.94c-3.18-0.77-5.99-1.84-8.43-3.2
				c-2.43-1.36-4.47-3.13-6.1-5.29c-1.63-2.16-2.79-4.89-3.46-8.2c-0.59-2.87-0.61-5.58-0.08-8.15c0.53-2.57,1.57-4.92,3.09-7.06
				c1.53-2.14,3.5-4.03,5.91-5.66c2.41-1.63,5.21-2.94,8.42-3.91l-2.21-10.82l8.71-1.78l2.24,10.98c3.2-0.23,6.2,0.02,9,0.74
				c2.8,0.73,5.29,1.91,7.47,3.53c2.19,1.63,4.04,3.7,5.55,6.22c1.52,2.52,2.62,5.46,3.31,8.84l-15.74,3.22
				c-0.83-4.05-2.34-6.89-4.55-8.53c-2.21-1.64-4.82-2.15-7.83-1.53c-1.63,0.33-2.99,0.85-4.08,1.55c-1.09,0.7-1.93,1.52-2.53,2.47
				c-0.6,0.95-0.97,2-1.11,3.15c-0.14,1.15-0.09,2.35,0.17,3.6c0.26,1.25,0.67,2.34,1.24,3.28c0.57,0.94,1.39,1.74,2.45,2.42
				c1.06,0.68,2.41,1.25,4.04,1.7c1.63,0.46,3.61,0.87,5.95,1.23c3.79,0.6,7.27,1.29,10.44,2.08c3.17,0.79,5.97,1.88,8.41,3.26
				c2.44,1.38,4.47,3.15,6.11,5.31c1.63,2.16,2.78,4.88,3.45,8.15c0.61,2.97,0.63,5.74,0.08,8.31c-0.55,2.57-1.6,4.91-3.13,7.02
				c-1.54,2.11-3.53,3.96-5.99,5.55c-2.45,1.59-5.28,2.87-8.49,3.84l2.06,10.06l-8.66,1.77l-2.05-10.02
				c-3.08,0.31-6.12,0.25-9.14-0.19c-3.02-0.44-5.81-1.38-8.38-2.85c-2.57-1.46-4.8-3.51-6.7-6.14c-1.9-2.63-3.26-5.97-4.09-10.02
				l15.74-3.22c0.49,2.39,1.23,4.32,2.23,5.79c1,1.46,2.16,2.56,3.48,3.29c1.32,0.73,2.74,1.14,4.25,1.24
				c1.51,0.1,3.01-0.01,4.5-0.32c1.71-0.35,3.16-0.87,4.36-1.58c1.2-0.7,2.15-1.53,2.87-2.48c0.71-0.95,1.18-2.01,1.4-3.16
				C885.4,213.4,885.38,212.2,885.13,210.95z"/>
		</g>
	</g>
	<g>
		<path style="fill:#739AF0;" d="M581.74,174.58c-6.57,1.64-12.84,3.21-18.7,4.21c-18.99,3.25-33.66,0.57-39.98-24.74
			c-6.32-25.32,5.36-34.58,23.65-40.64c5.65-1.87,11.92-3.44,18.48-5.08c14.04-3.51,29.57-1.96,41.94,2.1
			c12.17,4,21.28,10.43,22.89,16.9c1.84,7.36-3.17,17.33-12.09,26.35C608.87,162.87,595.78,171.08,581.74,174.58z"/>
		<polygon style="fill:#163560;" points="546.71,113.41 525.14,99.32 491.09,106.58 526.46,131.42 		"/>
		<polygon style="fill:#163560;" points="562.99,178.59 550.58,201.16 517.11,210.77 536.64,172.21 		"/>
		<path style="fill:#163560;" d="M563.04,178.79c-18.99,3.25-33.66,0.57-39.98-24.74c-6.32-25.32,5.36-34.58,23.65-40.64
			L563.04,178.79z"/>
		<path style="fill:#F77D48;" d="M478.72,165.12c0,0,9.48-22.09,26.07-18.68c16.93,3.47,14.79,21.71,2.09,23.38
			C494.18,171.49,486.13,163.27,478.72,165.12z"/>
		<path style="fill:#163560;" d="M579.66,122c8.77-2.19,17.65,3.14,19.84,11.91c2.19,8.77-3.14,17.65-11.91,19.84
			c-8.77,2.19-17.65-3.14-19.84-11.91C565.56,133.08,570.89,124.19,579.66,122z"/>
		<g>
			<path style="fill:#BDD1F9;" d="M583.63,155.34c-7.82,0-14.96-5.3-16.94-13.23c-2.33-9.34,3.37-18.83,12.71-21.17
				c9.34-2.33,18.83,3.37,21.17,12.71c1.13,4.52,0.43,9.22-1.97,13.21c-2.4,4-6.21,6.82-10.74,7.95
				C586.44,155.17,585.02,155.34,583.63,155.34z M583.63,122.61c-1.22,0-2.46,0.15-3.7,0.46c-3.96,0.99-7.29,3.46-9.4,6.96
				c-2.1,3.5-2.71,7.6-1.72,11.56c2.04,8.17,10.35,13.16,18.52,11.12c3.96-0.99,7.29-3.46,9.4-6.96c2.1-3.5,2.71-7.6,1.72-11.56
				C596.71,127.25,590.47,122.61,583.63,122.61z"/>
		</g>
		<path style="fill:#F77D48;" d="M617.94,153.69l-10.8-43.25c12.17,4,21.28,10.43,22.89,16.9
			C631.86,134.69,626.85,144.66,617.94,153.69z"/>
	</g>
	<g>
		<path style="fill:#780000;" d="M1107.34,391.18c0,0,33.07,34.29,34.63,47.19c1.56,12.9-15.84,33.05-15.84,33.05L1107.34,391.18z"
			/>
		<path style="fill:#2E5A99;" d="M1092.39,746.52c0,0-1.17,18.19-4.69,18.44c-0.47,0.03-17.85,0-17.85,0l-22.19-0.18
			c0,0,0.16-5.35,6.64-6.46c6.49-1.12,17.35-5.65,21.3-14.21C1079.77,735.09,1092.39,746.52,1092.39,746.52z"/>
		<path style="fill:#18417C;" d="M1141.81,746.63c0,0-1.17,18.19-4.69,18.44c-0.47,0.03-17.85,0-17.85,0l-22.19-0.18
			c0,0,0.16-5.35,6.64-6.46c6.49-1.12,17.35-5.65,21.3-14.21C1129.19,735.2,1141.81,746.63,1141.81,746.63z"/>
		<path style="fill:#163560;" d="M1068.25,550.98c0,0,5.72,37.12,27.23,103.05c21.5,65.93,24.39,94.46,24.39,94.46l23.22-0.6
			c0,0,0.35-72-9.55-105.15c-9.9-33.15-1.89-119.44-1.89-119.44L1068.25,550.98z"/>
		<path style="fill:#1C468A;" d="M1057,525.18c0,0-0.94,55.92,8.58,124.61c9.53,68.69,6.18,97.83,6.18,97.83l23.17,0.82
			c0,0,14-68.66,10.1-103.04c-3.9-34.38,19.22-117.89,19.22-117.89L1057,525.18z"/>
		<path style="fill:#FFB27D;" d="M1102.15,394.41l-12.36,8.07l-17.84-3.36c0.25-1.44,1.44-7.41,2.53-12.81
			c0.07-0.32,0.13-0.64,0.19-0.95c0.93-4.6,1.73-8.55,1.73-8.55l16.68-7.32l6.22-2.73c-0.02,0.1-0.49,5.1-0.56,5.84
			C1097.55,385.57,1102.15,394.41,1102.15,394.41z"/>
		<path style="fill:#780000;" d="M1076.54,390.26c0.35-0.14,21.5-6.34,23.8-5.57c2.3,0.76,3.65,5.21,3.65,5.21l-34.6,7.74
			C1069.38,397.64,1072.11,392.12,1076.54,390.26z"/>
		<path style="fill:#C1121F;" d="M1133.16,532.25c-3.62,16.34-63.27,18.15-78.61,3.28c-1.75-1.7-1.81-9.57-1.13-20.18
			c1.34-20.73,5.55-51.91,5.74-67.84c0.1-7.69,1.17-15.56,2.59-22.71c3.03-15.22,7.62-27.17,7.62-27.17s29.15-9.35,34.6-7.74
			C1130.23,397.67,1136.78,515.91,1133.16,532.25z"/>
		<path style="fill:#780000;" d="M1053.42,515.35c1.34-20.73,5.55-51.91,5.74-67.84c0.1-7.69,1.17-15.56,2.59-22.71l17.53-3.05
			C1079.29,421.75,1096.27,491.77,1053.42,515.35z"/>
		<path style="fill:#FFB27D;" d="M1062.97,486.47c0,0,1.19,2.86-1.32,4.77c-2.51,1.91-4.15,5.01-3.58,7.29
			c0.57,2.27,6.06,5.99,7.97,5.39c1.91-0.59,5.8-3.57,5.38-4.77c-0.42-1.2,2.63-10.5-2.01-14.1
			C1064.78,481.46,1062.97,486.47,1062.97,486.47z"/>
		<path style="fill:#C1121F;" d="M1082.77,393.48c0,0-17.1,3.16-30.76,23.2c-13.66,20.04-22.65,34.94-20.16,42.18
			c2.49,7.24,25.3,32.37,29.25,32.38c3.94,0.01,10.31-2.85,10.68-9.3c0,0-16.05-24.16-12.87-27.77
			c1.36-1.54,20.94-17.37,23.71-10.19C1087.22,455.85,1082.77,393.48,1082.77,393.48z"/>
		<path style="fill:#FCA56B;" d="M1097.49,372.81c-3.67,6.19-17.32,11.52-23.02,13.48c0.07-0.32,0.13-0.64,0.19-0.95
			c0.93-4.6,1.73-8.55,1.73-8.55l16.68-7.32C1096.76,369.44,1099,370.27,1097.49,372.81z"/>
		<path style="fill:#FFB27D;" d="M1070.12,375.77c0,0,26.83,8.43,31.82-8.36c4.99-16.79,11.82-27.01-5.1-33.1
			c-16.92-6.09-22.17-0.68-25.2,4.52C1068.61,344.03,1063.27,373.14,1070.12,375.77z"/>
		<path style="fill:#163560;" d="M1072.7,337.21c0,0,1.67,19.55,5.71,18.71c4.04-0.84,7.71-1.46,7.11,4.43
			c-0.6,5.89-6.23,12.68,6.23,13.75c12.46,1.07,30.44-31.02,27.03-37.12C1108.95,319.42,1058.47,315.77,1072.7,337.21z"/>
	</g>
	<g>
		<g>
			<g>
				<g>
					<path style="fill:#FFB93E;" d="M942.61,753.67v7.03c0,0.56-0.2,1.08-0.55,1.51c-0.37,0.45-0.9,0.81-1.51,1.01
						c-0.19,0.07-0.39,0.11-0.59,0.14c-0.19,0.03-0.38,0.04-0.57,0.04H805.98c-1.61,0-2.96-1-3.2-2.3
						c-0.01-0.09-0.02-0.17-0.03-0.27c0-0.05,0-0.09,0-0.14v-7.03c0-0.05,0-0.09,0-0.14c0-0.09,0.02-0.18,0.03-0.27
						c0.24-1.3,1.58-2.3,3.2-2.3h133.39c0.2,0,0.38,0.01,0.57,0.04c0.2,0.03,0.4,0.08,0.59,0.14c0.62,0.2,1.15,0.56,1.51,1.01
						C942.4,752.6,942.61,753.12,942.61,753.67z"/>
					<path style="fill:#FFA412;" d="M877.1,763.42h-71.47c-1.32,0-2.44-0.86-2.77-2.01c-0.03-0.1-0.06-0.2-0.08-0.3
						c-0.01-0.09-0.02-0.17-0.03-0.27c0-0.05,0-0.09,0-0.14v-7.03c0-0.05,0-0.09,0-0.14c0-0.09,0.02-0.18,0.03-0.27
						c0.02-0.1,0.05-0.2,0.08-0.3c0.33-1.15,1.45-2.01,2.77-2.01h62.69C869.33,754.63,871.66,759.7,877.1,763.42z"/>
					<g>
						<rect x="924.86" y="750.97" style="fill:#FFA412;" width="1.52" height="12.45"/>
						<rect x="919.73" y="750.97" style="fill:#FFA412;" width="1.52" height="12.45"/>
						<rect x="913.57" y="750.97" style="fill:#FFA412;" width="1.52" height="12.45"/>
						<rect x="904.14" y="750.97" style="fill:#FFA412;" width="1.52" height="12.45"/>
						<rect x="894.16" y="750.97" style="fill:#FFA412;" width="1.52" height="12.45"/>
						<rect x="878.87" y="750.97" style="fill:#FFA412;" width="1.52" height="12.45"/>
						<rect x="864.55" y="750.97" style="fill:#FFA412;" width="1.52" height="12.45"/>
						<rect x="851.77" y="750.97" style="fill:#FFA412;" width="1.52" height="12.45"/>
						<rect x="929.74" y="750.97" style="fill:#FFA412;" width="1.52" height="12.45"/>
						<rect x="932.97" y="750.97" style="fill:#FFA412;" width="1.52" height="12.45"/>
						<rect x="936.09" y="750.97" style="fill:#FFA412;" width="1.52" height="12.45"/>
						<path style="fill:#FFA412;" d="M939.95,751.01v12.37c-0.19,0.03-0.38,0.04-0.57,0.04h-0.95v-12.45h0.95
							C939.57,750.97,939.76,750.98,939.95,751.01z"/>
						<path style="fill:#FFA412;" d="M942.05,752.16v10.06c-0.37,0.46-0.9,0.81-1.51,1.01v-12.09
							C941.16,751.35,941.69,751.71,942.05,752.16z"/>
					</g>
				</g>
				<g>
					<path style="fill:#FFB93E;" d="M928.34,741.22v7.03c0,0.56-0.2,1.08-0.55,1.52c-0.09,0.11-0.2,0.22-0.3,0.32
						c-0.33,0.3-0.75,0.54-1.21,0.69c-0.19,0.06-0.39,0.11-0.59,0.14c-0.18,0.03-0.38,0.05-0.57,0.05h-133.4
						c-1.61,0-2.95-1.01-3.19-2.31c-0.01-0.09-0.02-0.18-0.03-0.26c0-0.05,0-0.09,0-0.14v-7.03c0-0.05,0-0.1,0-0.14
						c0-0.09,0.02-0.18,0.03-0.26c0.24-1.3,1.58-2.31,3.19-2.31h133.4c0.08,0,0.17,0,0.25,0.01c0.03,0,0.06,0,0.09,0.01
						c0,0,0.01,0,0.02,0c0.04,0,0.08,0,0.12,0.01c0.03,0,0.05,0.01,0.08,0.01c0.2,0.03,0.4,0.08,0.59,0.14
						c0.11,0.04,0.22,0.08,0.33,0.13h0c0.07,0.03,0.14,0.07,0.21,0.1c0.04,0.02,0.08,0.05,0.12,0.07c0.04,0.02,0.08,0.04,0.11,0.07
						c0.14,0.08,0.27,0.18,0.39,0.29c0.04,0.03,0.07,0.07,0.11,0.1c0.02,0.02,0.05,0.04,0.07,0.06c0.01,0.01,0.03,0.03,0.03,0.04
						l0.03,0.03c0.04,0.04,0.08,0.09,0.12,0.14C928.14,740.14,928.34,740.66,928.34,741.22z"/>
					<path style="fill:#FFA412;" d="M862.84,750.97h-71.47c-1.32,0-2.44-0.86-2.77-2.01c-0.03-0.1-0.06-0.2-0.08-0.3
						c-0.01-0.09-0.02-0.18-0.03-0.26c0-0.05,0-0.09,0-0.14v-7.03c0-0.05,0-0.1,0-0.14c0-0.09,0.02-0.18,0.03-0.26
						c0.02-0.1,0.05-0.2,0.08-0.3c0.33-1.15,1.44-2.01,2.77-2.01h62.69c0.02,0.1,0.05,0.2,0.09,0.31
						C855.2,742.46,857.55,747.35,862.84,750.97z"/>
					<g>
						<rect x="910.6" y="738.51" style="fill:#FFA412;" width="1.52" height="12.45"/>
						<rect x="905.46" y="738.51" style="fill:#FFA412;" width="1.52" height="12.45"/>
						<rect x="899.31" y="738.51" style="fill:#FFA412;" width="1.52" height="12.45"/>
						<rect x="889.88" y="738.51" style="fill:#FFA412;" width="1.52" height="12.45"/>
						<rect x="879.9" y="738.51" style="fill:#FFA412;" width="1.52" height="12.45"/>
						<rect x="864.61" y="738.51" style="fill:#FFA412;" width="1.52" height="12.45"/>
						<rect x="850.29" y="738.51" style="fill:#FFA412;" width="1.52" height="12.45"/>
						<rect x="837.5" y="738.51" style="fill:#FFA412;" width="1.52" height="12.45"/>
						<rect x="915.48" y="738.51" style="fill:#FFA412;" width="1.52" height="12.45"/>
						<rect x="918.71" y="738.51" style="fill:#FFA412;" width="1.52" height="12.45"/>
						<rect x="921.82" y="738.51" style="fill:#FFA412;" width="1.52" height="12.45"/>
						<path style="fill:#FFA412;" d="M925.69,738.56v12.37c-0.19,0.03-0.38,0.04-0.57,0.04h-0.95v-12.45h0.95
							C925.31,738.51,925.5,738.53,925.69,738.56z"/>
						<path style="fill:#FFA412;" d="M927.79,739.71v10.06c-0.37,0.46-0.9,0.81-1.51,1.01v-12.09
							C926.89,738.9,927.42,739.25,927.79,739.71z"/>
					</g>
				</g>
				<g>
					<path style="fill:#FFB93E;" d="M935.24,729.08v7.03c0,0.56-0.2,1.08-0.55,1.51c-0.37,0.45-0.89,0.81-1.51,1.01
						c-0.19,0.06-0.39,0.11-0.59,0.14c-0.18,0.02-0.37,0.04-0.57,0.04h-133.4c-0.53,0-1.04-0.11-1.49-0.31
						c-0.88-0.39-1.53-1.11-1.7-1.97c-0.01-0.06-0.02-0.12-0.03-0.18c0-0.04-0.01-0.08-0.01-0.12c0-0.05,0-0.09,0-0.14v-7.03
						c0-0.05,0-0.09,0-0.14c0-0.09,0.01-0.18,0.03-0.26c0.24-1.3,1.58-2.31,3.19-2.31h133.4c0.19,0,0.38,0.01,0.57,0.04
						c0.2,0.03,0.4,0.08,0.59,0.14c0.62,0.2,1.15,0.56,1.51,1.02C935.03,728,935.24,728.52,935.24,729.08z"/>
					<path style="fill:#FFA412;" d="M869.73,738.82h-71.47c-0.48,0-0.93-0.11-1.33-0.31c-0.79-0.39-1.37-1.11-1.52-1.97
						c-0.01-0.06-0.02-0.12-0.03-0.18c0-0.04-0.01-0.08-0.01-0.12c0-0.05,0-0.09,0-0.14v-7.03c0-0.05,0-0.09,0-0.14
						c0-0.09,0.01-0.18,0.03-0.26c0.02-0.1,0.04-0.19,0.07-0.29c0.33-1.16,1.44-2.02,2.77-2.02h62.69
						c0.97,3.56,3.21,8.46,8.34,12.14C869.44,738.62,869.58,738.72,869.73,738.82z"/>
					<g>
						<rect x="917.49" y="726.37" style="fill:#FFA412;" width="1.52" height="12.45"/>
						<rect x="912.36" y="726.37" style="fill:#FFA412;" width="1.52" height="12.45"/>
						<rect x="906.2" y="726.37" style="fill:#FFA412;" width="1.52" height="12.45"/>
						<rect x="896.77" y="726.37" style="fill:#FFA412;" width="1.52" height="12.45"/>
						<rect x="886.79" y="726.37" style="fill:#FFA412;" width="1.52" height="12.45"/>
						<rect x="871.5" y="726.37" style="fill:#FFA412;" width="1.52" height="12.45"/>
						<rect x="857.18" y="726.37" style="fill:#FFA412;" width="1.52" height="12.45"/>
						<rect x="844.4" y="726.37" style="fill:#FFA412;" width="1.52" height="12.45"/>
						<rect x="922.37" y="726.37" style="fill:#FFA412;" width="1.52" height="12.45"/>
						<rect x="925.6" y="726.37" style="fill:#FFA412;" width="1.52" height="12.45"/>
						<rect x="928.72" y="726.37" style="fill:#FFA412;" width="1.52" height="12.45"/>
						<path style="fill:#FFA412;" d="M932.58,726.41v12.37c-0.19,0.03-0.37,0.04-0.57,0.04h-0.95v-12.45h0.95
							C932.2,726.37,932.39,726.38,932.58,726.41z"/>
						<path style="fill:#FFA412;" d="M934.68,727.56v10.06c-0.37,0.46-0.9,0.81-1.52,1.01v-12.09
							C933.79,726.75,934.32,727.11,934.68,727.56z"/>
					</g>
				</g>
				<g>
					<path style="fill:#FFB93E;" d="M938.43,716.63v7.03c0,0.56-0.2,1.08-0.55,1.51c-0.05,0.06-0.1,0.11-0.15,0.17
						c-0.25,0.27-0.57,0.5-0.92,0.67c-0.14,0.07-0.29,0.13-0.45,0.18c-0.19,0.06-0.39,0.11-0.59,0.14
						c-0.09,0.01-0.18,0.02-0.28,0.03c-0.1,0.01-0.2,0.01-0.29,0.01H801.81c-1.61,0-2.96-1.01-3.2-2.31
						c-0.01-0.09-0.02-0.18-0.03-0.26v-7.31c0.08-1.32,1.3-2.4,2.84-2.55c0.12-0.01,0.25-0.02,0.38-0.02H935.2
						c0.1,0,0.2,0,0.29,0.01c0.1,0.01,0.19,0.02,0.28,0.03c0.2,0.03,0.4,0.08,0.59,0.14c0.62,0.2,1.15,0.56,1.51,1.01
						C938.23,715.54,938.43,716.06,938.43,716.63z"/>
					<path style="fill:#FFA412;" d="M872.93,726.37h-71.47c-1.32,0-2.44-0.86-2.77-2.01c-0.03-0.1-0.06-0.2-0.08-0.3
						c-0.01-0.09-0.02-0.18-0.03-0.26v-7.31c0.07-1.32,1.16-2.4,2.54-2.55c0.11-0.01,0.22-0.02,0.34-0.02h62.69
						c0,0.01,0,0.01,0,0.02C865.16,717.6,867.49,722.65,872.93,726.37z"/>
					<g>
						<rect x="920.68" y="713.91" style="fill:#FFA412;" width="1.52" height="12.45"/>
						<rect x="915.55" y="713.91" style="fill:#FFA412;" width="1.52" height="12.45"/>
						<rect x="909.4" y="713.91" style="fill:#FFA412;" width="1.52" height="12.45"/>
						<rect x="899.96" y="713.91" style="fill:#FFA412;" width="1.52" height="12.45"/>
						<rect x="889.99" y="713.91" style="fill:#FFA412;" width="1.52" height="12.45"/>
						<rect x="874.7" y="713.91" style="fill:#FFA412;" width="1.52" height="12.45"/>
						<rect x="860.38" y="713.91" style="fill:#FFA412;" width="1.52" height="12.45"/>
						<rect x="847.59" y="713.91" style="fill:#FFA412;" width="1.52" height="12.45"/>
						<rect x="925.57" y="713.91" style="fill:#FFA412;" width="1.52" height="12.45"/>
						<rect x="928.8" y="713.91" style="fill:#FFA412;" width="1.52" height="12.45"/>
						<rect x="931.91" y="713.91" style="fill:#FFA412;" width="1.52" height="12.45"/>
						<path style="fill:#FFA412;" d="M935.77,713.96v12.37c-0.18,0.03-0.37,0.04-0.57,0.04h-0.95v-12.45h0.95
							C935.4,713.91,935.59,713.93,935.77,713.96z"/>
						<path style="fill:#FFA412;" d="M937.88,715.11v10.06c-0.37,0.46-0.9,0.81-1.51,1.01v-12.09
							C936.98,714.3,937.51,714.65,937.88,715.11z"/>
					</g>
				</g>
				<g>
					<path style="fill:#FFB93E;" d="M928.62,704.19v7.03c0,0.56-0.2,1.08-0.55,1.51c-0.37,0.46-0.9,0.82-1.52,1.02
						c-0.19,0.06-0.39,0.11-0.59,0.14c-0.06,0.01-0.12,0.02-0.19,0.03h-0.02c-0.03,0-0.07,0.01-0.1,0.01c-0.03,0-0.05,0-0.09,0.01
						c-0.06,0-0.11,0-0.17,0H792c-1.72,0-3.14-1.15-3.23-2.57c0-0.05,0-0.09,0-0.14v-7.03c0-0.05,0-0.1,0-0.14
						c0-0.04,0-0.08,0.01-0.11c0.13-1.15,1.12-2.1,2.42-2.37c0.03-0.01,0.06-0.02,0.1-0.02c0.22-0.04,0.46-0.07,0.7-0.07H925.4
						c0.1,0,0.19,0,0.29,0.01c0.04,0,0.08,0.01,0.12,0.01c0,0,0,0,0.01,0h0c0.05,0,0.1,0.01,0.15,0.02c0.2,0.03,0.4,0.08,0.59,0.14
						c0.62,0.2,1.15,0.56,1.52,1.02C928.42,703.11,928.62,703.63,928.62,704.19z"/>
					<path style="fill:#FFA412;" d="M863.12,713.93h-71.46c-1.54,0-2.8-1.15-2.88-2.57c0-0.05,0-0.09,0-0.14v-7.03
						c0-0.05,0-0.1,0-0.14c0-0.04,0-0.08,0.01-0.11c0.12-1.18,1.04-2.13,2.24-2.39c0.04-0.01,0.08-0.02,0.12-0.03
						c0.17-0.03,0.34-0.05,0.51-0.05h62.69c0.01,0.03,0.02,0.06,0.02,0.09c1.01,3.65,3.35,8.66,8.72,12.34
						C863.1,713.92,863.11,713.92,863.12,713.93z"/>
					<g>
						<rect x="910.88" y="701.48" style="fill:#FFA412;" width="1.52" height="12.45"/>
						<rect x="905.74" y="701.48" style="fill:#FFA412;" width="1.52" height="12.45"/>
						<rect x="899.59" y="701.48" style="fill:#FFA412;" width="1.52" height="12.45"/>
						<rect x="890.16" y="701.48" style="fill:#FFA412;" width="1.52" height="12.45"/>
						<rect x="880.18" y="701.48" style="fill:#FFA412;" width="1.52" height="12.45"/>
						<rect x="864.89" y="701.48" style="fill:#FFA412;" width="1.52" height="12.45"/>
						<rect x="850.57" y="701.48" style="fill:#FFA412;" width="1.52" height="12.45"/>
						<rect x="837.79" y="701.48" style="fill:#FFA412;" width="1.52" height="12.45"/>
						<rect x="915.76" y="701.48" style="fill:#FFA412;" width="1.52" height="12.45"/>
						<rect x="918.99" y="701.48" style="fill:#FFA412;" width="1.52" height="12.45"/>
						<rect x="922.1" y="701.48" style="fill:#FFA412;" width="1.52" height="12.45"/>
						<path style="fill:#FFA412;" d="M925.97,701.52v12.37c-0.19,0.03-0.37,0.04-0.57,0.04h-0.95v-12.45h0.95
							C925.59,701.48,925.78,701.49,925.97,701.52z"/>
						<path style="fill:#FFA412;" d="M928.07,702.68v10.06c-0.37,0.46-0.9,0.81-1.51,1.01v-12.09
							C927.18,701.86,927.7,702.22,928.07,702.68z"/>
					</g>
				</g>
				<g>
					<path style="fill:#FFB93E;" d="M928.34,691.83v7.03c0,0.56-0.2,1.08-0.55,1.51c-0.09,0.11-0.2,0.22-0.3,0.32
						c-0.33,0.3-0.75,0.54-1.21,0.69c-0.15,0.05-0.3,0.09-0.46,0.12h0c0,0,0,0-0.01,0c-0.04,0.01-0.08,0.02-0.12,0.02
						c-0.18,0.03-0.38,0.05-0.57,0.05h-133.4c-0.14,0-0.28-0.01-0.42-0.02c-0.05,0-0.11-0.01-0.16-0.02
						c-1.36-0.21-2.43-1.14-2.62-2.29c-0.01-0.08-0.02-0.15-0.02-0.23c0-0.05,0-0.1,0-0.14v-7.03c0-0.05,0-0.1,0-0.14
						c0-0.09,0.02-0.18,0.03-0.26c0.24-1.3,1.58-2.31,3.19-2.31h133.4c0.08,0,0.17,0,0.25,0.01c0.01,0,0.02,0,0.03,0
						c0.02,0,0.05,0,0.07,0c0.04,0,0.08,0.01,0.12,0.02c0.03,0,0.05,0,0.08,0.01c0.2,0.03,0.4,0.07,0.59,0.14
						c0.11,0.04,0.22,0.08,0.33,0.12h0c0.42,0.18,0.78,0.44,1.07,0.75c0.04,0.05,0.08,0.09,0.12,0.14
						C928.14,690.74,928.34,691.26,928.34,691.83z"/>
					<path style="fill:#FFA412;" d="M862.84,701.57h-71.47c-0.05,0-0.11,0-0.17,0c-0.06,0-0.12-0.01-0.18-0.02
						c-1.29-0.15-2.33-1.11-2.5-2.32c-0.01-0.08-0.02-0.15-0.02-0.23c0-0.05,0-0.1,0-0.14v-7.03c0-0.05,0-0.1,0-0.14
						c0-0.09,0.02-0.18,0.03-0.26c0.02-0.1,0.05-0.2,0.08-0.3c0.33-1.15,1.44-2.01,2.77-2.01h62.69c0.02,0.1,0.05,0.2,0.09,0.31
						c1.04,3.61,3.36,8.45,8.56,12.06C862.75,701.51,862.8,701.54,862.84,701.57z"/>
					<g>
						<rect x="910.6" y="689.12" style="fill:#FFA412;" width="1.52" height="12.45"/>
						<rect x="905.46" y="689.12" style="fill:#FFA412;" width="1.52" height="12.45"/>
						<rect x="899.31" y="689.12" style="fill:#FFA412;" width="1.52" height="12.45"/>
						<rect x="889.88" y="689.12" style="fill:#FFA412;" width="1.52" height="12.45"/>
						<rect x="879.9" y="689.12" style="fill:#FFA412;" width="1.52" height="12.45"/>
						<rect x="864.61" y="689.12" style="fill:#FFA412;" width="1.52" height="12.45"/>
						<rect x="850.29" y="689.12" style="fill:#FFA412;" width="1.52" height="12.45"/>
						<rect x="837.5" y="689.12" style="fill:#FFA412;" width="1.52" height="12.45"/>
						<rect x="915.48" y="689.12" style="fill:#FFA412;" width="1.52" height="12.45"/>
						<rect x="918.71" y="689.12" style="fill:#FFA412;" width="1.52" height="12.45"/>
						<rect x="921.82" y="689.12" style="fill:#FFA412;" width="1.52" height="12.45"/>
						<path style="fill:#FFA412;" d="M925.69,689.16v12.37c-0.19,0.03-0.38,0.04-0.57,0.04h-0.95v-12.45h0.95
							C925.31,689.11,925.5,689.13,925.69,689.16z"/>
						<path style="fill:#FFA412;" d="M927.79,690.31v10.06c-0.37,0.46-0.9,0.81-1.51,1.01V689.3
							C926.89,689.5,927.42,689.86,927.79,690.31z"/>
					</g>
				</g>
				<g>
					<path style="fill:#FFB93E;" d="M935.24,679.68v7.03c0,0.56-0.2,1.08-0.55,1.52c-0.37,0.45-0.89,0.81-1.51,1.01
						c-0.19,0.06-0.39,0.11-0.59,0.14c-0.18,0.03-0.37,0.05-0.57,0.05h-133.4c-0.53,0-1.04-0.11-1.49-0.31
						c-0.88-0.39-1.53-1.11-1.7-1.97c-0.01-0.06-0.02-0.12-0.03-0.18c0-0.04-0.01-0.08-0.01-0.12c0-0.05,0-0.09,0-0.14v-7.03
						c0-0.05,0-0.1,0-0.14c0-0.09,0.01-0.18,0.03-0.26c0.24-1.3,1.58-2.31,3.19-2.31h133.4c0.19,0,0.38,0.02,0.57,0.05
						c0.2,0.03,0.4,0.08,0.59,0.14c0.62,0.2,1.15,0.56,1.51,1.02C935.03,678.6,935.24,679.12,935.24,679.68z"/>
					<path style="fill:#FFA412;" d="M869.73,689.42h-71.47c-0.48,0-0.93-0.11-1.33-0.31c-0.79-0.39-1.37-1.11-1.52-1.97
						c-0.01-0.06-0.02-0.12-0.03-0.18c0-0.04-0.01-0.08-0.01-0.12c0-0.05,0-0.09,0-0.14v-7.03c0-0.05,0-0.1,0-0.14
						c0-0.09,0.01-0.18,0.03-0.26c0.02-0.1,0.04-0.19,0.07-0.29c0.33-1.16,1.44-2.02,2.77-2.02h62.69
						c0.97,3.57,3.21,8.46,8.34,12.15C869.44,689.22,869.58,689.32,869.73,689.42z"/>
					<g>
						<rect x="917.49" y="676.97" style="fill:#FFA412;" width="1.52" height="12.45"/>
						<rect x="912.36" y="676.97" style="fill:#FFA412;" width="1.52" height="12.45"/>
						<rect x="906.2" y="676.97" style="fill:#FFA412;" width="1.52" height="12.45"/>
						<rect x="896.77" y="676.97" style="fill:#FFA412;" width="1.52" height="12.45"/>
						<rect x="886.79" y="676.97" style="fill:#FFA412;" width="1.52" height="12.45"/>
						<rect x="871.5" y="676.97" style="fill:#FFA412;" width="1.52" height="12.45"/>
						<rect x="857.18" y="676.97" style="fill:#FFA412;" width="1.52" height="12.45"/>
						<rect x="844.4" y="676.97" style="fill:#FFA412;" width="1.52" height="12.45"/>
						<rect x="922.37" y="676.97" style="fill:#FFA412;" width="1.52" height="12.45"/>
						<rect x="925.6" y="676.97" style="fill:#FFA412;" width="1.52" height="12.45"/>
						<rect x="928.72" y="676.97" style="fill:#FFA412;" width="1.52" height="12.45"/>
						<path style="fill:#FFA412;" d="M932.58,677.01v12.37c-0.19,0.03-0.37,0.04-0.57,0.04h-0.95v-12.45h0.95
							C932.2,676.97,932.39,676.98,932.58,677.01z"/>
						<path style="fill:#FFA412;" d="M934.68,678.17v10.06c-0.37,0.46-0.9,0.81-1.52,1.01v-12.09
							C933.79,677.35,934.32,677.71,934.68,678.17z"/>
					</g>
				</g>
				<g>
					<path style="fill:#FFB93E;" d="M946.14,667.22v7.03c0,0.56-0.2,1.07-0.55,1.51l0,0c-0.05,0.06-0.1,0.11-0.15,0.17
						c-0.2,0.22-0.44,0.4-0.71,0.56c-0.13,0.07-0.28,0.15-0.43,0.2c0,0,0,0,0,0c-0.07,0.03-0.15,0.06-0.22,0.08
						c-0.19,0.06-0.39,0.11-0.59,0.14c-0.18,0.03-0.38,0.04-0.57,0.04h-133.4c-1.61,0-2.95-1-3.19-2.3
						c-0.02-0.09-0.02-0.18-0.03-0.27c0-0.05,0-0.09,0-0.14v-7.03c0-0.05,0-0.09,0-0.14c0.08-1.32,1.3-2.4,2.84-2.55
						c0.13-0.02,0.25-0.02,0.38-0.02h133.4c0.19,0,0.38,0.02,0.57,0.04c0.2,0.03,0.4,0.08,0.59,0.14c0.54,0.18,1.01,0.47,1.37,0.85
						c0.05,0.05,0.1,0.11,0.15,0.17l0,0C945.93,666.15,946.14,666.67,946.14,667.22z"/>
					<path style="fill:#FFA412;" d="M880.63,676.97h-71.47c-1.33,0-2.45-0.86-2.77-2.01c-0.03-0.09-0.06-0.19-0.07-0.29
						c-0.02-0.09-0.02-0.18-0.03-0.27c0-0.05,0-0.09,0-0.14v-7.03c0-0.05,0-0.09,0-0.14c0.07-1.32,1.16-2.4,2.53-2.55
						c0.11-0.02,0.22-0.02,0.34-0.02h62.69c0,0,0,0.01,0,0.02C872.87,668.2,875.2,673.26,880.63,676.97z"/>
					<g>
						<rect x="928.39" y="664.52" style="fill:#FFA412;" width="1.52" height="12.45"/>
						<rect x="923.26" y="664.52" style="fill:#FFA412;" width="1.52" height="12.45"/>
						<rect x="917.1" y="664.52" style="fill:#FFA412;" width="1.52" height="12.45"/>
						<rect x="907.67" y="664.52" style="fill:#FFA412;" width="1.52" height="12.45"/>
						<rect x="897.69" y="664.52" style="fill:#FFA412;" width="1.52" height="12.45"/>
						<rect x="882.4" y="664.52" style="fill:#FFA412;" width="1.52" height="12.45"/>
						<rect x="868.08" y="664.52" style="fill:#FFA412;" width="1.52" height="12.45"/>
						<rect x="855.3" y="664.52" style="fill:#FFA412;" width="1.52" height="12.45"/>
						<rect x="933.27" y="664.52" style="fill:#FFA412;" width="1.52" height="12.45"/>
						<rect x="936.5" y="664.52" style="fill:#FFA412;" width="1.52" height="12.45"/>
						<rect x="939.62" y="664.52" style="fill:#FFA412;" width="1.52" height="12.45"/>
						<path style="fill:#FFA412;" d="M943.48,664.56v12.37c-0.19,0.03-0.38,0.04-0.57,0.04h-0.95v-12.45h0.95
							C943.1,664.51,943.29,664.53,943.48,664.56z"/>
						<path style="fill:#FFA412;" d="M945.58,665.71v10.06c-0.37,0.46-0.9,0.81-1.51,1.01V664.7
							C944.69,664.9,945.22,665.26,945.58,665.71z"/>
					</g>
				</g>
				<g>
					<path style="fill:#FFB93E;" d="M928.62,654.79v7.03c0,0.56-0.2,1.08-0.55,1.51c-0.37,0.46-0.9,0.82-1.52,1.02
						c-0.19,0.06-0.39,0.11-0.59,0.14c-0.06,0.01-0.12,0.02-0.19,0.02h-0.02c-0.04,0.01-0.08,0.01-0.13,0.01c-0.02,0-0.05,0-0.08,0
						c-0.05,0-0.1,0-0.16,0H792c-1.16,0-2.18-0.52-2.75-1.29c-0.28-0.38-0.45-0.81-0.48-1.28c0-0.05,0-0.1,0-0.14v-7.03
						c0-0.05,0-0.1,0-0.14c0.07-1.15,1.02-2.13,2.29-2.45c0.3-0.08,0.61-0.12,0.94-0.12H925.4c0.06,0,0.11,0,0.17,0
						c0.03,0,0.06,0,0.08,0.01c0.11,0,0.21,0.02,0.32,0.03c0.2,0.03,0.4,0.08,0.59,0.14c0.1,0.03,0.19,0.06,0.27,0.1h0
						c0.35,0.15,0.67,0.35,0.93,0.59c0,0,0.01,0.01,0.01,0.02c0.01,0.01,0.02,0.02,0.04,0.03c0.09,0.08,0.17,0.18,0.25,0.27
						C928.42,653.71,928.62,654.23,928.62,654.79z"/>
					<path style="fill:#FFA412;" d="M863.12,664.54h-71.46c-1,0-1.9-0.49-2.41-1.23c-0.27-0.39-0.45-0.85-0.47-1.34
						c0-0.05,0-0.1,0-0.14v-7.03c0-0.05,0-0.1,0-0.14c0.07-1.24,1.03-2.27,2.3-2.51c0.19-0.04,0.38-0.06,0.58-0.06h62.69
						c0.02,0.1,0.05,0.19,0.08,0.29c1.04,3.63,3.38,8.53,8.66,12.15C863.1,664.52,863.11,664.53,863.12,664.54z"/>
					<g>
						<rect x="910.88" y="652.08" style="fill:#FFA412;" width="1.52" height="12.45"/>
						<rect x="905.74" y="652.08" style="fill:#FFA412;" width="1.52" height="12.45"/>
						<rect x="899.59" y="652.08" style="fill:#FFA412;" width="1.52" height="12.45"/>
						<rect x="890.16" y="652.08" style="fill:#FFA412;" width="1.52" height="12.45"/>
						<rect x="880.18" y="652.08" style="fill:#FFA412;" width="1.52" height="12.45"/>
						<rect x="864.89" y="652.08" style="fill:#FFA412;" width="1.52" height="12.45"/>
						<rect x="850.57" y="652.08" style="fill:#FFA412;" width="1.52" height="12.45"/>
						<rect x="837.79" y="652.08" style="fill:#FFA412;" width="1.52" height="12.45"/>
						<rect x="915.76" y="652.08" style="fill:#FFA412;" width="1.52" height="12.45"/>
						<rect x="918.99" y="652.08" style="fill:#FFA412;" width="1.52" height="12.45"/>
						<rect x="922.1" y="652.08" style="fill:#FFA412;" width="1.52" height="12.45"/>
						<path style="fill:#FFA412;" d="M925.97,652.12v12.37c-0.19,0.03-0.37,0.04-0.57,0.04h-0.95v-12.45h0.95
							C925.59,652.08,925.78,652.1,925.97,652.12z"/>
						<path style="fill:#FFA412;" d="M928.07,653.28v10.06c-0.37,0.46-0.9,0.81-1.51,1.01v-12.09
							C927.18,652.46,927.7,652.82,928.07,653.28z"/>
					</g>
				</g>
				<g>
					<path style="fill:#FFB93E;" d="M938.43,642.63v7.03c0,0.56-0.2,1.08-0.55,1.51c-0.37,0.46-0.9,0.81-1.51,1.01
						c-0.19,0.06-0.39,0.11-0.59,0.14c-0.18,0.03-0.37,0.04-0.57,0.04H801.81c-0.52,0-1.01-0.1-1.44-0.29
						c-0.97-0.41-1.67-1.22-1.77-2.17c0-0.04-0.01-0.07-0.01-0.11c0-0.05,0-0.09,0-0.14v-7.03c0-0.05,0-0.09,0-0.14
						c0.08-1.32,1.3-2.4,2.84-2.55c0.12-0.01,0.25-0.02,0.38-0.02H935.2c0.19,0,0.38,0.01,0.57,0.04c0.2,0.03,0.4,0.08,0.59,0.14
						c0.62,0.2,1.15,0.56,1.51,1.01C938.23,641.55,938.43,642.07,938.43,642.63z"/>
					<path style="fill:#FFA412;" d="M872.93,652.37h-71.46c-0.46,0-0.9-0.1-1.29-0.29c-0.87-0.41-1.49-1.22-1.58-2.17
						c0-0.04-0.01-0.07-0.01-0.11c0-0.05,0-0.09,0-0.14v-7.03c0-0.05,0-0.09,0-0.14c0.07-1.32,1.16-2.4,2.54-2.55
						c0.11-0.01,0.22-0.02,0.34-0.02h62.69c0,0.01,0,0.01,0.01,0.02c0.98,3.57,3.22,8.46,8.36,12.15
						C872.65,652.18,872.79,652.27,872.93,652.37z"/>
					<g>
						<rect x="920.68" y="639.92" style="fill:#FFA412;" width="1.52" height="12.45"/>
						<rect x="915.55" y="639.92" style="fill:#FFA412;" width="1.52" height="12.45"/>
						<rect x="909.4" y="639.92" style="fill:#FFA412;" width="1.52" height="12.45"/>
						<rect x="899.96" y="639.92" style="fill:#FFA412;" width="1.52" height="12.45"/>
						<rect x="889.99" y="639.92" style="fill:#FFA412;" width="1.52" height="12.45"/>
						<rect x="874.7" y="639.92" style="fill:#FFA412;" width="1.52" height="12.45"/>
						<rect x="860.38" y="639.92" style="fill:#FFA412;" width="1.52" height="12.45"/>
						<rect x="847.59" y="639.92" style="fill:#FFA412;" width="1.52" height="12.45"/>
						<rect x="925.57" y="639.92" style="fill:#FFA412;" width="1.52" height="12.45"/>
						<rect x="928.8" y="639.92" style="fill:#FFA412;" width="1.52" height="12.45"/>
						<rect x="931.91" y="639.92" style="fill:#FFA412;" width="1.52" height="12.45"/>
						<path style="fill:#FFA412;" d="M935.77,639.96v12.37c-0.18,0.03-0.37,0.04-0.57,0.04h-0.95v-12.45h0.95
							C935.4,639.92,935.59,639.93,935.77,639.96z"/>
						<path style="fill:#FFA412;" d="M937.88,641.11v10.06c-0.37,0.46-0.9,0.81-1.51,1.01V640.1
							C936.98,640.3,937.51,640.66,937.88,641.11z"/>
					</g>
				</g>
				<g>
					<path style="fill:#FFB93E;" d="M942.61,630.19v7.03c0,0.56-0.2,1.08-0.55,1.51c-0.37,0.46-0.9,0.81-1.51,1.01
						c-0.19,0.06-0.39,0.11-0.59,0.14c-0.06,0.01-0.12,0.02-0.19,0.02c-0.03,0-0.07,0.01-0.1,0.01c-0.03,0-0.07,0-0.11,0.01
						c-0.06,0-0.11,0-0.17,0h-133.4c-1.72,0-3.14-1.14-3.22-2.57c0-0.05,0-0.09,0-0.14v-7.03c0-0.05,0-0.09,0-0.14
						c0.09-1.43,1.5-2.57,3.22-2.57h133.4c0.19,0,0.38,0.02,0.57,0.04c0.2,0.03,0.4,0.08,0.59,0.14c0.62,0.2,1.15,0.56,1.51,1.01
						C942.4,629.11,942.61,629.63,942.61,630.19z"/>
					<path style="fill:#FFA412;" d="M877.1,639.93h-71.47c-1.53,0-2.8-1.14-2.88-2.57c0-0.05,0-0.09,0-0.14v-7.03
						c0-0.05,0-0.09,0-0.14c0.08-1.43,1.34-2.57,2.88-2.57h62.69c1,3.66,3.33,8.72,8.75,12.43
						C877.08,639.92,877.09,639.93,877.1,639.93z"/>
					<g>
						<rect x="924.86" y="627.48" style="fill:#FFA412;" width="1.52" height="12.45"/>
						<rect x="919.73" y="627.48" style="fill:#FFA412;" width="1.52" height="12.45"/>
						<rect x="913.57" y="627.48" style="fill:#FFA412;" width="1.52" height="12.45"/>
						<rect x="904.14" y="627.48" style="fill:#FFA412;" width="1.52" height="12.45"/>
						<rect x="894.16" y="627.48" style="fill:#FFA412;" width="1.52" height="12.45"/>
						<rect x="878.87" y="627.48" style="fill:#FFA412;" width="1.52" height="12.45"/>
						<rect x="864.55" y="627.48" style="fill:#FFA412;" width="1.52" height="12.45"/>
						<rect x="851.77" y="627.48" style="fill:#FFA412;" width="1.52" height="12.45"/>
						<rect x="929.74" y="627.48" style="fill:#FFA412;" width="1.52" height="12.45"/>
						<rect x="932.97" y="627.48" style="fill:#FFA412;" width="1.52" height="12.45"/>
						<rect x="936.09" y="627.48" style="fill:#FFA412;" width="1.52" height="12.45"/>
						<path style="fill:#FFA412;" d="M939.95,627.52v12.37c-0.19,0.03-0.37,0.04-0.57,0.04h-0.95v-12.45h0.95
							C939.57,627.48,939.76,627.5,939.95,627.52z"/>
						<path style="fill:#FFA412;" d="M942.05,628.68v10.06c-0.37,0.46-0.9,0.81-1.52,1.01v-12.09
							C941.16,627.87,941.69,628.22,942.05,628.68z"/>
					</g>
				</g>
			</g>
			<g>
				<path style="fill:#FFEDDC;" d="M900.32,556.51c0,0-7.01,9.86-13.43,10c-6.42,0.14-16.2-4.57-16.2-4.57s-5.9-13.14-1.9-18.29
					c0,0,4.01-1.76,8.21,1.35c0.72,0.54,1.45,1.21,2.17,2.08c1.02,1.22,2.16,1.92,3.37,2.29c4.58,1.39,10.02-1.89,12.06,1.28
					c1.19,1.84,2.48,3.22,3.54,4.2C899.41,555.97,900.32,556.51,900.32,556.51z"/>
				<path style="fill:#FFEDDC;" d="M808.98,627.66c0,0,24.76-60.01,69.34-61.15c0,0,41.15,4.57,43.43,61.15H808.98z"/>
				<path style="fill:#DB6A1D;" d="M866.11,568.35c0,0,17.87,3.97,23.38,1.64c0,0,0.83-7.47-6.69-6.42
					c-5.15,0.72-8.5-1.76-10.48-2.76C869.53,559.38,865.37,565.22,866.11,568.35z"/>
				<path style="fill:#E5C1A1;" d="M881.66,557.09c-1.14,0.86-4.65-12.08-4.65-12.08c0.72,0.54,1.45,1.21,2.17,2.08
					c1.02,1.22,2.16,1.92,3.37,2.29C882.56,549.75,882.77,556.25,881.66,557.09z"/>
				<path style="fill:#E5C1A1;" d="M898.15,554.85c-0.25,0.15-8.52,5.1-9.64,5.1c-1.14,0,6.09-9.29,6.09-9.29
					C895.8,552.49,897.09,553.87,898.15,554.85z"/>
				<path style="fill:#F9DDBF;" d="M833.17,610.9c-0.46-0.39,17.53-26.48,22.48-26.67c4.95-0.19,16.08,5.71,24.14,6.48
					c8.06,0.76,15.87-1.52,17.39,3.24c1.52,4.76,5.71,21.65,3.14,24.35C897.75,621,843.06,619.35,833.17,610.9z"/>
			</g>
		</g>
		<path style="opacity:0.5;fill:#E2810E;" d="M850.11,701.48c0,0.03,0,0.06-0.01,0.09c-0.23,4.18-0.9,8.31-2,12.34
			c0,0,0,0.01,0,0.02c-0.16,0.58-0.33,1.17-0.5,1.75c-1.12,3.68-2.59,7.25-4.4,10.69c-2.27,4.31-5.07,8.4-8.38,12.14
			c-0.09,0.1-0.18,0.21-0.27,0.31c-4.13,4.63-9.04,8.74-14.66,12.15c-1.18,0.72-2.4,1.41-3.64,2.06c-0.84,0.44-1.69,0.86-2.54,1.26
			c-0.81,0.47-1.67,0.87-2.48,1.37c-2.35,1.44-5.28,2.58-8.48,3.49v-5.48c0-0.05,0-0.09,0-0.14c0-0.09,0.02-0.18,0.03-0.27
			c0.02-0.1,0.05-0.2,0.08-0.3c0.33-1.15,1.45-2.01,2.77-2.01h-14.26c-1.32,0-2.44-0.86-2.77-2.01c-0.03-0.1-0.06-0.2-0.08-0.3
			c-0.01-0.09-0.02-0.18-0.03-0.26c0-0.05,0-0.09,0-0.14v-7.03c0-0.05,0-0.1,0-0.14c0-0.09,0.02-0.18,0.03-0.26
			c0.02-0.1,0.05-0.2,0.08-0.3c0.33-1.15,1.44-2.01,2.77-2.01h5.57c-0.79-0.39-1.37-1.11-1.52-1.97c-0.01-0.06-0.02-0.12-0.03-0.18
			c0-0.04-0.01-0.08-0.01-0.12c0-0.05,0-0.09,0-0.14v-7.03c0-0.05,0-0.09,0-0.14c0-0.09,0.01-0.18,0.03-0.26
			c0.02-0.1,0.04-0.19,0.07-0.29c0.33-1.16,1.44-2.02,2.77-2.02h3.2c-1.32,0-2.44-0.86-2.77-2.01c-0.03-0.1-0.06-0.2-0.08-0.3
			c-0.01-0.09-0.02-0.18-0.03-0.26v-7.31c0.07-1.32,1.16-2.4,2.54-2.55h-9.46c-1.54,0-2.8-1.15-2.88-2.57c0-0.05,0-0.09,0-0.14
			v-7.03c0-0.05,0-0.1,0-0.14c0-0.04,0-0.08,0.01-0.11c0.12-1.18,1.04-2.13,2.24-2.39c-1.29-0.15-2.33-1.11-2.5-2.32
			c-0.01-0.08-0.02-0.15-0.02-0.23c0-0.05,0-0.1,0-0.14v-7.03c0-0.05,0-0.1,0-0.14c0-0.09,0.02-0.18,0.03-0.26
			c0.02-0.1,0.05-0.2,0.08-0.3c0.33-1.15,1.44-2.01,2.77-2.01h5.57c-0.79-0.39-1.37-1.11-1.52-1.97c-0.01-0.06-0.02-0.12-0.03-0.18
			c0-0.04-0.01-0.08-0.01-0.12c0-0.05,0-0.09,0-0.14v-7.03c0-0.05,0-0.1,0-0.14c0-0.09,0.01-0.18,0.03-0.26
			c0.02-0.1,0.04-0.19,0.07-0.29c0.33-1.16,1.44-2.02,2.77-2.02h10.9c-1.33,0-2.45-0.86-2.77-2.01c-0.03-0.09-0.06-0.19-0.07-0.29
			c-0.02-0.09-0.02-0.18-0.03-0.27c0-0.05,0-0.09,0-0.14v-7.03c0-0.05,0-0.09,0-0.14c0.07-1.32,1.16-2.4,2.53-2.55h-17.17
			c-1,0-1.9-0.49-2.41-1.23l0.01-0.06l1.81-11.04l0.01-0.06l2.58-15.76c2.99,0.4,5.94,1,8.84,1.78c0.17,0.05,0.34,0.09,0.51,0.14
			c0.01,0,0.02,0.01,0.03,0.01c1.69,0.47,3.35,1,5,1.6c0.02,0,0.03,0.01,0.05,0.02c7.56,2.75,14.6,6.84,20.71,12.15
			c0.11,0.09,0.22,0.19,0.32,0.29c3.18,2.79,6.09,5.91,8.68,9.35c0.52,0.68,1.03,1.38,1.51,2.09c0.16,0.23,0.33,0.47,0.48,0.7
			c0.01,0,0.01,0.01,0.01,0.02c0.79,1.16,1.53,2.35,2.24,3.58c1.67,2.89,3.08,5.85,4.22,8.85c1.53,3.99,2.6,8.06,3.23,12.15
			c0.02,0.1,0.03,0.2,0.05,0.31C850.14,693.44,850.33,697.48,850.11,701.48z"/>
		<g>
			<path style="fill:#E2810E;" d="M712.32,726.73c-17.49-31.73-5.95-71.64,25.79-89.14c31.73-17.49,71.64-5.95,89.14,25.79
				c17.49,31.73,5.95,71.64-25.79,89.14C769.72,770.01,729.81,758.46,712.32,726.73z"/>
			<path style="fill:#FFB93E;" d="M798.91,753.85c-0.81,0.49-1.63,0.97-2.46,1.43c-0.28,0.16-0.57,0.31-0.85,0.46
				c-0.65,0.35-1.29,0.68-1.95,1c-31.25,15.35-69.36,3.57-86.34-27.24c-16.2-29.39-7.49-65.79,19.09-84.91
				c2.12-1.52,4.35-2.94,6.7-4.23c0.84-0.46,1.69-0.91,2.54-1.33c0.83-0.41,1.66-0.81,2.5-1.18c2.57-1.15,5.18-2.11,7.81-2.9
				c3.92-1.18,7.89-1.98,11.88-2.4c12.36-1.31,24.79,0.95,35.82,6.34c11.7,5.72,21.82,14.97,28.58,27.24
				C839.26,697.04,828.76,735.68,798.91,753.85z"/>
			<g>
				<path style="fill:#FFA412;" d="M765.22,757.31c-5.49,0-11-0.78-16.42-2.34c-15.09-4.36-27.57-14.34-35.15-28.09
					c-7.58-13.75-9.35-29.63-4.99-44.72c4.36-15.09,14.34-27.57,28.09-35.15c28.39-15.65,64.22-5.29,79.87,23.1
					c15.65,28.39,5.28,64.22-23.1,79.87C784.71,754.84,775.02,757.31,765.22,757.31z M765.04,641.3c-9.33,0-18.79,2.28-27.52,7.1
					c-13.38,7.38-23.09,19.52-27.34,34.2c-4.25,14.68-2.52,30.13,4.85,43.51c7.38,13.38,19.52,23.09,34.2,27.34
					c14.68,4.25,30.13,2.52,43.51-4.85c27.62-15.23,37.71-50.09,22.48-77.71C804.82,651.99,785.23,641.3,765.04,641.3z"/>
			</g>
			<g>
				<path style="fill:#FFA412;" d="M794.05,704.2c-0.13-0.32-0.27-0.64-0.41-0.94c-1.06-2.34-2.39-4.24-3.98-5.69
					c-1.8-1.64-3.89-2.87-6.27-3.69c-2.38-0.82-5.03-1.32-7.96-1.5c-2.93-0.18-6.12-0.22-9.56-0.12c-2.13,0.06-3.95,0.03-5.46-0.11
					c-1.51-0.14-2.79-0.42-3.84-0.84c-1.05-0.42-1.91-1-2.57-1.74c-0.66-0.73-1.2-1.63-1.63-2.69c-0.43-1.06-0.68-2.11-0.74-3.15
					c-0.06-1.04,0.09-2.03,0.47-2.97c0.37-0.93,0.98-1.8,1.83-2.59c0.84-0.79,1.96-1.47,3.35-2.04c2.56-1.04,4.95-1.02,7.17,0.07
					c2.22,1.09,4.02,3.35,5.42,6.78l13.37-5.43c-1.16-2.86-2.62-5.28-4.38-7.26c-1.75-1.97-3.73-3.5-5.93-4.58
					c-2.2-1.08-4.59-1.71-7.18-1.89c-2.59-0.18-5.28,0.09-8.07,0.82l-3.79-9.32l-7.4,3l3.73,9.19c-2.67,1.39-4.93,3-6.79,4.83
					c-1.86,1.84-3.28,3.83-4.28,5.97c-1,2.14-1.52,4.39-1.57,6.74c-0.05,2.36,0.42,4.75,1.41,7.18c1.14,2.81,2.61,5.03,4.41,6.67
					c1.8,1.64,3.88,2.86,6.26,3.66c2.37,0.81,5.03,1.29,7.96,1.44c2.94,0.16,6.13,0.16,9.58-0.01c2-0.11,3.74-0.1,5.21,0.03
					c1.47,0.13,2.75,0.42,3.82,0.85c1.07,0.43,1.96,1.04,2.68,1.82c0.71,0.78,1.31,1.77,1.8,2.97c0.43,1.06,0.64,2.12,0.64,3.17
					c0,1.05-0.24,2.06-0.71,3.02c-0.47,0.96-1.18,1.85-2.12,2.66c-0.94,0.82-2.14,1.52-3.59,2.11c-1.26,0.51-2.57,0.85-3.92,1.02
					c-1.35,0.16-2.67,0.03-3.96-0.4c-1.29-0.43-2.49-1.21-3.61-2.34c-1.12-1.13-2.1-2.71-2.92-4.74l-13.37,5.43
					c1.39,3.44,3.15,6.16,5.26,8.17c2.11,2.01,4.42,3.45,6.92,4.32c2.51,0.87,5.13,1.25,7.87,1.13c2.74-0.11,5.44-0.55,8.11-1.34
					l3.45,8.51l7.35-2.99l-3.47-8.55c2.67-1.38,4.96-2.98,6.86-4.79c1.76-1.67,3.14-3.47,4.14-5.41c0.08-0.16,0.16-0.31,0.23-0.47
					c1.01-2.11,1.55-4.35,1.61-6.71C795.56,709.16,795.08,706.72,794.05,704.2z"/>
			</g>
		</g>
	</g>
	<g style="opacity:0.7;">
		<g>
			<path style="fill:#20BF55;" d="M1233.48,689.67c0,0,12.61-14.53,0.78-23.75c0,0-8.64-5.17-15.69-4.75c0,0,9.99,16.53,6.76,18.18
				c-3.23,1.64-9.78-19.22-9.78-19.22s-19.67-1.88-25.99,1.12c0,0,16.81,13.59,13.27,14.39c-3.54,0.81-21.7-12.53-21.7-12.53
				s-18.3,3.08-17.33,14.1c0.98,11.03,7.28,14.43,10.06,14.14c2.77-0.29,18.99-6.41,19.34-4.16c0.35,2.24-9.41,9.57-16.24,9.92
				c0,0,12.9,14.05,21.48,10c8.58-4.06,9.31-10.48,14.65-12.9c5.35-2.41,9.91-2.41,7.7,0.05c-2.21,2.46-11.88,4.85-14.94,10.19
				c-3.06,5.34-5.8,8.94,3.07,7.62c8.87-1.32,23.3-7.73,23.93-15.07C1233.48,689.67,1233.48,689.67,1233.48,689.67z"/>
			<g>
				<path style="fill:#20BF55;" d="M1172.79,677.52c0,0,49.72-1.89,60.69,12.15c0,0,2.43,7.18,9.9,13.72l1.16,3.13
					c0,0-8.62-8.97-11.7-9.51C1232.85,697.01,1237.67,679.62,1172.79,677.52z"/>
				<path style="fill:#20BF55;" d="M1243.38,703.39c0,0,10.67,7.79,11.41,21.72l-1.94,0.17c0,0-3.41-14.4-9.57-20.03
					C1237.13,699.62,1243.38,703.39,1243.38,703.39z"/>
			</g>
		</g>
		<g>
			<path style="fill:#20BF55;" d="M1272.36,677.78c0,0-17.68-9.78-9.43-23.05c0,0,6.6-8.15,13.67-10.24c0,0-3.77,19.79,0,20.25
				c3.77,0.47,2.59-22.35,2.59-22.35s18.62-8.85,25.93-8.15c0,0-11.55,19.32-7.78,18.86c3.77-0.47,16.74-20.02,16.74-20.02
				s19.1-3.49,22.16,7.68c3.06,11.17-1.89,16.76-4.72,17.46c-2.83,0.7-20.98,0.47-20.51,2.79c0.47,2.33,12.73,6.05,19.57,3.96
				c0,0-7.54,18.39-17.44,17.46c-9.9-0.93-12.97-6.98-19.1-7.45c-6.13-0.47-10.61,1.16-7.54,2.79c3.06,1.63,13.44,0.53,18.39,4.69
				c4.95,4.16,8.96,6.72-0.24,8.58c-9.19,1.86-25.7,0.7-29-6.29C1272.36,677.78,1272.36,677.78,1272.36,677.78z"/>
			<g>
				<path style="fill:#20BF55;" d="M1327.53,644.26c0,0-49.51,15.83-55.17,33.52c0,0,0.24,7.92-4.72,16.99v3.49
					c0,0,5.19-11.87,8.02-13.5C1275.66,684.77,1264.58,669.4,1327.53,644.26z"/>
				<path style="fill:#20BF55;" d="M1267.64,694.78c0,0-7.63,11.45-3.28,25.39l1.96-0.52c0,0-1.91-15.35,2.09-23.07
					C1272.41,688.85,1267.64,694.78,1267.64,694.78z"/>
			</g>
		</g>
		<g>
			<path style="fill:#136F63;" d="M1245.65,656.11c0,0,26.44-14.62,14.1-34.46c0,0-9.87-12.18-20.45-15.32c0,0,5.64,29.59,0,30.29
				c-5.64,0.7-3.88-33.42-3.88-33.42s-27.85-13.23-38.78-12.18c0,0,17.27,28.89,11.63,28.2s-25.03-29.94-25.03-29.94
				s-28.55-5.22-33.14,11.49c-4.58,16.71,2.82,25.06,7.05,26.11c4.23,1.04,31.38,0.7,30.67,4.18c-0.71,3.48-19.04,9.05-29.26,5.92
				c0,0,11.28,27.5,26.09,26.11c14.81-1.39,19.39-10.44,28.55-11.14c9.17-0.7,15.86,1.74,11.28,4.18c-4.58,2.44-20.09,0.8-27.5,7.01
				c-7.4,6.21-13.4,10.04,0.35,12.83c13.75,2.78,38.43,1.04,43.36-9.4C1245.65,656.11,1245.65,656.11,1245.65,656.11z"/>
			<g>
				<path style="fill:#136F63;" d="M1163.16,605.98c0,0,74.03,23.67,82.49,50.13c0,0-0.35,11.84,7.05,25.41v5.22
					c0,0-7.76-17.75-11.99-20.19C1240.72,666.55,1257.29,643.57,1163.16,605.98z"/>
				<path style="fill:#136F63;" d="M1252.71,681.52c0,0,11.42,17.12,4.91,37.96l-2.94-0.78c0,0,2.85-22.95-3.12-34.5
					C1245.58,672.66,1252.71,681.52,1252.71,681.52z"/>
			</g>
		</g>
		<path style="fill:#54311A;" d="M1245.02,760c-25.22,0-45.66-20.18-45.66-45.08h91.31C1290.67,739.82,1270.23,760,1245.02,760z"/>
		
			<rect x="1198.32" y="714.92" transform="matrix(-1 -1.224647e-16 1.224647e-16 -1 2490.4941 1431.217)" style="fill:#351303;" width="93.85" height="1.38"/>
		<path style="fill:#351303;" d="M1264.51,760h-42.75l0,0c0-2,1.64-3.62,3.66-3.62h35.42C1262.87,756.38,1264.51,758,1264.51,760
			L1264.51,760z"/>
	</g>
	<g>
		<path style="fill:#F77D48;" d="M966.74,455.65c-58.75,47.83-129.12,84.6-209.18,109.28c-65.03,20.04-137.08,32.32-214.16,36.51
			c-21.02,1.14-41.49,1.64-61.19,1.64c-39.85,0-76.59-2.02-108.61-4.84l12.96-61.29c44.15,3.6,96.88,5.48,153.85,2.39
			c72.53-3.93,140.09-15.41,200.77-34.11c73.02-22.51,136.89-55.78,189.81-98.88L966.74,455.65z"/>
	</g>
	<g>
		<path style="fill:#163560;" d="M528.74,333.42c-8.17-4.24-14.71-1.57-14.71-1.57c-24.99-2.94-32.29,26.21-31.95,36.24
			c0.33,10.03,1.48,20.8-9.68,33.83c-32.24,37.64,35.28,39.3,35.28,39.3c0.57-30.07,36.62-19.1,35.04-16.05
			C588.94,436.26,547.32,343.06,528.74,333.42z"/>
		<path style="fill:#FFB27D;" d="M432.33,458.79c0,0-4.4-6.69-7.94-6.82c-3.54-0.13-10.1-1.97-9.58-0.66
			c0.53,1.31,4.59,1.44,4.99,2.23c0.39,0.79-6.03,1.97-7.87,2.1c-1.84,0.13-6.17,0-6.04,0.92c0.13,0.92,7.8,4.72,13.22,4.2
			c5.41-0.52,12.11,1.57,12.11,1.57L432.33,458.79z"/>
		<path style="fill:#7B2CBF;" d="M495.9,460.95c0,0-2.39,4.73-6.72,10.17c-5.22,6.54-13.28,14.1-23.39,15.59
			c-4.83,0.71-9.55-0.33-13.89-2.26c-0.01,0-0.02,0-0.02,0c-12.28-5.45-21.52-17.99-21.52-17.99c-2.16-5.9,1.38-9.91,1.38-9.91
			s24.8,5.58,27.16,4.4c2.36-1.18,16.14-40.87,19.42-45.86c3.28-4.99,14.46-7.58,14.46-7.58L495.9,460.95z"/>
		<path style="fill:#240046;" d="M489.17,471.12c-5.22,6.54-13.28,14.1-23.39,15.59c-4.83,0.71-9.55-0.33-13.89-2.26
			c0.48,0.06,12.75,1.58,17.63-7.17c4.99-8.92,10.38-23.09,17.79-18.37C490.51,460.96,490.37,466.02,489.17,471.12z"/>
		<path style="fill:#36599E;" d="M588.41,728.63c0,0,7.57,6.91,6.09,11.81c-1.48,4.91-8.3,8.18-9.23,14.17
			c-0.92,6-4.61,9.27-7.94,9.27c-3.32,0-15.84,0-15.84,0s-2.45-4.22,3.46-5.49c5.91-1.27,8.13-8.32,7.76-14.86
			c-0.37-6.54,0.55-15.27,0.55-15.27l12.55-2.91L588.41,728.63z"/>
		<path style="fill:#2B478B;" d="M524.37,731.56c0,0,2.72,29.25-0.6,30.89l-42.51-0.09c0,0,0-4.91,6.83-6
			c6.83-1.09,18.82-5.09,20.85-13.99C510.97,733.47,524.37,731.56,524.37,731.56z"/>
		<path style="fill:#FFB27D;" d="M554.66,521.69c-8.75-19.62-14.1-25.25-13.08-31.34c0.76-4.53-2.32-84.5-2.32-84.5
			c-1.04-0.32-3.12-0.61-4.26-0.86c-3.59-0.8-6.56-3.32-7.8-6.78c-1.49-4.17-2.67-10.33-2.65-18.04l-1.12,0.22l-18.84,3.73
			c0,0,0.43,5.93,0.44,11.52c0,0.05,0,0.09,0,0.14c0.02,4.85-3.16,9.13-7.82,10.48c-2.38,0.69-4.45,1.27-4.45,1.27
			s-6.92,19.75-8.24,40.05c-1.32,20.29,12.58,29.11-0.1,69.66C471.48,558.65,559.5,532.53,554.66,521.69z"/>
		<path style="fill:#E8945B;" d="M504.61,384.11c0,0,0.43,5.93,0.44,11.52c10.54-0.3,16.12-9.92,18.4-15.25L504.61,384.11z"/>
		<path style="fill:#FFB27D;" d="M501.09,389.4c0,0,24.95,0.41,24.97-15.13c0.02-15.54,3.25-25.95-12.68-26.87
			c-15.93-0.92-19.03,5.01-20.3,10.19C491.81,362.78,494.6,388.89,501.09,389.4z"/>
		<path style="fill:#163560;" d="M502.01,347.02c0,0,6.83,18.23,17.31,20.93c10.48,2.7,15.03-0.11,15.03-0.11s-8.04-6.39-9.71-17.54
			C524.64,350.3,507.16,338.34,502.01,347.02z"/>
		<path style="fill:#163560;" d="M503.7,348.5c0,0-5.07,1.89-7.15,5.59c-2.04,3.61-3.78,8.4-3.37,14.27c0,0-5.15-12.39,0.64-19.4
			C499.95,341.52,503.7,348.5,503.7,348.5z"/>
		<path style="fill:#EBF3FA;" d="M506.52,379.76c0,0-1.72,2.27-5.17,2.1c-2.77-0.13-3.84-2.54-3.84-2.54S502.6,378.1,506.52,379.76z
			"/>
		<path style="fill:#7B2CBF;" d="M557.07,441.22c0,0,0.63,8.93,0,19.65c-0.42,7.1-7.61,16.62-8.63,18.97
			c-2.56,5.9-5.44,6.86-5.44,6.86l-22.32,5.47l-7.85,1.92l-24.75-7.39c0,0-11.27-31.47-6.75-49.18
			c4.53-17.71,11.44-30.01,11.44-30.01s20.2,19.78,46.49-1.68L557.07,441.22z"/>
		<path style="fill:#233862;" d="M489.65,491.49c0,0-12.26,38.15-13.04,51.14c-0.79,12.99,23.43,184.52,24.4,190.51
			c0.92,5.64,7.92,9.24,7.92,9.24s3.22,1.9,7.82,0.6c6.38-1.8,8.4-3.96,8.4-3.96s9.54-122.34,3.64-166.04
			c-5.9-43.7-5.97-81.49-5.97-81.49H489.65z"/>
		<path style="fill:#2B478B;" d="M541.59,490.35c0,0,18.7,25.09,20.44,42.04c1.74,16.96,2.73,76.52,6.45,93.06
			c3.71,16.53,17.36,48.35,17.36,99.91c0,0-1.42,2.96-5.8,4.53c-1.4,0.5-3.28,0.99-5.1,1.41c-3.61,0.83-7.32-0.94-8.96-4.26
			c-9.22-18.57-38.61-78.47-40.11-90.9c-1.07-8.8-10.34-67.04-30.58-101.21c-4.86-8.2,2.98-40.83,2.98-40.83L541.59,490.35z"/>
		<path style="fill:#FFFFFF;" d="M505.96,380.18c0,0-0.43,1.83-4.99,1.55c0,0-3.82-0.24-3.71-2.25
			C497.27,379.48,500.97,378.04,505.96,380.18z"/>
		<path style="fill:#233862;" d="M487.7,485.6c0,0,4.92,3.89,14.7,4.09c11.68,0.23,40.61-2.98,40.61-2.98s1.29,3.59,1.23,7.38
			c0,0-35.34,8.91-55.81,1.3C488.42,495.4,485.78,490.43,487.7,485.6z"/>
		<g>
			<path style="fill:#FFFFFF;" d="M499.59,499.75c-2.94,0-5.33-2.7-5.33-6.03c0-3.32,2.39-6.03,5.33-6.03c2.94,0,5.33,2.7,5.33,6.03
				C504.92,497.04,502.53,499.75,499.59,499.75z M499.59,489.46c-1.96,0-3.56,1.91-3.56,4.26c0,2.35,1.6,4.26,3.56,4.26
				c1.96,0,3.56-1.91,3.56-4.26C503.15,491.37,501.55,489.46,499.59,489.46z"/>
		</g>
		
			<rect x="517.36" y="450.63" transform="matrix(0.7542 -0.6567 0.6567 0.7542 -184.4112 474.374)" style="fill:#B5453C;" width="48" height="65.71"/>
		<path style="fill:#FFB27D;" d="M534.83,492.62c0,0-13.26,1.55-13.22,4.7c0.04,3.15,3.3,9.62,4.94,9.9
			c1.64,0.29,10.79-8.75,10.79-8.75L534.83,492.62z"/>
		<path style="fill:#7B2CBF;" d="M539.27,405.84c0,0,17.71,1.24,24.5,17.74c6.79,16.5,19.67,44.21,19.67,48.87
			c0,4.66-7.2,19.03-45.83,27.29c0,0-4-4.2-3.75-7.53c0,0,24.12-20.72,24.05-23.14c-0.12-4.58-3.95-10.63-25.13-31.81
			C527.01,431.51,539.27,405.84,539.27,405.84z"/>
	</g>
	<g>
		<g>
			<g>
				<g>
					<path style="fill:#9C6644;" d="M156.2,763.85h-0.18c-1.03,0-1.86-0.85-1.84-1.88l2.78-120.7l8.2-0.96l-7,121.67
						C158.12,763.03,157.25,763.85,156.2,763.85z"/>
				</g>
				<g>
					<path style="fill:#9C6644;" d="M288.11,763.85h0.18c1.03,0,1.86-0.85,1.84-1.88l-2.78-120.7l-8.2-0.96l7,121.67
						C286.18,763.03,287.05,763.85,288.11,763.85z"/>
				</g>
				<path style="fill:#9C6644;" d="M150.76,633.78v-82.71c0-14.55,11.8-26.35,26.35-26.35h59.59c14.55,0,26.35,11.8,26.35,26.35
					v85.87L150.76,633.78z"/>
				<path style="fill:#9C6644;" d="M273.73,646.84H158.67c-4.37,0-7.91-3.54-7.91-7.91v-5.15h122.97V646.84z"/>
				<path style="fill:#9C6644;" d="M287.52,646.84h-87.05c-3.23,0-5.85-2.62-5.85-5.85v-1.36c0-3.23,2.62-5.85,5.85-5.85h87.05
					c3.23,0,5.85,2.62,5.85,5.85v1.36C293.37,644.22,290.75,646.84,287.52,646.84z"/>
			</g>
			<g>
				<path style="fill:#233862;" d="M284.14,613.17c-8.54,14.86-19.27,20.59-19.27,20.59H220.2
					C220.2,633.76,290.65,601.83,284.14,613.17z"/>
				<g>
					<path style="fill:#FFB27D;" d="M249.83,728.13c-1.16,1.33-1.31,2.83-0.74,4.42c0,0.01,0,0.02,0.01,0.02
						c1.07,2.94,4.59,6.23,8.67,9.52c0.52,0.42,0.99,0.81,1.39,1.16c0.11,0.09,0.21,0.19,0.31,0.28c0.08,0.07,0.16,0.15,0.24,0.22
						c3.81,3.51,2.38,4.32,9.23,11.45c7.81,8.13,13.19,8.27,14.72,7.53c1.29-0.63-1.33-4.94-4.25-9.79
						c-0.14-0.23-0.28-0.47-0.42-0.71c-0.39-0.64-0.77-1.3-1.16-1.94c-3.41-5.83-2.54-8.57-1.73-17.24
						c0.66-7.05,10.97-39.39,10.97-39.39l-14.97-2.58c0,0-4.51,25.75-9.47,29.72c-2.66,2.11-5.63,2.14-8.18,3.71
						c-0.18,0.11-0.36,0.22-0.53,0.34C252.48,725.8,251,726.79,249.83,728.13z"/>
					<path style="fill:#233862;" d="M249.83,728.13c-1.16,1.33-1.31,2.83-0.74,4.42c0,0.01,0,0.02,0.01,0.02
						c1.3,2.94,4.74,6.21,8.69,9.48c0.52,0.43,0.97,0.82,1.38,1.19c0.11,0.09,0.21,0.19,0.31,0.28c0.08,0.07,0.16,0.15,0.24,0.22
						c3.81,3.51,2.38,4.32,9.23,11.45c7.81,8.13,13.19,8.27,14.72,7.53c1.29-0.63-1.33-4.94-4.25-9.79
						c-1.52-0.56-8.58-3.43-13.92-10.26c-4.7-6-7.84-13.71-11.04-18.18c-0.18,0.11-0.36,0.22-0.53,0.34
						C252.48,725.8,251,726.79,249.83,728.13z"/>
					<path style="fill:#FFB27D;" d="M370.52,718.78c0.92,4.62,7.51,3.85,14.87,2.05c7.36-1.8,5.61,0.34,16.08-0.82
						c10.47-1.16,13.64-5.06,13.96-6.62c0.29-1.38-4.89-1.87-10.44-2.51c-0.7-0.08-1.4-0.16-2.1-0.25
						c-6.27-0.79-10.85-4.83-16.55-8.15c-5.39-3.15-13.44-15.96-13.44-15.96l-14.36,1.14c0,0,7.54,11.45,10.45,16.42
						c1.71,2.93,1.62,6.8,1.41,9.79C370.3,715.49,370.19,717.15,370.52,718.78z"/>
					<path style="fill:#233862;" d="M385.39,720.83c7.36-1.8,5.61,0.34,16.08-0.82c10.47-1.16,13.64-5.06,13.96-6.62
						c0.29-1.38-4.89-1.87-10.44-2.51l-0.05,0.11c0,0-6.28,4.45-15,4.66c-7.1,0.17-14.63-1.86-19.54-1.78
						c-0.11,1.62-0.22,3.29,0.11,4.91C371.44,723.4,378.03,722.63,385.39,720.83z"/>
					<path style="fill:#233862;" d="M315.49,626.96l-13.42,36.12l-17.53,47.17c0,0-4.76,0.46-9.31-0.85
						c-4.19-1.21-9.01-4.38-9.01-4.38s4.87-50.64,13.94-79.72c2.33-7.46,4.93-13.5,7.81-16.9
						C302.05,591.77,315.49,626.96,315.49,626.96z"/>
					<path style="fill:#2B478B;" d="M301.84,569.59c-8.79-2.84-33.88,0.81-59.08,5.74l-5.28-8.7l-54.43-4.25
						c0,0-17.96,39.83-8.13,65.21c1.45,3.73,4.32,6.12,9.21,6.2c0,0,0.79,0,0.8,0c0,0,32.39-0.02,42.91-0.02
						c27.07,0,57.28-18.61,61.19-19.39c6.4-1.28,8.96,11.52,15.36,24.95c6.4,13.44,60.14,59.5,60.14,59.5s8.26,0.08,11.67-1.2
						c3.67-1.38,5.01-3.16,5.01-3.16S321.67,575.98,301.84,569.59z"/>
					<path style="fill:#B5453C;" d="M235.34,408.14c-6.97-3.66-17.58-4.16-19.3-4.39c-20.62-2.77-33.04,27.2-33.77,36.28
						c-1.35,16.74-10.2,19.29-22.66,29.77c-24.99,21.02-17.66,45.44-4,54.52c8.2,5.45,22.65,0,22.65,0
						c0.2,0.14,39.52-21.98,58.9-32.65C266.22,487.54,253.11,417.47,235.34,408.14z"/>
					<path style="fill:#FFB27D;" d="M220.92,482.58c0.09,0.06-9.54,3.34-15.97,0.49c-6.05-2.67-10.64-12.63-10.55-12.64
						c2.75-0.13,5.78-2.53,8.1-18.33l1.17,0.42l19.71,7.09c0,0-1.43,6.32-2.35,12.35C220.26,477.03,219.84,481.87,220.92,482.58z"/>
					<path style="fill:#ED975D;" d="M223.39,459.62c0,0-1.43,6.32-2.35,12.35c-11.32-2.04-15.77-13.32-17.36-19.44L223.39,459.62z"
						/>
					<path style="fill:#FFB27D;" d="M226.33,465.9c0,0-26.97-3.62-24.46-20.38c2.51-16.76,0.72-28.52,18.05-26.91
						c17.33,1.6,19.7,8.5,20.23,14.3C240.67,438.7,233.41,466.41,226.33,465.9z"/>
					<path style="fill:#B5453C;" d="M239.16,423.72c0,0-17.26,14.88-29.01,16.08c-11.74,1.2-16.19-2.57-16.19-2.57
						s6.92-5.75,11.09-15.02c1.23-2.73,3.82-4.61,6.81-4.87C220.25,416.61,236.14,416.28,239.16,423.72z"/>
					<path style="fill:#B5453C;" d="M228.37,422.38c0,0,5.78,5.58,7.59,9.73c1.76,4,2.28,13.56,0.88,17.35c0,0,9-17.5,3.9-26
						C235.35,414.45,228.37,422.38,228.37,422.38z"/>
					<path style="fill:#8C9DF4;" d="M243.63,522.31c-0.82,54.59-0.22,43.19-6.2,48.37c-1.44,1.25-5.48,1.99-10.81,2.34
						c-16.74,1.11-46.17-1.65-47.29-4.74c-3.86-10.7-1.14-14.03-4.36-30.42c-0.34-1.74-0.75-3.63-1.24-5.68
						c-2.69-11.26-5.3-15.08,4.23-33.17c8.64-16.38,17.62-29.67,18.43-29.2c22.8,13.53,24.64,2.16,24.64,2.16
						S244.03,495.68,243.63,522.31z"/>
					<path style="fill:#2B478B;" d="M302.06,663.08l-17.53,47.17c0,0-4.76,0.46-9.31-0.85c-4.19-1.21-9.01-4.38-9.01-4.38
						s4.87-50.64,13.94-79.72L302.06,663.08z"/>
					<path style="fill:#8C9DF4;" d="M221.04,471.97c0,0,23.46,3.98,26.21,14.08c2.75,10.1,18.97,69.48,18.97,69.48
						s-11.93,2.14-17.44-3.37c-5.51-5.51-19.17-51.12-19.17-51.12L221.04,471.97z"/>
					<path style="fill:#6980E2;" d="M226.62,573.02c-16.74,1.11-46.17-1.65-47.29-4.74c-3.86-10.7-1.14-14.03-4.36-30.42l8.07-22.74
						c0,0-1.34,25.32,6.13,31.98c7.46,6.66,30.57,12.85,34.2,18.42C225.14,568.19,226.29,570.87,226.62,573.02z"/>
					<path style="fill:#FFB27D;" d="M207.45,562.37c0,0,16.51-3.68,19.18-2.21c2.66,1.47,9.18,6.8,9.99,8.66
						c0.82,1.86-5.93-1.41-8.13-2c-1.42-0.38-5.16,0.92-7.02,1.54c-7.79,2.6-12.57,1.26-12.57,1.26L207.45,562.37z"/>
					<path style="fill:#8C9DF4;" d="M196.38,469.8c0,0-22.18,1.37-29.85,12.07c-10.81,15.07-32.24,79.3-19.96,87.87
						c13.84,9.65,62.97,2.52,62.97,2.52s1.64-7.64-0.64-11.34c-2.27-3.7-39.24-9.67-40.95-11.37c-1.71-1.71,21.33-33.27,21.33-38.39
						C189.28,506.05,196.38,469.8,196.38,469.8z"/>
					<path style="fill:#FFB27D;" d="M227.42,564.76c0,0,3.46,4.46,4.59,5c1.13,0.53,1.87,0.4,1.87,0.4l-2.33-4.2L227.42,564.76z"/>
					<path style="fill:#FFB27D;" d="M226.62,560.16l10.06,4.89c0,0-0.43,0.7-1.67,0.64c-1.24-0.06-4.36-1.2-4.36-1.2L226.62,560.16z
						"/>
				</g>
				<g>
					<g>
						<polygon style="fill:#F77D48;" points="228.38,576.59 313.26,576.59 338.79,517.06 254.04,517.06 						"/>
						<polygon style="fill:#F77D48;" points="314.25,572.73 202.17,572.73 202.17,576.49 313.26,576.49 						"/>
					</g>
					<path style="fill:#EBF3FA;" d="M291.83,546.82c0.64-2.09-0.65-3.79-2.88-3.79c-2.23,0-4.56,1.7-5.2,3.79
						c-0.64,2.09,0.65,3.79,2.88,3.79C288.86,550.61,291.19,548.92,291.83,546.82z"/>
				</g>
			</g>
		</g>
		<g>
			<g>
				<path style="fill:#233862;" d="M438.76,765.51h0.23c1.36,0,2.46-1.24,2.43-2.74l-3.68-176.11l-10.85-1.4l9.25,177.52
					C436.22,764.31,437.37,765.51,438.76,765.51z"/>
			</g>
			<g>
				<path style="fill:#233862;" d="M210.08,765.51h-0.23c-1.36,0-2.46-1.24-2.43-2.74l3.68-176.11l10.85-1.4l-9.25,177.52
					C212.62,764.31,211.47,765.51,210.08,765.51z"/>
			</g>
			<path style="fill:#233862;" d="M443.03,589.19H195.91c-2.18,0-3.95-1.77-3.95-3.95v-4.7c0-2.18,1.77-3.95,3.95-3.95h247.13
				c2.18,0,3.95,1.77,3.95,3.95v4.7C446.99,587.42,445.22,589.19,443.03,589.19z"/>
		</g>
	</g>
	<path style="fill:#2E3552;" d="M1346.43,767.91H6.84c-1.06,0-1.93-0.87-1.93-1.93v-1.87c0-1.06,0.87-1.93,1.93-1.93h1339.59
		c1.06,0,1.93,0.87,1.93,1.93v1.87C1348.36,767.04,1347.49,767.91,1346.43,767.91z"/>
</g>
</svg>
