<?xml version="1.0" encoding="utf-8"?>
<!-- Generator: Adobe Illustrator 25.2.1, SVG Export Plug-In . SVG Version: 6.00 Build 0)  -->
<svg version="1.1" id="Layer_1" xmlns="http://www.w3.org/2000/svg" xmlns:xlink="http://www.w3.org/1999/xlink" x="0px" y="0px"
	 viewBox="0 0 1000 1000" style="enable-background:new 0 0 1000 1000;" xml:space="preserve">
<g>
	<g transform="translate(0.000000,512.000000) scale(0.100000,-0.100000)">
		<path d="M2399.1,5112.6c-88.6-295.2-124-391.7-196.8-539.3c-98.4-192.9-202.7-320.9-263.7-320.9c-59,0-116.1,84.7-141.8,206.6
			c-53.2,255.9-240.1,314.9-446.9,137.8c-104.3-88.6-202.7-281.5-202.7-397.6c0-114.2,43.3-153.6,189-171.2
			c153.6-17.8,224.4-80.7,224.4-200.8c0-53.2-13.8-100.4-41.4-133.9c-55.1-68.9-226.4-185-425.2-285.4l-161.4-80.7l59-141.8
			c139.7-338.6,328.7-547.3,496-547.3c70.8,0,94.4,41.4,114.2,210.6c21.7,173.2,53.2,236.2,127.9,254
			c145.7,37.4,440.9-248,440.9-425.2c0-92.5-37.4-126-183-163.4c-124-33.5-190.9-78.7-190.9-131.9c0-57.1,118.1-212.6,218.5-287.4
			c94.4-68.9,305.1-167.3,415.3-192.9c53.2-11.8,53.2-11.8,141.8,267.7c120.1,379.9,220.5,533.4,350.4,533.4
			c76.8,0,104.3-35.4,153.6-204.7c21.7-70.8,55.1-143.7,74.8-161.4c133.9-122.1,456.7,112.2,490.2,354.4
			c13.8,110.3-45.3,171.2-218.6,228.3c-173.2,55.1-224.4,114.2-189,218.5c35.4,108.3,137.8,187,692.9,531.4l133.9,80.7l-59,124
			c-118.2,250-275.6,417.3-393.7,417.3c-76.8,0-153.6-68.9-169.3-149.6c-7.9-39.3-35.4-96.5-61-127.9
			c-94.4-112.2-295.2-65-452.7,106.2c-82.6,90.5-133.9,218.6-112.2,279.5c15.7,41.4,88.6,68.9,181.1,68.9s196.9,63,212.6,127.9
			c41.4,165.4-143.7,313-600.3,470.5C2464,5116.5,2403,5130.4,2399.1,5112.6z"/>
		<path d="M5772.9,4429.5c-118.2-39.3-196.9-114.2-196.9-187c0-25.6,31.5-82.6,68.9-127.9c37.4-45.3,74.8-104.3,80.7-130
			c25.6-98.4-90.5-165.4-281.5-165.4c-181.1,0-350.4,51.2-769.7,230.4c-29.6,11.8-126-190.9-171.2-364.1
			c-41.4-163.4-41.4-395.6,0-482.3c49.2-104.3,122.1-126,269.7-80.7c118.1,35.4,120.1,35.4,190.9-6
			c187-108.3,232.3-427.1,80.7-580.7c-72.9-70.8-106.2-68.9-236.2,13.8c-143.7,90.5-232.3,92.5-303.1,7.9
			c-41.4-47.2-51.2-80.7-51.2-165.4c0-98.4,45.3-279.5,108.3-429.1l27.5-68.9l183,47.2c379.9,96.5,641.7,78.7,751.9-53.2
			c63-74.8,63-110.3,2-226.4c-27.5-51.2-49.2-126-49.2-167.3c0-206.6,301.1-309,456.6-155.5c76.8,78.7,72.9,155.5-13.8,269.7
			c-74.8,98.4-86.6,169.3-37.4,238.2c94.4,137.8,356.3,149.6,763.8,35.4c139.7-39.3,255.9-68.9,257.9-66.9
			c3.9,3.9,41.4,76.8,84.6,163.4c100.4,202.7,141.8,342.5,141.8,486.2c0,96.5-7.9,124-49.2,163.3c-55.1,57.1-135.8,63-242.2,17.8
			c-112.2-47.2-250-43.3-305.1,7.9c-127.9,120.1-122.1,435.1,7.9,584.6c106.4,122.1,230.3,127.9,389.8,23.6
			c145.7-96.5,204.7-80.7,230.3,57.1c25.6,141.8-15.8,490.2-80.7,673.2c-6,17.8-33.5,11.8-102.3-23.6
			c-251.9-126-655.5-228.3-801.1-200.8c-70.8,13.8-110.3,57.1-110.3,124c0,21.7,41.4,98.4,90.5,173.2
			c72.8,112.2,86.6,149.6,78.7,196.9c-17.8,82.6-100.4,159.4-198.8,185C5924.6,4476.8,5901,4474.8,5772.9,4429.5z"/>
		<path d="M7217.8,3947.3c5.9-15.7,25.6-106.2,43.3-200.8c41.4-228.3,31.5-476.3-27.6-588.5c-62.9-122.1-155.5-141.8-255.9-57.1
			c-84.6,70.8-194.8,112.2-261.8,98.4c-78.7-17.8-151.6-112.2-165.4-214.5c-17.8-110.3,7.9-185,72.8-234.3
			c51.2-39.4,53.2-39.4,210.6,2c189,49.2,267.7,35.4,348.4-61c49.2-59,51.1-68.9,41.4-240.1c-11.8-214.5-82.6-427.1-251.9-757.8
			c-183-352.3-283.4-700.7-228.4-777.5c29.6-37.4,31.5-37.4,159.5,15.7c72.8,29.6,139.7,53.2,151.5,53.2
			c62.9,0,161.4-72.8,210.6-155.5c45.3-76.8,53.2-112.2,53.2-238.2c0-122.1-9.9-165.4-53.2-248c-29.6-55.1-82.6-126-116.1-155.5
			c-70.9-57.1-139.8-59-307.1-7.9c-66.9,19.7-90.5,19.7-108.3,2c-62.9-63,11.8-307,149.7-486.2c86.5-116.1,102.3-185.1,61-275.6
			C6859.4-755.1,6459.9-944,6174.4-944c-110.3,0-131.9,5.9-189,57.1c-57.1,51.2-65,68.9-62.9,153.6c0,55.1,19.7,127.9,43.3,177.2
			c63,120.1,59,246.1-7.9,299.1c-137.8,108.3-330.7,92.5-415.3-35.4c-53.2-76.8-59-200.8-15.7-277.6
			c66.9-116.1,17.7-305.1-92.5-366.2c-141.7-78.7-600.3,39.3-1336.6,346.5c-261.8,110.3-336.6,118.2-362.2,39.4
			c-7.9-21.7,7.9-80.7,37.4-143.7c29.6-59,51.2-135.8,51.2-171.2c0-157.5-155.5-273.6-395.6-291.3
			c-242.1-17.8-427.1,62.9-511.8,222.5c-47.2,86.6-47.2,86.6-11.8,220.5c41.4,163.4,41.4,173.2,2,210.6c-63,63-305.1,23.6-561-90.5
			c-80.7-35.4-135.8-72.8-135.8-90.5c0-53.2,200.8-401.6,403.5-702.8c251.9-372,309.1-474.4,378-669.3
			c53.2-149.7,55.1-173.2,53.2-502c0-220.5-11.8-423.2-33.5-561c-66.9-437-222.5-978.3-439-1521.6
			c-59-147.6-106.2-275.6-106.2-283.4c0-9.9,952.7-15.7,2118.1-15.7c1686.9,0,2116,6,2108.2,25.6
			c-84.6,200.8-112.2,281.5-131.9,387.8c-35.4,181.1-29.6,586.6,7.9,807.1c65,378,127.9,488.1,322.7,584.6
			c102.3,49.2,130,55.1,309.1,53.2c108.3-2,307-11.8,442.9-23.6c251.9-19.7,578.8-3.9,702.8,37.4c183,59,244.1,305.1,173.3,685
			c-37.4,190.9-23.6,255.9,76.8,393.7c90.5,122.1,92.5,192.9,9.9,273.6l-61.1,59l90.5,86.6c112.2,108.3,116.1,157.5,29.6,356.3
			c-82.7,194.8-94.5,303.1-37.4,372c23.6,31.5,76.8,62.9,122.1,76.8C9210.1-642.9,9231.8-448,8846,79.5
			c-372,507.8-446.9,645.6-468.5,874c-7.8,102.3,0,149.6,61.1,330.7c49.2,145.7,70.8,246.1,70.8,326.8
			c0,131.9-159.4,757.9-255.9,996.1c-190.9,482.3-527.5,1009.8-775.6,1218.5C7320.2,3955.2,7190.2,4016.1,7217.8,3947.3z"/>
		<path d="M3273,2030.1c-112.2-23.6-189-74.8-224.4-147.6c-41.4-88.6-39.3-120.1,17.8-244.1c27.5-59,49.2-124,49.2-145.7
			c0-68.9-100.4-147.6-208.7-161.4c-149.6-19.7-486.2,49.2-757.8,155.5c-72.8,27.5-177.2-385.8-147.6-588.5
			c19.7-124,88.6-198.8,165.4-179.1c29.6,5.9,104.3,17.8,165.4,23.6c106.2,9.9,116.1,7.9,173.2-49.2c55.1-55.1,59-68.9,59-206.6
			c0-301.2-82.6-366.2-344.5-267.7c-127.9,47.2-190.9,39.3-222.5-31.5c-49.2-108.3-6-385.8,102.3-626l49.2-114.2l74.8,33.5
			c490.2,208.7,694.9,234.3,834.6,104.3c70.8-65,68.9-86.6-2-285.4c-39.3-108.3-41.4-127.9-17.8-177.2c15.7-31.5,59-76.8,96.5-102.3
			c61-41.4,86.6-45.3,228.3-39.4c137.8,6,167.3,13.8,228.3,59c98.4,74.8,110.3,145.7,47.2,283.4c-90.5,198.8-53.2,283.4,126,283.4
			c102.3,0,185-23.6,478.4-135.8c116.1-45.3,220.5-80.7,230.4-80.7c23.6,0,63,90.5,159.4,378c61,181.1,74.8,240.1,57.1,269.7
			c-29.6,57.1-90.5,66.9-187,31.5c-163.4-62.9-309.1,2-393.7,175.2c-49.2,100.4-53.2,126-45.3,273.6
			c11.8,192.9,68.9,340.5,167.3,427.1c76.8,68.9,173.2,76.8,287.4,29.6c104.3-43.3,183-37.4,218.6,13.8
			c55.1,78.7,37.4,171.2-66.9,370.1c-55.1,102.3-118.2,228.3-139.7,279.5l-41.4,92.5l-161.4-86.6c-210.6-114.2-433.1-187-570.9-187
			c-173.3,0-204.7,61-126,250c37.4,92.5,39.3,108.3,13.8,175.2c-15.7,39.3-49.2,88.6-76.8,108.3
			C3511.2,2032,3371.4,2051.7,3273,2030.1z"/>
		<path d="M5005.3,1882.4c-202.7-55.1-374-120.1-374-137.8c0-9.9,47.2-120.1,106.2-246.1c135.8-295.2,169.3-395.6,169.3-515.7
			c0-78.7-9.9-108.3-49.2-145.7c-61-63-133.9-63-269.7,0c-127.9,61-190.9,61-261.8,6c-84.7-66.9-127.9-181.1-127.9-346.5
			c0-285.4,98.4-372,334.7-289.4c116.1,41.4,165.4,37.4,230.4-17.8c51.1-45.3,55.1-59,53.2-183c-2-108.3-19.7-181.1-96.5-387.8
			c-88.6-234.3-94.4-254-63-277.6c63-45.3,407.4-149.6,535.4-161.4c242.1-21.7,291.3,27.5,226.4,234.3
			c-21.7,68.9-39.4,149.6-39.4,179.1c0,65,47.2,185.1,94.4,236.2c133.8,149.7,458.6,126.1,600.3-43.2
			c72.9-86.6,74.8-232.3,3.9-364.1c-61.1-116.1-61.1-139.7,2-198.8c110.3-102.3,389.8-43.3,623.9,127.9
			c72.9,55.1,131.9,112.2,131.9,130s-49.2,116.1-108.3,218.6c-167.3,295.2-190.9,509.8-63,602.3l53.2,41.4L6822,298
			c159.5-70.8,194.8-72.9,269.7-9.9c155.5,131.9,181.1,399.5,49.2,531.4c-61,61-114.2,59-230.4-2c-116.1-61-192.9-63-248-3.9
			c-35.4,37.4-43.3,68.9-43.3,177.2c0,141.8,37.4,261.8,165.4,525.6c39.4,80.7,70.8,155.5,70.8,167.3c0,35.4-421.3,169.3-567,179.1
			c-112.2,9.9-145.7,3.9-220.4-35.4c-112.2-57.1-122.1-110.3-43.3-220.5c31.5-43.3,63-100.4,70.9-124
			c21.7-66.9-37.4-169.3-141.8-244.1c-122.1-88.6-289.4-102.3-405.5-33.5c-112.2,66.9-190.9,173.2-202.7,275.6
			c-7.9,70.8,0,100.4,51.2,175.2c51.2,76.8,59,100.4,43.3,141.7C5400.9,1902.1,5208,1939.4,5005.3,1882.4z"/>
	</g>
</g>
</svg>
