<svg id="Layer_1" data-name="Layer 1" xmlns="http://www.w3.org/2000/svg" viewBox="0 0 200 200"><defs><style>.cls-1{fill:#1a1a1a;}</style></defs><path class="cls-1" d="M99.19,98.11h1.44V94.39c.32-5.65,2.3-8,4.82-11.29s6.24-7.29,7.29-8.42c.12-.11.25-.21.37-.33a18.68,18.68,0,1,0-26.41,0s4.58,4.83,7.6,8.75c2.56,3.3,4.54,5.69,4.84,11.44"/><path class="cls-1" d="M99.14,94.54v3.57a32.79,32.79,0,0,0,0-3.57"/><path class="cls-1" d="M100.63,101.89H99.19v3.72c-.33,5.65-2.3,8-4.83,11.29s-6.23,7.29-7.28,8.41c-.13.12-.26.22-.38.34a18.68,18.68,0,1,0,26.41,0s-4.57-4.83-7.6-8.75c-2.55-3.3-4.54-5.69-4.84-11.44"/><path class="cls-1" d="M100.67,105.46v-3.57a35.54,35.54,0,0,0,0,3.57"/><rect class="cls-1" x="99.16" y="97.44" width="1.47" height="6.23"/><path class="cls-1" d="M101.16,98.41l.74,1.24,3.2-1.91c5-2.6,8.06-2.12,12.17-1.63s9.45,1.63,11,2c.17.05.32.11.49.15a18.68,18.68,0,1,0-13.52-22.69s-1.81,6.4-3.63,11c-1.53,3.88-2.56,6.81-7.36,10"/><path class="cls-1" d="M104.2,96.55l-3.06,1.82c1.17-.63,2.17-1.23,3.06-1.82"/><path class="cls-1" d="M98.65,101.59l-.74-1.24-3.19,1.91c-5,2.6-8.07,2.12-12.17,1.63s-9.45-1.63-11-2c-.16-.05-.31-.11-.48-.15a18.68,18.68,0,1,0,13.52,22.69s1.81-6.4,3.62-11c1.54-3.88,2.57-6.81,7.36-10"/><path class="cls-1" d="M95.61,103.45l3.07-1.82a34.69,34.69,0,0,0-3.07,1.82"/><rect class="cls-1" x="96.31" y="99.54" width="6.23" height="1.47" transform="translate(-37.31 65) rotate(-30.78)"/><path class="cls-1" d="M101.91,100.31l-.71,1.25,3.23,1.84c4.74,3.08,5.83,6,7.42,9.78s3.25,9,3.71,10.5c0,.16.06.33.1.49a18.68,18.68,0,1,0,13.07-23s-6.46,1.59-11.36,2.28c-4.13.58-7.19,1.12-12.34-1.47"/><path class="cls-1" d="M105,102l-3.1-1.77A34.14,34.14,0,0,0,105,102"/><path class="cls-1" d="M97.91,99.69l.71-1.25L95.38,96.6c-4.74-3.08-5.82-6-7.42-9.78s-3.24-9-3.7-10.5c0-.16-.06-.33-.11-.49a18.68,18.68,0,1,0-13.07,23s6.47-1.59,11.37-2.28c4.13-.58,7.19-1.12,12.34,1.47"/><path class="cls-1" d="M94.79,98l3.09,1.77A34.07,34.07,0,0,0,94.79,98"/><rect class="cls-1" x="98.69" y="96.6" width="1.47" height="6.23" transform="translate(-36.42 136.77) rotate(-60.34)"/></svg>