<?xml version="1.0" encoding="utf-8"?>
<!-- Generator: Adobe Illustrator 25.2.1, SVG Export Plug-In . SVG Version: 6.00 Build 0)  -->
<svg version="1.1" id="Layer_1" xmlns="http://www.w3.org/2000/svg" xmlns:xlink="http://www.w3.org/1999/xlink" x="0px" y="0px"
	 viewBox="0 0 48 48" style="enable-background:new 0 0 48 48;" xml:space="preserve">
<style type="text/css">
	.st0{fill:#EA3546;}
</style>
<path class="st0" d="M20.9,47.7c-6.2-4.5-10.7-9-13.6-13.2s-4.4-8.3-4.4-12.3c0-3.1,0.5-5.8,1.6-8S7,9.9,8.7,8.4
	c1.7-1.5,3.7-2.7,5.9-3.5s4.1-1.2,6.3-1.2s4.1,0.4,6.4,1.2s4,2,5.8,3.5c1.7,1.6,3.2,3.5,4.3,5.8c1.1,2.3,1.6,4.9,1.6,8
	c0,4-1.5,8.2-4.4,12.3S27,43.2,20.9,47.7z M20.9,26.5c1.3,0,2.4-0.4,3.3-1.3c0.9-0.9,1.3-2,1.3-3.3s-0.4-2.4-1.3-3.3
	c-0.9-0.9-2-1.3-3.3-1.3s-2.4,0.4-3.3,1.3c-0.9,0.9-1.3,2-1.3,3.3s0.4,2.4,1.3,3.3C18.5,26.1,19.5,26.5,20.9,26.5z"/>
</svg>
