<?xml version="1.0" encoding="utf-8"?>
<!-- Generator: Adobe Illustrator 25.2.1, SVG Export Plug-In . SVG Version: 6.00 Build 0)  -->
<svg version="1.1" id="Layer_1" xmlns="http://www.w3.org/2000/svg" xmlns:xlink="http://www.w3.org/1999/xlink" x="0px" y="0px"
	 viewBox="0 0 48 48" style="enable-background:new 0 0 48 48;" xml:space="preserve">
<style type="text/css">
	.st0{fill:#FFFFFF;}
</style>
<path class="st0" d="M24,36.9c-4.6-3.4-8-6.7-10.2-9.9s-3.3-6.2-3.3-9.2c0-2.3,0.4-4.3,1.2-6s1.9-3.2,3.2-4.3s2.8-2,4.4-2.6
	S22.4,4,24,4s3.1,0.3,4.8,0.9s3,1.5,4.3,2.6c1.3,1.2,2.4,2.6,3.2,4.3s1.2,3.7,1.2,6c0,3-1.1,6.1-3.3,9.2S28.6,33.5,24,36.9z M24,21
	c1,0,1.8-0.3,2.5-1s1-1.5,1-2.5s-0.3-1.8-1-2.5S25,14,24,14s-1.8,0.3-2.5,1s-1,1.5-1,2.5s0.3,1.8,1,2.5S23,21,24,21z"/>
</svg>
