<?xml version="1.0" encoding="utf-8"?>
<!-- Generator: Adobe Illustrator 25.2.1, SVG Export Plug-In . SVG Version: 6.00 Build 0)  -->
<svg version="1.1" id="Layer_1" xmlns="http://www.w3.org/2000/svg" xmlns:xlink="http://www.w3.org/1999/xlink" x="0px" y="0px"
	 viewBox="0 0 1366 768" style="enable-background:new 0 0 1366 768;" xml:space="preserve">
<ellipse style="fill:none;stroke:#B5838D;stroke-width:9.7581;stroke-miterlimit:10;" cx="338.91" cy="368.95" rx="334.92" ry="318.65"/>
<g>
	<path style="fill:#FFB4A2;" d="M438.08,517.43L438.08,517.43c29.92,13.56,65.39-0.49,78.66-31.08l121.13-280.18
		c13.27-30.58-0.48-66.84-30.4-80.4l0,0c-29.92-13.56-65.39,0.49-78.66,31.08L407.68,437.02
		C394.41,467.61,408.16,503.86,438.08,517.43z"/>
	<path style="fill:#FFB4A2;" d="M713.41,634.82l7.24,3.21c39.57,17.76,86.14-0.49,103.52-40.94l95.07-219.75
		c17.37-40.45-0.48-88.05-40.06-105.81l-7.24-3.21c-39.57-17.76-86.14,0.49-103.52,40.94l-95.31,219.51
		C655.73,569.22,673.83,616.82,713.41,634.82z"/>
	<path style="fill:#FFCDB2;" d="M711.23,630.39l3.14,1.48c29.2,13.07,63.46-0.49,76.49-30.34l110.51-255.27
		c12.79-29.84-0.48-64.86-29.68-78.18l-3.14-1.48c-29.2-13.07-63.46,0.49-76.49,30.34L681.55,552.2
		C668.76,582.04,682.04,617.31,711.23,630.39z"/>
	<path style="fill:#FFB4A2;" d="M547.63,638.28l15.2,6.91c51.88,23.43,113.17-0.74,136.09-53.77l131.75-304.84
		c22.92-53.03-0.72-115.67-52.6-139.1l-15.2-6.91c-51.88-23.43-113.17,0.74-136.09,53.77L495.03,499.18
		C472.11,552.2,495.75,614.85,547.63,638.28z"/>
	<path style="fill:#FFCDB2;" d="M519.16,623.73l15.2,6.91c51.88,23.43,113.17-0.74,136.09-53.77L802.2,272.02
		c22.92-53.03-0.72-115.67-52.6-139.1l-15.2-6.91c-51.88-23.43-113.17,0.74-136.09,53.77L466.56,484.62
		C443.63,537.65,467.28,600.3,519.16,623.73z"/>
	<path style="fill:#FFCDB2;" d="M424.09,489.56l3.14,1.48c29.2,13.07,63.46-0.49,76.49-30.34l110.51-255.02
		c12.79-29.84-0.48-64.86-29.68-78.18l-3.14-1.48c-29.2-13.07-63.46,0.49-76.49,30.34L394.41,411.62
		C381.62,441.22,394.89,476.49,424.09,489.56z"/>
</g>
<text transform="matrix(0.9784 0 0 1 136.5889 433.3994)" style="fill:#6D6875; font-family:'Qualy-Bold'; font-size:218.467px;">DIGITALIOT</text>
</svg>
