<?xml version="1.0" encoding="utf-8"?>
<!-- Generator: Adobe Illustrator 25.2.1, SVG Export Plug-In . SVG Version: 6.00 Build 0)  -->
<svg version="1.1" id="Layer_1" xmlns="http://www.w3.org/2000/svg" xmlns:xlink="http://www.w3.org/1999/xlink" x="0px" y="0px"
	 viewBox="0 0 48 48" style="enable-background:new 0 0 48 48;" xml:space="preserve">
<style type="text/css">
	.st0{fill:#FFFFFF;}
</style>
<path class="st0" d="M2.6,39c-0.7,0-1.3-0.3-1.8-0.8S0,37,0,36.2V8.8C0,8,0.3,7.4,0.8,6.8S1.9,6,2.6,6h35.9c0.7,0,1.3,0.3,1.8,0.8
	C40.7,7.4,41,8,41,8.8v27.5c0,0.7-0.3,1.4-0.8,1.9c-0.5,0.6-1.1,0.8-1.8,0.8H2.6z M14.1,25.7c1.4,0,2.6-0.6,3.6-1.6
	c0.9-1,1.5-2.3,1.5-3.9c0-1.5-0.5-2.8-1.5-3.9c-0.9-1.1-2.1-1.6-3.6-1.6s-2.6,0.5-3.6,1.6c-1,1-1.5,2.3-1.5,3.9
	c0,1.5,0.5,2.8,1.5,3.9C11.4,25.2,12.6,25.7,14.1,25.7z M24,20.5h11.4V12H24V20.5z M3,36.2h22.2c-1.3-2.3-2.9-3.9-4.8-5.1
	s-4-1.7-6.3-1.7s-4.4,0.6-6.3,1.7S4.2,34,3,36.2z M29.7,18.8l-4.4-3.7v-1.8l4.4,3.7l4.4-3.7v1.8L29.7,18.8z"/>
</svg>
