<?xml version="1.0" encoding="utf-8"?>
<!-- Generator: Adobe Illustrator 25.2.1, SVG Export Plug-In . SVG Version: 6.00 Build 0)  -->
<svg version="1.1" id="Layer_1" xmlns="http://www.w3.org/2000/svg" xmlns:xlink="http://www.w3.org/1999/xlink" x="0px" y="0px"
	 viewBox="0 0 147 127" style="enable-background:new 0 0 147 127;" xml:space="preserve">
<style type="text/css">
	.st0{fill:#DCD4FC;}
</style>
<path class="st0" d="M101.8,52.5L101.8,52.5c0-7.5-6.1-13.5-13.5-13.5c-7.5,0-13.5,6.1-13.5,13.5S80.9,66,88.3,66
	c1.5,0,3-0.3,4.4-0.7c-3,17.4-16.6,28.7-4,19.4C102.7,74.4,101.8,52.9,101.8,52.5z"/>
<path class="st0" d="M58.6,66c1.5,0,3-0.3,4.4-0.7C60,82.7,46.4,94,59,84.7C73,74.4,72.2,53,72.2,52.5l0,0c0-7.4-6.1-13.5-13.5-13.5
	s-13.5,6.1-13.5,13.5S51.2,66,58.6,66z"/>
</svg>
