<?xml version="1.0" encoding="utf-8"?>
<!-- Generator: Adobe Illustrator 25.2.1, SVG Export Plug-In . SVG Version: 6.00 Build 0)  -->
<svg version="1.1" id="Layer_1" xmlns="http://www.w3.org/2000/svg" xmlns:xlink="http://www.w3.org/1999/xlink" x="0px" y="0px"
	 viewBox="0 0 1366 768" style="enable-background:new 0 0 1366 768;" xml:space="preserve">
<g>
	<path style="fill:#EDAE49;" d="M944.33,169.76c-16.34,64.32,22.69,129.95,87.01,146.29c64.32,16.35,129.95-22.69,146.29-87.01
		c16.35-64.32-22.69-129.95-87.01-146.29C1026.3,66.41,960.67,105.44,944.33,169.76z M974.05,173.25L974.05,173.25
		c14.45-48.01,65.07-75.21,113.08-60.77l0,0c48.01,14.45,75.21,65.07,60.77,113.08v0c-14.45,48.01-65.07,75.21-113.08,60.77l0,0
		C986.81,271.88,959.61,221.26,974.05,173.25z"/>
	<path style="fill:#EDAE49;" d="M860.93,169.95c0.57,2.87,3.17,3.88,9.59,6.42c11.48,4.56,22.98,9.11,34.29,14.07
		c1.78,0.78,3.56,3.55,3.78,5.58c1.31,12.02,1.89,24.13,3.32,36.13c0.44,3.72,0.08,5.7-3.26,7.8c-13.36,8.4-26.49,17.17-39.57,25.71
		c3.27,14.02,19.73,45.52,28.53,54.33c13.86-5.83,28.12-11.58,42.12-17.87c4.36-1.96,6.59-1.58,10.22,1.89
		c8.43,8.06,17.62,15.37,26.9,22.45c3.76,2.87,5.76,5.12,4.54,10.29c-3.16,13.4-5.5,26.99-8.43,40.44c-0.79,3.62-0.1,5.88,3.47,6.98
		c16.8,5.2,33.6,10.38,50.4,15.57c4.13,1.28,4.77-2.12,5.8-4.55c5.22-12.31,10.51-24.6,15.31-37.07c1.8-4.68,4.22-6.22,9.31-6.38
		c13.46-0.42,26.9-1.72,41.38-2.75c8.57,13,18.02,27.36,27.74,42.12c19.51-6.46,37.09-16.14,53.73-28.93
		c-6.59-15.84-13.18-31.68-19-45.64c9.97-12.63,19.46-24.12,28.25-36.12c2.55-3.47,4.54-4.05,8.36-3.21
		c13.25,2.91,26.6,5.41,39.88,8.23c2.87,0.61,4.98,0.72,6.45-2.41c7.43-15.84,13.42-32.1,15.84-49.57c0.54-3.9-0.86-5.43-4.07-6.76
		c-12.92-5.33-25.73-10.92-38.66-16.2c-3.13-1.28-4.45-2.61-4.73-6.43c-0.99-13.26-2.55-26.49-4.44-39.66
		c-0.48-3.36,0.58-4.67,2.95-6.23c13.19-8.69,26.31-17.47,39.79-26.44c-6.84-19.21-15.57-37.03-28.06-53.42
		c-16.15,6.72-32.21,13.4-47.56,19.8c-12.94-10.73-25.47-21.13-38.88-32.25c2.38-11.85,5.21-25.49,7.82-39.17
		c2.14-11.23,3.75-9.75-7.53-14.49c-1.08-0.45-1.99-1.29-2.98-1.95c-10.09-3.04-20.18-6.07-30.27-9.11
		c-2.36-0.27-4.83-0.17-7.05-0.87c-5.78-1.83-9.03-0.52-11.33,5.67c-4.8,12.89-10.4,25.49-15.98,38.07
		c-0.73,1.65-3.13,3.37-4.94,3.6c-11.81,1.49-23.77,1.97-35.46,4.07c-5.72,1.03-8.12-0.53-10.94-4.99
		c-8-12.64-16.52-24.95-25.67-38.64c-18.1,9.5-35.75,18.77-53.6,28.15c1.4,3.56,2.18,5.62,3.02,7.65
		c5.22,12.52,10.32,25.1,15.76,37.53c1.54,3.53,0.76,5.51-1.66,8.38c-8.3,9.87-15.97,20.26-24.2,30.19
		c-1.28,1.54-4.43,2.62-6.44,2.27c-10.96-1.9-21.82-4.42-32.75-6.54c-8.84-1.72-12.13-2.33-14.93,0.56L860.93,169.95z
		 M940.19,168.71c8.2-32.26,28.47-59.4,57.08-76.42c28.61-17.02,62.13-21.87,94.4-13.67c32.26,8.2,59.4,28.47,76.42,57.08
		c17.02,28.61,21.87,62.13,13.67,94.4c-8.2,32.26-28.47,59.4-57.08,76.42c-28.61,17.02-62.13,21.87-94.4,13.67
		c-32.26-8.2-59.4-28.47-76.42-57.08C936.85,234.5,932,200.98,940.19,168.71z"/>
</g>
<path style="fill:#F72585;" d="M180.94,336.5c1.86,1.45,3.96,0.69,9.2-1.14c9.37-3.27,18.74-6.54,28.22-9.49
	c1.49-0.46,4.03,0.29,5.23,1.4c7.11,6.61,13.83,13.66,21.01,20.2c2.23,2.03,3.05,3.42,2.12,6.45c-3.7,12.13-7.06,24.35-10.51,36.41
	c9.35,6.79,35.91,17.27,45.89,17.99c5.35-10.83,10.99-21.81,16.18-33c1.62-3.48,3.17-4.42,7.2-4.22c9.35,0.46,18.78,0.07,28.14-0.51
	c3.79-0.23,6.19,0.08,8.17,3.86c5.13,9.8,10.85,19.28,16.14,28.99c1.42,2.61,3.03,3.62,5.78,2.42
	c12.93-5.67,25.86-11.36,38.79-17.04c3.18-1.4,1.78-3.79,1.13-5.81c-3.3-10.22-6.55-20.46-10.19-30.56c-1.37-3.79-0.71-6,2.3-8.77
	c7.95-7.33,15.43-15.19,23.68-23.42c12.04,3.39,25.33,7.14,38.99,10.99c8.45-14.18,14.04-29.3,17.42-45.81
	c-12.33-6.15-24.66-12.31-35.53-17.73c-0.58-12.91-0.86-24.87-1.83-36.79c-0.28-3.45,0.63-4.84,3.39-6.34
	c9.58-5.2,19-10.7,28.54-15.97c2.06-1.14,3.4-2.18,2.64-4.85c-3.82-13.53-8.72-26.55-16.44-38.43c-1.72-2.65-3.38-2.85-6.02-1.97
	c-10.65,3.55-21.36,6.9-31.99,10.49c-2.58,0.87-4.07,0.75-6.25-1.42c-7.57-7.53-15.47-14.75-23.55-21.75
	c-2.06-1.79-2.1-3.14-1.48-5.33c3.44-12.21,6.79-24.44,10.26-36.98c-14.25-8.07-28.92-14.3-45.13-17.69
	c-6.28,12.57-12.51,25.07-18.48,37.02c-13.5,0.29-26.57,0.56-40.56,0.86c-4.79-8.45-10.24-18.22-15.85-27.9
	c-4.6-7.94-2.85-7.89-12.19-4.84c-0.89,0.29-1.89,0.26-2.84,0.38c-7.72,3.46-15.44,6.92-23.17,10.38c-1.57,1.08-3.02,2.44-4.74,3.18
	c-4.47,1.93-5.75,4.43-3.9,9.4c3.86,10.35,7.08,20.94,10.31,31.52c0.42,1.38-0.13,3.69-1.11,4.78c-6.38,7.11-13.4,13.69-19.39,21.11
	c-2.93,3.63-5.21,3.95-9.27,2.72c-11.5-3.47-23.15-6.47-35.9-9.97c-5.99,15.28-11.84,30.19-17.75,45.27
	c2.72,1.42,4.27,2.27,5.86,3.06c9.75,4.86,19.46,9.82,29.29,14.51c2.79,1.33,3.36,2.95,3.4,5.96c0.15,10.35,0.96,20.7,1.17,31.05
	c0.03,1.61-1.31,3.92-2.71,4.76c-7.66,4.61-15.57,8.79-23.32,13.25c-6.27,3.6-8.59,4.97-8.77,8.19L180.94,336.5z M228.43,294.08
	c-11.98-23.9-13.94-51.04-5.51-76.41c8.43-25.37,26.23-45.94,50.13-57.93c23.9-11.98,51.04-13.94,76.41-5.51
	c25.37,8.43,45.94,26.23,57.93,50.13c11.98,23.9,13.94,51.04,5.51,76.41c-8.43,25.37-26.23,45.94-50.13,57.93
	c-23.9,11.98-51.04,13.94-76.41,5.51C260.98,335.79,240.41,317.98,228.43,294.08z"/>
<path style="fill:#F7CC7F;" d="M296.84,62.39l3.81-6.99l-3.58-7.11c-0.41-0.81,0.29-1.74,1.18-1.57l7.8,1.47l5.63-5.61
	c0.64-0.64,1.74-0.26,1.85,0.64l1.02,7.9l7.06,3.64c0.8,0.41,0.79,1.57-0.03,1.96l-7.18,3.41l-1.27,7.86
	c-0.14,0.9-1.25,1.24-1.87,0.58l-5.45-5.79L297.97,64C297.07,64.14,296.41,63.19,296.84,62.39z"/>
<path style="fill:#07345A;" d="M712.27,95.51l3.25-5.28l-2.61-1.06c-0.57-0.23-0.85-0.88-0.61-1.45l0,0
	c0.23-0.57,0.88-0.85,1.45-0.61l3.01,1.22l2.91-4.74l-2.79-1.13c-0.57-0.23-0.85-0.88-0.61-1.45l0,0c0.23-0.57,0.88-0.85,1.45-0.61
	l3.19,1.29l3.37-5.43c0.29-0.46,0.86-0.65,1.37-0.45l0.49,0.2c0.64,0.26,0.89,1.03,0.53,1.62l-3.14,5.12l4.62,1.87l3.37-5.43
	c0.29-0.46,0.86-0.65,1.37-0.45l0.53,0.22c0.64,0.26,0.89,1.03,0.53,1.62l-3.14,5.12l2.61,1.06c0.57,0.23,0.85,0.88,0.61,1.45l0,0
	c-0.23,0.57-0.88,0.85-1.45,0.61l-3.01-1.22l-2.86,4.76l2.79,1.13c0.57,0.23,0.85,0.88,0.61,1.45l0,0
	c-0.23,0.57-0.88,0.85-1.45,0.61l-3.19-1.29l-3.45,5.6c-0.29,0.46-0.86,0.65-1.37,0.45l-0.57-0.23c-0.64-0.26-0.89-1.03-0.53-1.62
	l3.25-5.28l-4.62-1.87l-3.45,5.6c-0.29,0.46-0.86,0.65-1.37,0.45l-0.57-0.23C712.16,96.87,711.91,96.1,712.27,95.51z M724.05,91.28
	l2.91-4.74l-4.62-1.87l-2.91,4.74L724.05,91.28z"/>
<path style="fill:#023047;" d="M691.41,187.43l-4.4,23.39c0.37,1.19,1.51,1.49,4.34,2.28c5.05,1.41,10.11,2.81,15.1,4.39
	c0.79,0.25,1.66,1.34,1.85,2.18c1.09,5.01,1.88,10.1,3.03,15.1c0.35,1.55,0.29,2.4-1.03,3.44c-5.26,4.15-10.41,8.44-15.54,12.63
	c2.01,5.77,10.38,18.32,14.49,21.64c5.59-3.09,11.34-6.15,16.97-9.44c1.75-1.02,2.71-0.96,4.4,0.34c3.92,3.02,8.13,5.69,12.36,8.26
	c1.72,1.04,2.66,1.9,2.38,4.14c-0.73,5.8-1.11,11.64-1.74,17.45c-0.17,1.56,0.22,2.48,1.78,2.79c7.32,1.44,14.65,2.87,21.97,4.3
	c1.8,0.35,1.92-1.11,2.24-2.18c1.65-5.43,3.33-10.85,4.79-16.33c0.55-2.06,1.5-2.82,3.64-3.11c5.66-0.78,11.27-1.94,17.34-3.02
	c4.2,5.1,8.84,10.73,13.6,16.52c7.94-3.61,14.92-8.48,21.37-14.63c-3.49-6.39-6.99-12.77-10.07-18.4
	c3.64-5.78,7.13-11.05,10.3-16.51c0.92-1.58,1.73-1.91,3.38-1.73c5.72,0.63,11.47,1.08,17.2,1.68c1.24,0.13,2.13,0.08,2.61-1.31
	c2.42-7.02,4.22-14.15,4.45-21.63c0.05-1.67-0.61-2.25-2.02-2.67c-5.69-1.67-11.35-3.45-17.04-5.09c-1.38-0.4-1.99-0.9-2.29-2.5
	c-1.01-5.55-2.27-11.06-3.66-16.53c-0.36-1.4,0.04-2,0.96-2.76c5.17-4.26,10.32-8.56,15.6-12.95c-3.75-7.8-8.24-14.93-14.25-21.28
	c-6.51,3.56-12.99,7.11-19.18,10.49c-5.94-3.95-11.7-7.77-17.86-11.86c0.47-5.11,1.05-10.99,1.53-16.88
	c0.4-4.83,1.14-4.28-3.83-5.77c-0.47-0.14-0.9-0.46-1.34-0.69c-4.39-0.83-8.79-1.65-13.18-2.48c-1.01-0.01-2.05,0.15-3.02-0.05
	c-2.52-0.51-3.83,0.19-4.53,2.9c-1.44,5.66-3.24,11.22-5.03,16.78c-0.23,0.73-1.17,1.56-1.92,1.74c-4.91,1.16-9.94,1.9-14.78,3.32
	c-2.37,0.69-3.45,0.14-4.84-1.61c-3.94-4.97-8.09-9.78-12.57-15.15c-7.21,4.82-14.24,9.53-21.35,14.29
	c0.75,1.44,1.17,2.27,1.62,3.09c2.76,5.05,5.48,10.13,8.34,15.13c0.81,1.42,0.57,2.29-0.32,3.61c-3.06,4.54-5.83,9.27-8.85,13.83
	c-0.47,0.71-1.75,1.31-2.61,1.25c-4.71-0.31-9.41-0.88-14.11-1.28C693.88,186.19,692.47,186.08,691.41,187.43z M734.9,207.12
	c3.93-20.91,24.07-34.67,44.98-30.73l0,0c20.91,3.93,34.67,24.07,30.73,44.98v0c-3.93,20.91-24.07,34.67-44.98,30.73l0,0
	C744.72,248.16,730.96,228.02,734.9,207.12L734.9,207.12z"/>
<polygon style="fill:#355389;" points="538.48,59.21 552.33,60.88 546.42,50.13 "/>
<g>
	<path style="fill:#F47458;" d="M589.35,178.57c-0.43,4.68,3.59,8.96,8.05,9.74c4.62,0.81,8.74-2.2,10.33-6.46
		c3.14-8.4-6.05-15.03-11.04-9.94c-4.65,4.74-3.18,11.79,1.84,11.8c1.89,0,4.94-1.59,3.73-3.89c-0.27-0.51-1.03-0.48-1.31,0
		c-0.61,1.04-0.56,1.08-0.85,1.31c-0.45,0.36-1.08,0.48-1.65,0.48c-5.11-0.09-1.71-11.79,4.32-8.96c3.31,1.56,4.29,5.32,3.14,8.61
		c-1.11,3.16-4.07,5.62-7.51,5.4c-4.1-0.26-7.54-4.03-7.8-8.07C590.55,177.76,589.43,177.77,589.35,178.57L589.35,178.57z"/>
</g>
<g>
	<g>
		<path style="fill:#50BFA5;" d="M842.33,5.24l4.14,1.78c0,0,6.91-1.54,7.69-2.84c0.77-1.3,1.22-4.58,2.19-4.58
			c0.97,0,2.8,0.48,3.06,2.78c0.19,1.67-2.61,6.18-2.28,6.72c0.21,0.34,2.56,1.43,4.29,2.19c1.14,0.5,1.9,1.6,1.98,2.85l0,0
			c0.06,0.84-0.48,1.61-1.29,1.84l-1.26,0.36l0.29,1.29c0.22,0.96-0.38,1.91-1.33,2.13l-0.97,0.23l0.24,0.79
			c0.31,1.02-0.33,2.08-1.37,2.28l-0.85,0.16l0.02,0.22c0.07,0.92-0.58,1.75-1.49,1.89l-0.84,0.14l-11.03-4.74
			c-1.03-0.44-1.96-1.09-2.74-1.91l-3.6-2.31c-0.39-0.25-0.54-0.74-0.35-1.16l4.28-9.61C841.32,5.25,841.86,5.04,842.33,5.24z"/>
	</g>
</g>
<path style="fill:#5184CE;" d="M725.94,202.54H651.1c-7.66,0-13.87,6.21-13.87,13.87v24.52c0,7.66,6.21,13.87,13.87,13.87h74.83
	c7.66,0,13.87-6.21,13.87-13.87v-24.52C739.81,208.75,733.6,202.54,725.94,202.54z"/>
<polygon style="fill:#466EB6;" points="626.8,717.64 547.54,754.17 547.54,762.27 829.81,762.27 829.81,754.17 749.84,717.64 "/>
<rect x="626.8" y="561.05" style="fill:#466EB6;" width="123.09" height="156.65"/>
<path style="fill:#466EB6;" d="M1060.8,610.2V256.94c0-16.78-13.61-30.39-30.39-30.39H345.48c-16.78,0-30.39,13.61-30.39,30.39
	V610.2H1060.8z"/>
<rect x="547.54" y="754.17" style="opacity:0.3;fill:#184655;" width="282.27" height="8.09"/>
<rect x="626.8" y="699.26" style="opacity:0.3;fill:#184655;" width="123.04" height="18.38"/>
<path style="fill:#5184CE;" d="M315.09,610.2v56.61c0,11.77,7.78,21.32,17.38,21.32h710.94c9.6,0,17.38-9.55,17.38-21.32V610.2
	H315.09z"/>
<path style="fill:#184655;" d="M696.04,216.42c0,3.82-3.1,6.92-6.92,6.92c-3.82,0-6.92-3.1-6.92-6.92s3.1-6.92,6.92-6.92
	C692.94,209.5,696.04,212.6,696.04,216.42z"/>
<path style="fill:#CCE6FF;" d="M1043.34,594.86V257.89c0-8.83-7.42-15.99-16.57-15.99H349.11c-9.15,0-16.57,7.16-16.57,15.99v336.97
	H1043.34z"/>
<rect x="363.76" y="269.09" style="fill:#E9FFFF;" width="427.22" height="298.11"/>
<rect x="363.76" y="269.09" style="fill:#5184CE;" width="427.22" height="34.9"/>
<rect x="943.02" y="343.68" style="opacity:0.6;fill:#9BC1F9;" width="29.16" height="225.72"/>
<rect x="902.3" y="412.53" style="opacity:0.6;fill:#9BC1F9;" width="29.16" height="156.87"/>
<rect x="984.33" y="392.58" style="opacity:0.6;fill:#9BC1F9;" width="29.16" height="176.82"/>
<rect x="861.57" y="385.63" style="opacity:0.6;fill:#9BC1F9;" width="29.16" height="183.77"/>
<rect x="820.84" y="440.11" style="opacity:0.6;fill:#9BC1F9;" width="29.16" height="129.28"/>
<g>
	<rect x="943.02" y="395.7" style="opacity:0.3;fill:#9BC1F9;" width="29.16" height="173.7"/>
	<rect x="902.3" y="448.68" style="opacity:0.3;fill:#9BC1F9;" width="29.16" height="120.72"/>
	<rect x="984.33" y="433.33" style="opacity:0.3;fill:#9BC1F9;" width="29.16" height="136.06"/>
	<rect x="861.57" y="427.98" style="opacity:0.3;fill:#9BC1F9;" width="29.16" height="141.42"/>
	<rect x="820.84" y="469.91" style="opacity:0.3;fill:#9BC1F9;" width="29.16" height="99.49"/>
</g>
<rect x="378.5" y="318.37" style="opacity:0.6;fill:#9BC1F9;" width="394.33" height="50.61"/>
<rect x="519.02" y="383.36" style="opacity:0.6;fill:#9BC1F9;" width="253.8" height="12.97"/>
<rect x="378.5" y="383.36" style="fill:#5184CE;" width="124.86" height="149.7"/>
<rect x="519.02" y="410.7" style="opacity:0.6;fill:#9BC1F9;" width="253.8" height="12.97"/>
<rect x="519.02" y="492.74" style="opacity:0.6;fill:#9BC1F9;" width="253.8" height="12.97"/>
<rect x="519.02" y="520.09" style="opacity:0.6;fill:#9BC1F9;" width="253.8" height="12.97"/>
<path style="fill:#F7CC7F;" d="M200.26,437.04l237.05-0.43c3.56-0.01,6.45,2.87,6.46,6.43l0.56,312.36
	c0.01,3.56-2.87,6.45-6.43,6.46l-237.05,0.43c-3.56,0.01-6.45-2.87-6.46-6.43l-0.56-312.36
	C193.82,439.94,196.7,437.05,200.26,437.04z"/>
<rect x="207.11" y="445.9" transform="matrix(1 -1.801077e-03 1.801077e-03 1 -1.0775 0.5756)" style="fill:#FFFFFF;" width="223.92" height="305.31"/>
<path style="fill:#13375B;" d="M367.32,432.43c0-1.37-1.12-2.48-2.49-2.48l-94.02,0.17c-1.37,0-2.48,1.12-2.48,2.49l0.02,9.77
	l98.99-0.18L367.32,432.43z"/>
<path style="fill:#13375B;" d="M317.8,418.15c-8.19,0.01-14.82,6.67-14.8,14.85c0.01,8.19,6.67,14.82,14.85,14.8
	c8.19-0.01,14.82-6.67,14.8-14.86C332.64,424.76,325.99,418.13,317.8,418.15z M317.84,442.49c-5.25,0.01-9.52-4.24-9.53-9.49
	c-0.01-5.25,4.24-9.52,9.49-9.53c5.25-0.01,9.52,4.24,9.53,9.49C327.34,438.21,323.09,442.48,317.84,442.49z"/>
<g>
	<path style="fill:#355389;" d="M365.8,430.14c0.89,0.38,1.52,1.26,1.52,2.29l0.02,9.77l-98.99,0.18
		c0.01,6.77,5.51,12.25,12.28,12.24l74.48-0.13c6.77-0.01,12.25-5.51,12.24-12.28l-0.02-9.77
		C367.32,431.4,366.69,430.51,365.8,430.14z"/>
	<path style="fill:#9BC1F9;" d="M270.81,430.11L270.81,430.11c-0.86,0-1.61,0.44-2.06,1.1
		C269.19,430.55,269.95,430.12,270.81,430.11z"/>
	<path style="fill:#9BC1F9;" d="M268.44,431.87c0.05-0.16,0.11-0.31,0.19-0.45C268.55,431.56,268.48,431.71,268.44,431.87z"/>
</g>
<g>
	<path style="fill:#184655;" d="M405.08,535.76l-31.83,0.06l-0.06-31.83l31.83-0.06L405.08,535.76z M374.55,534.52l29.23-0.05
		l-0.05-29.23l-29.23,0.05L374.55,534.52z"/>
</g>
<g>
	<path style="fill:#184655;" d="M405.18,588.73l-31.83,0.06l-0.06-31.83l31.83-0.06L405.18,588.73z M374.64,587.48l29.23-0.05
		l-0.05-29.23l-29.23,0.05L374.64,587.48z"/>
</g>
<g>
	<path style="fill:#184655;" d="M405.27,641.7l-31.83,0.06l-0.06-31.83l31.83-0.06L405.27,641.7z M374.74,640.45l29.23-0.05
		l-0.05-29.23l-29.23,0.05L374.74,640.45z"/>
</g>
<g>
	<path style="fill:#184655;" d="M405.37,694.66l-31.83,0.06l-0.06-31.83l31.83-0.06L405.37,694.66z M374.83,693.42l29.23-0.05
		l-0.05-29.23l-29.23,0.05L374.83,693.42z"/>
</g>
<rect x="223.63" y="504.79" transform="matrix(1 -1.802517e-03 1.802517e-03 1 -0.9135 0.5267)" style="fill:#9BC1F9;" width="136.23" height="4.58"/>
<rect x="223.65" y="517.76" transform="matrix(1 -1.802517e-03 1.802517e-03 1 -0.9369 0.5268)" style="fill:#9BC1F9;" width="136.23" height="4.58"/>
<rect x="223.68" y="530.74" transform="matrix(1 -1.802517e-03 1.802517e-03 1 -0.9603 0.5268)" style="fill:#9BC1F9;" width="136.23" height="4.58"/>
<rect x="223.73" y="559.56" transform="matrix(1 -1.799404e-03 1.799404e-03 1 -1.0105 0.5261)" style="fill:#9BC1F9;" width="136.23" height="4.58"/>
<rect x="223.75" y="572.54" transform="matrix(1 -1.799715e-03 1.799715e-03 1 -1.0341 0.5262)" style="fill:#9BC1F9;" width="136.23" height="4.58"/>
<rect x="223.78" y="585.51" transform="matrix(1 -1.799404e-03 1.799404e-03 1 -1.0572 0.5262)" style="fill:#9BC1F9;" width="136.23" height="4.58"/>
<rect x="223.82" y="611.46" transform="matrix(1 -1.799404e-03 1.799404e-03 1 -1.1039 0.5263)" style="fill:#9BC1F9;" width="136.23" height="4.58"/>
<rect x="223.85" y="624.44" transform="matrix(1 -1.799404e-03 1.799404e-03 1 -1.1273 0.5264)" style="fill:#9BC1F9;" width="136.23" height="4.58"/>
<rect x="223.87" y="637.41" transform="matrix(1 -1.799401e-03 1.799401e-03 1 -1.1506 0.5264)" style="fill:#9BC1F9;" width="136.23" height="4.58"/>
<rect x="223.92" y="663.36" transform="matrix(1 -1.799716e-03 1.799716e-03 1 -1.1975 0.5267)" style="fill:#9BC1F9;" width="136.23" height="4.58"/>
<rect x="223.94" y="676.33" transform="matrix(1 -1.799404e-03 1.799404e-03 1 -1.2206 0.5266)" style="fill:#9BC1F9;" width="136.23" height="4.58"/>
<rect x="223.96" y="689.31" transform="matrix(1 -1.799715e-03 1.799715e-03 1 -1.2442 0.5268)" style="fill:#9BC1F9;" width="136.23" height="4.58"/>
<rect x="224.02" y="722.83" transform="matrix(1 -1.802306e-03 1.802306e-03 1 -1.3064 0.5466)" style="fill:#9BC1F9;" width="157.16" height="4.58"/>
<rect x="224.04" y="733.91" transform="matrix(1 -1.802457e-03 1.802457e-03 1 -1.3265 0.5746)" style="fill:#9BC1F9;" width="188.16" height="4.58"/>
<g>
	<polygon style="fill:#F47458;" points="389.01,530.56 379.12,513.6 382.66,511.54 388.4,521.38 397.77,498.91 401.54,500.49 	"/>
</g>
<g>
	<polygon style="fill:#F47458;" points="389.11,584.22 379.22,567.26 382.76,565.2 388.5,575.04 397.86,552.57 401.64,554.15 	"/>
</g>
<g>
	<polygon style="fill:#F47458;" points="389.29,689.13 379.41,672.17 382.95,670.11 388.68,679.96 398.05,657.48 401.83,659.06 	"/>
</g>
<polygon style="fill:#F47458;" points="400.31,617.78 397.46,614.9 389.32,622.96 381.16,614.93 378.32,617.82 386.45,625.82 
	378.35,633.84 381.2,636.72 389.33,628.66 397.5,636.69 400.34,633.8 392.21,625.8 "/>
<path style="opacity:0.3;fill:#9BC1F9;" d="M229.9,648.99c-7.92,0.01-15.6,1.59-22.69,4.58l0.01,7.46
	c6.85-3.36,14.55-5.26,22.69-5.27c28.62-0.05,51.94,23.19,51.99,51.8c0.03,18.34-9.5,34.5-23.87,43.76l11.17-0.02
	c0.8-0.72,1.59-1.47,2.36-2.24c11.06-11.1,17.14-25.84,17.11-41.51c-0.03-15.67-6.16-30.39-17.26-41.45
	C260.31,655.04,245.57,648.96,229.9,648.99z"/>
<path style="opacity:0.3;fill:#9BC1F9;" d="M229.93,664.9c-8.33,0.01-16.11,2.43-22.69,6.58l0.01,4.06
	c6.41-4.56,14.24-7.24,22.68-7.26c21.71-0.04,39.41,17.59,39.45,39.31c0.04,21.71-17.59,39.41-39.31,39.45
	c-8.45,0.02-16.28-2.64-22.71-7.18l0.01,4.06c6.59,4.13,14.38,6.51,22.71,6.5c23.58-0.04,42.73-19.26,42.68-42.84
	C272.72,684,253.51,664.85,229.93,664.9z"/>
<g>
	<g>
		<g>
			<path style="fill:#50BFA5;" d="M610.36,79.12l-4.32,16.85l13.23-7.43l39.5-14.57l-29.11-0.81c0,0-15.1,1.81-15.98,2.43
				C612.8,76.23,610.36,79.12,610.36,79.12z"/>
			<polygon style="fill:#96D9C9;" points="598.85,67.25 658.77,73.98 610.36,79.12 			"/>
			<polygon style="fill:#96D9C9;" points="627.55,98.65 613.37,84.17 658.77,73.98 			"/>
		</g>
		<g>
			<g>
				<path style="fill:#9BC1F9;" d="M519.55,130.69c0.34-1.34,0.77-2.69,1.26-4c0.46-1.21,0.98-2.42,1.56-3.59l1.27,0.63
					c-0.56,1.13-1.07,2.3-1.51,3.46c-0.48,1.26-0.89,2.56-1.22,3.85c-0.1,0.38-0.19,0.76-0.27,1.14l-1.39-0.31
					C519.36,131.48,519.45,131.08,519.55,130.69z M527.37,115.26c1.85-2.35,4-4.61,6.37-6.74l0.95,1.06
					c-2.32,2.07-4.4,4.28-6.21,6.56L527.37,115.26z M572.42,117.79c-0.08-0.06-0.15-0.12-0.22-0.19l0.92-1.08
					c0.06,0.06,0.13,0.11,0.19,0.16c0,0,0.04,0.02,0.14,0.06c0.74,0.28,2.76,0.52,3.97-0.02c1.02-0.45,1.89-1.23,2.59-2.31
					l1.19,0.77c-0.84,1.3-1.95,2.28-3.21,2.84c-1.68,0.75-4.12,0.4-5.05,0.05C572.72,117.99,572.55,117.9,572.42,117.79z
					 M541.08,102.87c2.52-1.67,5.22-3.23,8.02-4.62l0.63,1.27c-2.75,1.36-5.39,2.88-7.86,4.53L541.08,102.87z M568.1,106.12
					c0.16-1.35,0.5-2.73,1.01-4.08c0.27-0.73,0.6-1.46,0.98-2.18l1.26,0.65c-0.35,0.67-0.66,1.36-0.91,2.03
					c-0.47,1.25-0.78,2.5-0.93,3.74c-0.1,0.88-0.12,1.78-0.04,2.67l-1.41,0.12C567.97,108.09,567.99,107.09,568.1,106.12z
					 M575.73,99.75l-0.17-0.11l0.75-1.2l0.18,0.12c2.74,1.76,4.86,4.38,5.82,7.21l-1.34,0.46
					C580.12,103.69,578.21,101.34,575.73,99.75z M558.09,95.7c1.62-0.29,4.57-0.76,6.08-0.66c1.17,0.08,2.24,0.2,3.27,0.35
					l-0.21,1.4c-0.99-0.15-2.02-0.26-3.16-0.34c-0.99-0.07-3.08,0.16-5.72,0.64L558.09,95.7z M575.86,92.48
					c2.29-2.12,4.89-3.88,7.73-5.25l0.62,1.28c-2.71,1.31-5.19,3-7.38,5.02L575.86,92.48z"/>
			</g>
			<g>
				<path style="fill:#9BC1F9;" d="M592.72,85.86c1.53-0.23,3.06-0.33,4.55-0.31l0.03-1.42c-1.57-0.03-3.18,0.08-4.79,0.32
					L592.72,85.86z"/>
			</g>
		</g>
	</g>
	<g>
		<path style="fill:#A34B3D;" d="M487.07,106.99c0.85,0.04,3.2,0.82,6.62,7.29c4.38,8.27,10.77,33.24,10.77,33.24l-19.09,7.11
			l-2.45-5.21l-4.04-40.13C478.89,109.28,486.84,106.98,487.07,106.99z"/>
		<path style="fill:#B75742;" d="M461.84,103.39c5.46,0.01,18.96,1.6,25.23,3.6c0,0,4.6,39.58-4.15,69.65
			c-1.96,6.73,1.62,27.91,1.62,27.91l-56.56-0.75c0,0,6.7-51.19,4.18-59.46c-2.52-8.27-2.58-37.08-2.58-37.08s0.39-0.06,12.71-2.19
			C448.04,104.07,456.02,103.38,461.84,103.39z"/>
		<path style="fill:#F7A491;" d="M455.25,277.99c0,0,1.25,14.44,3.55,18.44c2.3,4-0.12,10.8-0.24,11.73
			c-0.12,0.93-4.84,2.27-12.35,1.47c-7.51-0.8-7.39-2.53-6.78-5.33c0.61-2.8,4.6-6.4,4.84-9.06c0.24-2.67-2.3-12.26-2.3-12.26
			L455.25,277.99z"/>
		<path style="fill:#E0973F;" d="M478.17,192.62c0,0,39.04-2.17,47.76,3.11c8.72,5.28-6.19,31.19-6.19,31.19s-27.17-1.25-80.38,1.82
			c-12.6,0.73-13.69-32.85-11.33-35.63C430.38,190.33,478.17,192.62,478.17,192.62z"/>
		<path style="fill:#DD513A;" d="M445.28,310.75c-7.73-0.82-6.77-4.62-6.15-7.5c0.39-1.8,2.61-3.93,3.93-5.95
			c0.69,0.55,1.82,1.52,5.17,2.51c3.49,1.03,8.26-1.01,11.31-2.28c1.09,4.04,1.13,9.19,1.03,9.97
			C460.45,308.46,453.01,311.57,445.28,310.75z"/>
		<path style="fill:#F7CC7F;" d="M449.54,220.55c1.56,11.8,9.28,70.56,9.28,70.56l-17.92,2.22c0,0-22.04-76.69-20.91-88.42
			c1.13-11.73,9.38-12.72,9.38-12.72S445.42,189.31,449.54,220.55z"/>
		<path style="fill:#F7A491;" d="M428.97,111.65c5.29-1.98,7.87,45.66,8.59,65.27c9.36,0.9,25.69,0.01,29.75-0.3
			c1.91-0.14,6.32-1.76,8.22-2.01c1.95-0.26,3.71-0.39,4.67-0.22c0.35,0.06,10.11,4.05,10.95,4.93c1.04,1.09,3.83,3.82,3.36,5.01
			c-0.47,1.18-5.38-3.3-5.38-3.3l-2.4-1.35c2.99,2.92,8.69,6.76,7.87,8.16c-0.8,1.37-5.94-2.54-9.61-5.2
			c3.14,2.84,7.05,7.92,6.15,8.71c-0.81,0.71-5.25-5.17-10-6.86c-1.76-0.63-3.51,1.11-4.9,1.32c-1.02,0.15-2.59,0.48-3.58,0.2
			l-5.14-1.46c-1.75,0.16-1.79,1.19-3.56,1.57c-2.05,0.44-5.42,0.9-8.03,1.54c-15.05,3.68-20.07,5.39-24.68,5.38
			C417.28,193.05,416.47,116.34,428.97,111.65z"/>
		<path style="fill:#A34B3D;" d="M418.93,156.38c-0.99-20.09-0.85-44.85,10.41-49.07c4.44-1.67,12.28,8.36,10.87,49.48
			C434.2,157.29,425.38,157.69,418.93,156.38z"/>
		<path style="fill:#F7A491;" d="M509.52,292c0,0-2.59,4.57-0.55,8.4c2.04,3.83,12.72,9.47,13.83,11.55
			c1.11,2.08,0.68,3.55,0.68,3.55l-31.72-7.78l2.43-9.56l2.97-6.61L509.52,292z"/>
		<path style="fill:#DD513A;" d="M510.61,302.44c0,0-8.92,1.54-12.45-1.28c-3.54-2.82-3.3-3.34-4.6-2.85
			c-0.84,0.31-2.11,4.12-2.92,6.8c-0.43,1.43,0.43,2.92,1.88,3.28l33.03,8.16c2.51,0.48,4.17-1.08,2.48-3.1
			c-1.16-1.38-2.61-2.45-3.41-3.17C522.15,308.07,510.61,302.44,510.61,302.44z"/>
		<path style="fill:#F7CC7F;" d="M506.42,201.88c2.52-5.31,8.26-12.23,18.36-8.06c9.63,3.97,12.22,13.73,9.18,23.73
			c-3.04,10-23.05,68.76-23.74,76.84l-15.97,0.11c0,0,2.9-46.53,3.62-57.78C498.54,225.89,502.05,211.07,506.42,201.88z"/>
		<path style="fill:#184655;" d="M532.35,147.75h-53.4c-1.41,0-2.69,0.86-3.22,2.17l-16.44,40.24h-29.44
			c-0.82,0-1.49,0.67-1.49,1.49l0,0c0,0.83,0.67,1.49,1.49,1.49h83.78c2.3,0,4.39-1.36,5.34-3.47l16.56-37
			C536.56,150.36,534.87,147.75,532.35,147.75z"/>
		<path style="fill:#FFFFFF;" d="M503.6,171.18c-0.36,1.81-1.93,3.02-3.51,2.7c-1.58-0.32-2.56-2.04-2.2-3.85
			c0.36-1.81,1.93-3.02,3.51-2.7C502.97,167.65,503.96,169.37,503.6,171.18z"/>
		<g>
			<path style="fill:#0E2E35;" d="M474.53,55.05c-1.61-0.54-3.19-1.15-4.72-1.89c-1.73-0.83-3.97-1.81-5.39-2.03
				c-2.98-0.46-8.1-0.15-10.93,2.91c-3.52,3.82-9.78,0.69-8.52,20.7C446.4,97.39,459,94.91,459.3,94.52
				c0.31-0.38,11.23-14.49,11.23-14.49s3.82,8.36,3.82,8.05C474.36,87.79,493.86,61.56,474.53,55.05z"/>
			<path style="fill:#F7A491;" d="M464.97,96.2l1.09,8.09c0,0,2.44,11.66-0.7,13.91c-3.13,2.25-13.32-14.24-13.32-14.24l1.08-20.51
				L464.97,96.2z"/>
			<path style="fill:#F47458;" d="M452.77,90.1c2.59,6.99,8.75,11.29,13.13,12.96l-0.92-6.86l-11.86-12.75L452.77,90.1z"/>
			<path style="fill:#F7A491;" d="M464.33,61.13c6.64-1.07,12.59,4.27,12.43,10.91c-0.07,2.89-0.31,6.5-0.91,10.38
				c-1.44,9.34-7.82,17.57-12.03,16.84c-4.21-0.73-14.82-8.79-12.95-22.09C452.02,68.97,457.36,62.26,464.33,61.13z"/>
			<path style="fill:#F7A491;" d="M453.79,78.76c-0.36,2.05-2,3.48-3.68,3.19c-1.67-0.29-2.74-2.19-2.39-4.25
				c0.36-2.05,2-3.48,3.68-3.19C453.07,74.8,454.14,76.71,453.79,78.76z"/>
			<path style="fill:#0E2E35;" d="M451.4,74.51c0,0,5.1,1.27,6.99-2.01c1.89-3.28,8.65-10.35,17.25-7.42
				c8.6,2.93-7.56-7.13-8.25-7.13c-0.69,0-8.94-0.06-8.94-0.06s-6.36,5.23-6.59,5.81c-0.23,0.58-2.06,6.84-2.06,6.84L451.4,74.51z"
				/>
		</g>
		<path style="fill:#FFFFFF;" d="M460.72,88.19l9.27,1.77c0,0-0.88,3.49-4.98,2.83C460.01,91.99,460.72,88.19,460.72,88.19z"/>
	</g>
</g>
<g>
	<path style="fill:#F7A491;" d="M568.59,726.61c0,0-1.7,11.84-4.62,15.66c-0.98,1.28-2.77,2.9-3.95,5.22
		c-1.83,3.61-0.82,8.98,0.53,11.94c0.69,1.52-0.05,1.51,1.53,2c4.67,1.45,9.64-0.99,11.63-5.49c1.11-2.51,2.09-5.86,2.28-10.09
		c0.5-10.75,3.82-16.21,3.82-16.21L568.59,726.61z"/>
	<path style="fill:#F7A491;" d="M619.67,732.03c0,0,1.05,13.35,0.2,17.69c-0.46,2.32-2.99,7.1-1.83,9.29
		c1.16,2.19,2.49,2.73,2.49,2.73l30.15,0.49c1.64,0.03,0.56-1.04-0.77-2.02c-2.17-1.6-3.92-2.66-10.84-6.03
		c-0.45-0.22-2.1-1.27-2.69-1.64c-1.5-0.92-3.01-2.38-4.31-3.83c-2.16-2.42-2.35-14.18-2.35-14.18L619.67,732.03z"/>
	<path style="fill:#E25A44;" d="M643.24,554.59c0,0,3.8,21.67,1.3,35.88c-2.49,14.21-14.46,145.92-14.46,145.92l-13.3,0.75
		c0,0-2.79-55.02-2.29-62.67c0.5-7.65,4.44-20.46,4.44-20.46l-1.32-44.42l16.78-58.36L643.24,554.59z"/>
	<path style="fill:#F47458;" d="M604.16,550.03c0,0-10.47,15.85-12.96,28.96c-2.49,13.12,1.83,53.43-2.97,70.61
		c-2.6,9.3-12.43,23.67-13.93,35.7c-1.5,12.02-7.36,43.52-7.36,43.52l13.29,2.65l30.89-78.65l24.23-71.09l6.21-36.61L604.16,550.03z
		"/>
	<path style="fill:#F7CC7F;" d="M574.62,753.58c-7.24,1.33-12.06-2.93-14.57-6.12c-1.84,3.61-2.74,9.01-1.39,11.98
		c1.19,2.61,4.68,2.54,7.42,2.64c2.9,0.11,5.15-1.51,6.59-4.05C573.35,756.83,574.04,755.35,574.62,753.58z"/>
	<path style="fill:#F7CC7F;" d="M636.38,752.54c-7.97,2.06-13.87,0.66-17.17-0.68c-0.85,2.42-1.98,5.46-1.38,7.22
		c0.73,2.15,1.77,2.63,2.7,2.66c7.28,0.19,26.68,0.45,32.23,0.53c0.78,0.01,1.2-0.9,0.7-1.5
		C652.09,759.11,636.98,752.91,636.38,752.54z"/>
	<path style="fill:#F38B80;" d="M690.96,517.15c0.55-1.18-5.3-2.79-5.49-4.06c-0.19-1.27,7.66-0.56,8.06-1.62
		c0.73-1.95-8.55-1.31-8.27-2.23c0.28-0.92,9.81-2.05,8.97-3.76c-0.84-1.71-9.76,2.2-9.91,1.08c-0.14-1.12,8.63-2.9,8.72-5.31
		c0.05-1.29-14.6,4.94-16.14,4.07c-1.54-0.86,2.42-6.53,1.24-7.56c-1.19-1.03-6.33,10.83-7.26,11.18
		c-0.93,0.34-21.03,6.42-27.87,7.43c-0.58-2.32-5.72-15.05-6.21-17.24c-4.01,2.27-9.13-0.46-13.24,1.56
		c2.07,7.29,6.71,31.31,8.57,32.4c5.65,3.29,35.38-12.41,40.29-15.19c4.92-2.78,7.43-1.45,10.63-2.16
		C686.26,515.04,690.4,518.33,690.96,517.15z"/>
	<path style="fill:#0E2E35;" d="M638.06,446.39c1.5-6.8,2.96-13.64-0.98-21.11c-3.19-6.04-8.7-9.52-15.09-10.28
		c-18.08-2.15-14.22,14.74-39.5,18.39c-7.85,1.14-15.15,2.23-21.71,6.13c-11.84,7.05-16.31,18.37-8.46,36.8
		c19.23,45.13,65.24,5.91,72.26-2.07C631.55,466.34,637.1,450.76,638.06,446.39z"/>
	<path style="fill:#F7CC7F;" d="M609.6,467.84c0,0-9.13,1.04-14.59,6.98c-5.46,5.94,8.83,53.7,9.82,61.26
		c0.99,7.56-9.5,28.49-9.5,28.49s35.66,7.09,44.93,0.97c0,0,0.81-58.45-0.18-63.85c-0.99-5.4-9.27-27.37-11.26-29.53
		C626.84,470,609.6,467.84,609.6,467.84z"/>
	<path style="fill:#F7A491;" d="M614.2,449.43c0,0-0.07,0.41-0.2,1.1c-0.62,3.31-2.99,14.3-4.59,17.32
		c-1.94,3.65,6.63,15.3,14.87,13.87c2.45-0.42-2.07-10.7-1.86-11.79c0.42-2.08,0.98-4.93,1.56-7.84c0.33-1.64,0.66-3.31,0.97-4.88
		c0.88-4.45,1.6-8.09,1.6-8.09L614.2,449.43z"/>
	<path style="opacity:0.5;fill:#F47458;" d="M614,450.53c0.13-0.69,0.2-1.1,0.2-1.1l12.35-0.31c0,0-0.72,3.64-1.6,8.09
		c-0.31,1.56-0.64,3.22-0.96,4.85c-1.91-0.28-3.9-1.2-5.9-2.95c-2.18-1.9-3.6-4.19-4.47-6.63C613.77,451.71,613.9,451.04,614,450.53
		z"/>
	<path style="fill:#F7A491;" d="M621.62,420.08c0,0-5.04,0.7-8.68,5.41c-3.65,4.71-7.58,19.27,1.48,27.19
		c9.06,7.92,18.02-1.04,19.34-10.55C635.09,432.63,634.82,419.74,621.62,420.08z"/>
	<path style="fill:#F7A491;" d="M636.41,439.79c-0.57,2.29-2.07,3.84-3.35,3.46s-1.85-2.55-1.28-4.84c0.57-2.29,2.07-3.84,3.35-3.46
		C636.4,435.33,636.98,437.5,636.41,439.79z"/>
	<path style="fill:#0E2E35;" d="M627.22,420.13c0,0-11.83,13.58-17.4,14.22c-5.56,0.64-6.29,8-6.29,8s1.99-16.95,7.49-20.22
		C616.53,418.86,627.22,420.13,627.22,420.13z"/>
	<path style="fill:#F7A491;" d="M611.64,437.65c0.45,2.46-0.46,4.71-2.03,5.04c-1.57,0.32-3.22-1.41-3.67-3.87
		c-0.45-2.46,0.46-4.71,2.03-5.04C609.54,433.46,611.19,435.19,611.64,437.65z"/>
	<path style="fill:#184655;" d="M611.47,506.6l38.24,5.59c1.15,0.17,1.95,1.24,1.78,2.39l-7.46,51.01
		c-0.17,1.15-1.24,1.95-2.39,1.78l-38.24-5.59c-1.15-0.17-1.94-1.24-1.78-2.39l7.46-51.01C609.25,507.23,610.32,506.43,611.47,506.6
		z"/>
	<path style="fill:#13375B;" d="M639.99,509.08c0.03-0.23-0.13-0.45-0.36-0.48l-15.95-2.33c-0.23-0.03-0.45,0.13-0.48,0.36
		l-0.24,1.66l16.79,2.46L639.99,509.08z"/>
	<path style="fill:#13375B;" d="M631.95,505.42c-1.39-0.2-2.68,0.76-2.88,2.15c-0.2,1.39,0.76,2.68,2.15,2.88
		c1.39,0.2,2.68-0.76,2.88-2.15C634.3,506.91,633.34,505.62,631.95,505.42z M631.35,509.54c-0.89-0.13-1.51-0.96-1.38-1.85
		c0.13-0.89,0.96-1.51,1.85-1.38c0.89,0.13,1.51,0.96,1.38,1.85C633.07,509.06,632.24,509.67,631.35,509.54z"/>
	<path style="fill:#355389;" d="M639.79,508.65c0.14,0.09,0.23,0.25,0.2,0.43l-0.24,1.66l-16.79-2.46
		c-0.17,1.15,0.63,2.22,1.78,2.38l12.63,1.85c1.15,0.17,2.22-0.63,2.38-1.78l0.24-1.66C640.02,508.91,639.93,508.74,639.79,508.65z"
		/>
	<path style="fill:#FFFFFF;" d="M628.1,446.84l-8.6-0.05c0,0,0.18,3.27,3.96,3.4C628.07,450.35,628.1,446.84,628.1,446.84z"/>
	<path style="fill:#F7A491;" d="M584.64,519.64l13.85,1.42c0,0-0.23,11.76,0.01,13.11c0,0,23.69,6.57,33.59,8.35
		c0,0,4.51-2.56,6.33-3.37c1.82-0.81,6.73-1.7,7.81-1.84c1.08-0.14,0.71,1.05-0.22,1.46c-0.93,0.41-3.34,1.55-4.02,2.94
		c0,0,1.96,0.21,2.99-0.25c1.03-0.46,2.46-1.44,2.48-1.94s0.26-1.73,0.6-1.66c0.09,0.02,0.2,0.42,0.32,0.84
		c0.11,0.4,0.23,0.81,0.32,1.21c0.17,0.72,0.37,1.77,0.45,2.25c0.18,1.08-0.48,4.06-0.58,5.12c-0.17,1.93-0.72,2.79-1.74,3.28
		c-1.64,0.57-3.38,0.94-5.95,1.2c-4.71,0.49-9.04-0.87-10.93-1.08c-1.89-0.21-32.06-3.2-32.06-3.2s-11.99-1.73-12.79-3.79
		C584.32,541.62,584.64,519.64,584.64,519.64z"/>
	<path style="fill:#F7CC7F;" d="M596.68,473.09c0,0-4.37,2.07-8.22,11.03c-3.65,8.51-4.73,50.98-4.73,50.98l14.49-2.42l7.36-19.8
		c5.25-11.85,3.89-25.65-3.75-36.12C599.8,473.98,597.92,472.29,596.68,473.09z"/>
</g>
<rect x="825.2" y="269.06" style="opacity:0.6;fill:#9BC1F9;" width="61.51" height="61.51"/>
<rect x="897.6" y="269.06" style="opacity:0.6;fill:#9BC1F9;" width="120" height="8.36"/>
<rect x="897.6" y="286.78" style="opacity:0.6;fill:#9BC1F9;" width="80.98" height="8.36"/>
<rect x="897.6" y="304.5" style="opacity:0.6;fill:#9BC1F9;" width="107.79" height="8.36"/>
<g>
	<path style="fill:#F7A491;" d="M1058.9,473.27c-2.51-2.04-21.96,6.49-21.71,9.46c0.25,2.97-13.57,31.77-13.57,31.77l-23.87-19.04
		l-0.01,0.01c-0.21-0.69-2.47-8.09-2.58-9.42c-0.12-1.39-4.15-3.82-6.02-3.46c-1.87,0.36,1.6,2.71,1.83,3.14
		c0.62,1.17-1.78,1.62-1.78,1.62s-6.82-2.19-6.96-4.41c-0.15-2.23-4.81,3.89-4.26,4.74c0.54,0.83,11.68,9.81,13.28,11.76
		c0,0,30.88,35.3,33.08,36.23c1.93,0.81,8.81-11.36,15.31-19.43C1048.11,508.15,1066.75,479.66,1058.9,473.27z"/>
	<path style="fill:#F48C7F;" d="M1121.21,732.85c0,0,4.24,4.14,4.34,5.66c0.1,1.52,0.38,17.8-1.36,19.32
		c-1.73,1.52-6.82,2.6-5.18,4.31c1.24,1.29,10.75,1.02,17.05,0.67c1.84-0.1,4.15-14.78,4.88-16.94c1.06-3.13,3.63-10.19,2.67-12.38
		c-0.47-1.06-2.71-3.25-5.87-5.29c-3.32-2.15-6.51-6.93-6.51-6.93L1121.21,732.85z"/>
	<path style="fill:#F7A491;" d="M1077.25,742.49c0,0,3.8,10.73,3.8,10.76c0.28,1.7,1.39,5.9,1.39,7.44c0,5.8-26.18-4.93-20.31-7.5
		c0.53-0.23,2.2-2.09,2.37-4.07c0.27-3.04-2.21-6.86-2.21-6.86L1077.25,742.49z"/>
	<g>
		<path style="fill:#136F63;" d="M1036.18,542.73c0,0-1.91,19.23-1.91,19.52c0,31.11-6.17,91.88-4.99,97.73
			c2.86,14.27,33.65,87.04,33.65,87.04l16.64-1.99l-17.86-87.94l4.16-34.26l11.29-69.33L1036.18,542.73z"/>
		<path style="fill:#1E8E7B;" d="M1092.04,550.74l3.16,18.23l8.54,75.02l32.54,73.32c0,0-4.58,10.67-11.33,12.17l-51.79-75.28
			l-32.17-96.32l1.13-21.4L1092.04,550.74z"/>
	</g>
	<path style="fill:#B75742;" d="M1029.55,496.94l23.08,2.36c0,0,1.06-18.92,1.06-27.94c0-10.95-0.93-25.05-2.25-24.75
		c-3.71,0.85-8.71,2.9-11.68,6.99C1029.45,467.74,1029.55,496.94,1029.55,496.94z"/>
	<path style="fill:#F47458;" d="M1040.88,469.42c-0.48,3.34-9.35,94.09-9.35,94.09c42.02,20.29,65.21,3.62,65.21,3.62
		s-1.37-63.73,0.27-72.4c1.09-5.74,2.45-43.87-1.27-44.94c-4.77-1.37-10.24-2.83-16.21-3.45c-5.09-0.53-24.87-0.83-28.41,0.35
		C1051.12,446.69,1042.92,455.38,1040.88,469.42z"/>
	<path style="fill:#F47458;" d="M1137.53,728.09c0,0-9.78,27.54-13.61,28.87c-1.02,0.35-5.89,1.25-6.81,3.41
		c-0.28,0.65,0,2.82,0,2.82h20.39c0,0,2.58-12.13,3.6-17.46c0,0,5.4-13.03,4.8-14.21C1145.28,730.32,1137.53,728.09,1137.53,728.09z
		"/>
	<path style="fill:#F47458;" d="M1083.93,762.61l-3-9.47c0,0-6.3,2.66-9.44,2.22c-3.15-0.44-9.29-2.22-9.29-2.22
		c-12.56,4.14-22.86,6.14-20.98,9.47l0,0H1083.93z"/>
	<g>
		<path style="fill:#F7A491;" d="M1026.31,535.65c-0.1-0.04-0.44-0.31-0.63-0.47c0.75-8.89,0.61-17.51-2.18-20.42
			c0.07-0.14,0.68-1.44,1.31-2.78c3.23,2.5,4.77,9.15,4.17,19.93c-0.04,0.74-0.25,1.31-0.43,2.23
			C1027.61,535.18,1026.76,535.85,1026.31,535.65z"/>
	</g>
	<path style="fill:#F7A491;" d="M1073.91,428.79l2.71,17.85c0,0-9.89,21.26-15.8,19.41c-4.95-1.55-1.91-20.35-1.91-20.35
		s2.7-10.1,1.89-15.15C1060,425.49,1073.91,428.79,1073.91,428.79z"/>
	<path style="fill:#F47458;" d="M1060.81,430.55c-0.81-5.05,13.1-1.76,13.1-1.76l0.22,1.48c-0.41,0.99-0.9,1.84-1.51,2.49
		c-3.11,3.34-7.97,5.35-12.17,5.51C1060.88,435.54,1061.14,432.62,1060.81,430.55z"/>
	<g>
		<path style="fill:#F7A491;" d="M1076.19,403.54c0.39-0.14,3.15,20.33-2.08,25.97c-5.24,5.63-15.44,7.48-19.09,3.04
			c-4.05-4.91-3.84-26.91,4.3-32.71C1067.45,394.04,1076.19,403.54,1076.19,403.54z"/>
		<path style="fill:#0E2E35;" d="M1062.41,388.88c6.29,1.28,10.37,5.13,11.86,6.77c2.86,0.34,6.74,1.92,10.75,8.55
			c4.93,8.16,1.29,17.21-4.45,21.64c-5.74,4.44-5.66,9.56-5.66,9.56l-0.91-2.65c-0.67-2.01-0.94-4.14-0.72-6.24
			c0.13-1.26,0.41-2.63,0.93-3.75c1.38-2.96-2.96-4.93-4.18-7.4c-0.94-1.9-0.98-6.24-2.46-9.38l-1.77-2.4c0,0-4.07-3.17-8.06-2.27
			C1053.77,402.21,1054.34,387.23,1062.41,388.88z"/>
		<path style="fill:#F7A491;" d="M1070.3,419c-0.04,2.5,1.09,4.54,2.54,4.57c1.44,0.02,2.65-1.98,2.69-4.48s-1.09-4.54-2.54-4.57
			C1071.55,414.5,1070.34,416.51,1070.3,419z"/>
	</g>
	<path style="fill:#FFFFFF;" d="M1061.8,424.78l-7.89-0.41c0,0,0.03,3.01,3.49,3.29C1061.63,428,1061.8,424.78,1061.8,424.78z"/>
	<g>
		<path style="fill:#0E2E35;" d="M997.23,471.46c1.85-1.9,3.58-3.86,5.19-5.86l34.44,33.64c2.12,2.07,1.39,6.25-1.63,9.33
			c-3.02,3.09-7.18,3.92-9.29,1.85l-34.44-33.64C993.46,475.13,995.37,473.35,997.23,471.46z"/>
		
			<ellipse transform="matrix(0.6988 -0.7153 0.7153 0.6988 -11.768 791.5071)" style="opacity:0.6;fill:#C5DDF9;" cx="934.02" cy="409.73" rx="86.88" ry="87.42"/>
		<path style="fill:#FFFFFF;" d="M996.66,469.88c-14.29,15.19-33.84,25.12-55.31,27.07l-94.23-95.78c0.02-0.18,0.03-0.36,0.05-0.54
			c2.35-21.87,12.52-40.99,27.41-54.84L996.66,469.88z"/>
		<path style="fill:#FFFFFF;" d="M933.28,322.49l87.14,88.58c-0.04,2.68-0.2,5.38-0.49,8.1c-1.33,12.38-5.17,23.87-10.94,34.03
			L891.3,333.57C903.83,326.52,918.18,322.54,933.28,322.49z"/>
		<path style="fill:#184655;" d="M865.4,479.99c39.05,38.13,101.42,37.59,139.32-1.22c37.9-38.81,36.97-101.18-2.08-139.31
			c-39.05-38.13-101.42-37.59-139.32,1.22C825.42,379.49,826.35,441.86,865.4,479.99z M873.32,471.88
			c-34.54-33.73-35.36-88.9-1.84-123.23c33.52-34.33,88.7-34.81,123.24-1.08c34.54,33.73,35.36,88.9,1.84,123.23
			C963.04,505.13,907.86,505.61,873.32,471.88z"/>
		<path style="opacity:0.5;fill:#50BFA5;" d="M869.56,475.73c36.68,35.82,95.27,35.31,130.87-1.14
			c35.6-36.45,34.72-95.04-1.95-130.86c-36.68-35.82-95.27-35.31-130.87,1.14C832.01,381.32,832.89,439.91,869.56,475.73z
			 M873.32,471.88c-34.54-33.73-35.36-88.9-1.84-123.23c33.52-34.33,88.7-34.81,123.24-1.08c34.54,33.73,35.36,88.9,1.84,123.23
			C963.04,505.13,907.86,505.61,873.32,471.88z"/>
		<path style="fill:#184655;" d="M1143.84,619.07l5.35-5.55c5.35-5.55,5.19-14.38-0.36-19.73l-99.44-96.41
			c-5.55-5.35-14.38-5.19-19.73,0.36l-5.35,5.55c-5.35,5.55-5.19,14.38,0.36,19.73l99.44,96.41
			C1129.65,624.78,1138.49,624.62,1143.84,619.07z"/>
	</g>
	<path style="fill:#F8A492;" d="M1138.35,564.47c0.03-0.19,0.03-0.39,0.01-0.58c-0.62-6.29-5.84-59.06-6.72-61.31
		c-0.79-2.03-24.2-35.5-24.2-35.5l-11.5,15.67l22.51,30.02c0.5,1.91,8.63,37.53,8.63,37.53s1.66,6.49,2.41,10.38
		c-0.34,0.94-0.67,1.82-0.97,2.55c-0.75,1.55-1.63,2.83-2.43,3.9c-1.01,1.35-2.67,4.29-2.87,5.08c-0.24,0.92-0.67,2.82-0.91,3.97
		c-0.24,1.15-0.58,2.49-0.63,3.11c-0.03,0.38-0.43,1.14-0.73,1.67c-0.45,0.8,0.32,1.74,1.19,1.45c0.82-0.27,1.45-1.33,1.85-1.99
		c1.11-1.86,1.7-5.26,1.97-5.08c0.28,0.18,1.25,5.95,1.4,6.6c0.15,0.65,1.32,7.35,1.97,8.57c0.66,1.22,1.53,1.02,1.76,0.25
		c0.2-0.66-0.73-10.03-0.73-10.03s-0.12-1.2,0.41-0.82c0.52,0.37,1.38,8.88,1.74,10.12c0.36,1.24,1.19,1.9,1.9,0.9
		c0.86-1.22-0.62-10.24-0.62-10.24s-0.17-1.13,0.32-1.03c0.48,0.11,1.09,7.36,1.47,7.98c0.38,0.63,1.33,0.85,1.78-0.19
		c0.53-1.23-0.85-9.27-0.85-9.27s0.07-0.64,0.37-0.43c0.3,0.21,1.26,6.36,1.89,6.92c0.53,0.48,0.96,0.01,0.96,0.01
		c1.15-0.78-0.61-6.63-0.59-9.53c0.02-2.91-1.33-6.17-0.93-9.63C1138.24,565.34,1138.31,564.81,1138.35,564.47z"/>
	<path style="fill:#F47458;" d="M1125.73,488.28l-19.99,13.42c0,0-11.27-16.77-17.32-22.74c-7.58-7.48,2.76-30.39,7.64-29.09
		C1106.99,452.78,1125.73,488.28,1125.73,488.28z"/>
</g>
<rect x="172.08" y="760.97" style="fill:#0E2E35;" width="994.8" height="5.94"/>
<text transform="matrix(1 0 0 1 256 489)" style="font-family:'Qualy-Bold'; font-size:29px;">SERVICES</text>
</svg>
