<svg id="Layer_1" data-name="Layer 1" xmlns="http://www.w3.org/2000/svg" viewBox="0 0 200 200"><defs><style>.cls-1{fill:#1a1a1a;}</style></defs><path class="cls-1" d="M128.84,100.12h0a29.64,29.64,0,0,1-29-29l-.13.13A29.64,29.64,0,0,1,71,100l.13.14A29.64,29.64,0,0,1,99.7,128.71l.14.13A29.64,29.64,0,0,1,128.84,100.12Z"/><rect class="cls-1" x="50.32" y="108.61" width="41" height="41" transform="translate(-70.54 87.84) rotate(-44.98)"/><rect class="cls-1" x="108.21" y="108.61" width="41" height="41" transform="translate(-53.59 128.76) rotate(-44.98)"/><rect class="cls-1" x="50.32" y="50.71" width="41" height="41" transform="translate(-29.61 70.9) rotate(-44.98)"/><rect class="cls-1" x="108.21" y="50.71" width="41" height="41" transform="translate(-12.67 111.82) rotate(-44.98)"/></svg>