<?xml version="1.0" encoding="iso-8859-1"?>
<!-- Generator: Adobe Illustrator 19.0.0, SVG Export Plug-In . SVG Version: 6.00 Build 0)  -->
<svg version="1.1" id="Layer_1" xmlns="http://www.w3.org/2000/svg" xmlns:xlink="http://www.w3.org/1999/xlink" x="0px" y="0px"
	 viewBox="0 0 297 297" style="enable-background:new 0 0 297 297;" xml:space="preserve">
<g>
	<g>
		<g>
			<path d="M254.346,111.989l-49.35-74.027l9.08-24.553c1.3-3.514,0.516-7.46-2.026-10.211c-2.543-2.75-6.416-3.842-10.021-2.822
				l-46.972,13.285c-5.602-0.049-23.111,0.631-42.332,9.436c-21.119,9.675-48.493,31.278-58.963,79.25
				c-13.843,63.425-1.049,112.406,7.612,135.619h-3.346c-4.813,0-8.938,3.444-9.796,8.18l-7.091,39.123
				c-0.526,2.903,0.262,5.891,2.154,8.156c1.892,2.265,4.691,3.575,7.642,3.575h177.521c3.236,0,6.271-1.573,8.135-4.217
				c1.866-2.644,2.328-6.031,1.242-9.078l-13.938-39.123c-1.413-3.967-5.167-6.615-9.378-6.615h-9.627l9.087-9.087
				c3.312-3.312,3.867-8.487,1.332-12.427c-10.211-15.872-33.352-54.137-44.529-80.656c2.203,0.333,4.509,0.473,6.895,0.35
				c6.128-0.321,11.923-2.399,17.095-6.087l16.397,10.932c6.508,4.339,14.577,5.677,22.134,3.668
				c7.559-2.008,13.901-7.171,17.399-14.167l4.264-8.528C256.565,118.768,256.329,114.961,254.346,111.989z M207.499,257.876
				l6.844,19.212H62.859l3.482-19.212H207.499z M232.895,121.587c-1.294,2.587-3.5,3.508-4.7,3.827
				c-1.203,0.318-3.574,0.614-5.98-0.991l-22.793-15.196c-4.125-2.751-9.648-2.045-12.949,1.654
				c-4.487,5.025-9.176,6.462-15.207,4.653c-5.532-1.659-9.794-5.392-9.795-5.392c-3.077-2.796-7.565-3.384-11.259-1.479
				c-3.693,1.906-5.815,5.905-5.32,10.031c3.088,25.773,36.722,81.515,49.375,101.739l-17.532,17.532h-93.86
				c-6.704-15.684-24.078-65.307-9.658-131.373c16.46-75.411,79.889-73.126,82.537-73.006c1.105,0.064,2.215-0.058,3.281-0.36
				l29.578-8.365l-4.049,10.949c-1.105,2.988-0.714,6.324,1.054,8.975l48.959,73.44L232.895,121.587z"/>
			<path d="M171.974,55.391c-5.498,0-9.955,4.458-9.955,9.955s4.458,9.955,9.955,9.955h8.884c5.498,0,9.955-4.458,9.955-9.955
				s-4.458-9.955-9.955-9.955H171.974z"/>
		</g>
	</g>
</g>
<g>
</g>
<g>
</g>
<g>
</g>
<g>
</g>
<g>
</g>
<g>
</g>
<g>
</g>
<g>
</g>
<g>
</g>
<g>
</g>
<g>
</g>
<g>
</g>
<g>
</g>
<g>
</g>
<g>
</g>
</svg>
