<?xml version="1.0" encoding="utf-8"?>
<!-- Generator: Adobe Illustrator 25.2.1, SVG Export Plug-In . SVG Version: 6.00 Build 0)  -->
<svg version="1.1" id="Capa_1" xmlns="http://www.w3.org/2000/svg" xmlns:xlink="http://www.w3.org/1999/xlink" x="0px" y="0px"
	 viewBox="0 0 30 30" style="enable-background:new 0 0 30 30;" xml:space="preserve">
<g>
	<g>
		<path d="M28.7,1.3C27.8,0.4,26.6,0,25.1,0C22.3,0,18.7,1.5,15,4.1C11.3,1.5,7.7,0,4.9,0C3.4,0,2.2,0.4,1.3,1.3
			C0.4,2.2,0,3.4,0,4.9C0,7.7,1.5,11.3,4.1,15C1.5,18.7,0,22.3,0,25.1c0,1.5,0.4,2.7,1.3,3.6C2.2,29.6,3.4,30,4.9,30
			c2.7,0,6.4-1.5,10.1-4.1c3.7,2.6,7.3,4.1,10.1,4.1c1.5,0,2.7-0.4,3.6-1.3C31.2,26.1,30,20.8,26,15C30,9.2,31.2,3.9,28.7,1.3z
			 M25.1,2.2c0.9,0,1.6,0.2,2,0.7c1.5,1.5,0.6,5.5-2.6,10.2c-1.1-1.3-2.3-2.7-3.6-4c-1.3-1.3-2.7-2.5-4-3.6
			C20,3.4,22.9,2.2,25.1,2.2z M2.2,4.9c0-0.9,0.2-1.6,0.7-2c0.4-0.4,1.1-0.7,2-0.7c2.1,0,5.1,1.2,8.2,3.2c-1.4,1.1-2.7,2.3-4,3.6
			c-1.3,1.3-2.5,2.7-3.6,4C3.4,10,2.2,7.1,2.2,4.9z M4.9,27.8c-0.9,0-1.6-0.2-2-0.7c-0.4-0.4-0.7-1.1-0.7-2c0-2.1,1.2-5.1,3.2-8.2
			c1.1,1.4,2.3,2.7,3.6,4c1.3,1.3,2.7,2.5,4,3.6C10,26.6,7.1,27.8,4.9,27.8z M12.1,21c-0.8,0-1.4-0.7-1.4-1.5v-9
			c0-0.8,0.6-1.5,1.4-1.5h5.8c0.8,0,1.4,0.7,1.4,1.5v9c0,0.8-0.6,1.5-1.4,1.5H12.1z M27.1,27.1c-0.4,0.4-1.1,0.7-2,0.7
			c-2.1,0-5.1-1.2-8.2-3.2c1.4-1.1,2.7-2.3,4-3.6c1.3-1.3,2.5-2.7,3.6-4C27.7,21.6,28.6,25.7,27.1,27.1z"/>
		<circle cx="15" cy="20.1" r="0.5"/>
		<path d="M18.6,18.4v-7.9c0-0.4-0.3-0.7-0.7-0.7h-5.8c-0.4,0-0.7,0.3-0.7,0.7v7.9c0,0.4,0.3,0.8,0.7,0.8h5.8
			C18.3,19.1,18.6,18.8,18.6,18.4z"/>
	</g>
</g>
</svg>
